{
.appVersion = "1222";
DisplayStrings = (
"/uniFB05"
);
classes = (
{
code = "a b c d e g h i j k l m n o p q r s t u v w x y z\012agrave aacute acircumflex atilde adieresis aring ae\012ccedilla egrave eacute ecircumflex edieresis igrave\012iacute icircumflex idieresis eth ntilde ograve\012oacute ocircumflex otilde odieresis oslash ugrave\012uacute ucircumflex udieresis yacute thorn ydieresis\012germandbls amacron emacron imacron omacron umacron\012abreve cdotaccent dcaron ebreve eogonek gdotaccent\012ibreve dotlessi lslash obreve oe tcaron ubreve\012longs uni0195 uni01BF uni01E3 uni01EB uni021D\012uni0233 uni0237 uni1D79 uni1E8F uni1E9C uniA741\012uniA751 uniA753 uniA757 uniA75D uniA76B uniA76F\012uniA77A uniA77C uniA783 uniA785 uniA787\012# uniFB00 uniFB01 uniFB02 uniFB03 uniFB04\012uniFB05 uniFB06\012# f_f_udieresis f_thorn f_thorn.nordic f_eth.nordic\012# f_j f_udieresis f_odieresis\012";
name = AllLowerCaseexclf;
},
{
code = "agrave acircumflex atilde adieresis aring egrave\012ecircumflex edieresis igrave iacute icircumflex\012idieresis ograve ocircumflex otilde\012ugrave ucircumflex ydieresis amacron\012abreve emacron ebreve imacron ibreve omacron\012obreve umacron ubreve uni01E3\012";
name = HighDiacritics;
},
{
code = "f uniFB00";
name = LowerCase_f;
},
{
code = "acutecomb gravecomb tildecomb circumflexcomb macroncomb\012uni0305 brevecomb dotaccentcomb dieresiscomb ringcomb caroncomb\012uni035B uni1DD1";
name = CombDiacritics;
},
{
code = "zero one two three four five six seven eight nine dollar";
name = FIGURES_LINING_TABULAR;
},
{
code = "zero.tosf one.tosf two.tosf three.tosf four.tosf five.tosf six.tosf seven.tosf eight.tosf nine.tosf dollar.tosf";
name = FIGURES_OLDSTYLE_TABULAR;
},
{
code = "zero.lf one.lf two.lf three.lf four.lf five.lf six.lf seven.lf eight.lf nine.lf dollar.lf";
name = FIGURES_LINING;
},
{
code = "zero.osf one.osf two.osf three.osf four.osf five.osf six.osf seven.osf eight.osf nine.osf dollar.osf";
name = FIGURES_OLDSTYLE;
},
{

glyphs = (
{
glyphname = A;
lastChange = "2019-07-10 21:12:44 +0000";
layers = (
{
anchors = (
{
name = bottom;
position = "{656, 0}";
},
{
name = ogonek;
position = "{1182, 10}";
},
{
name = top;
position = "{654, 1358}";
},
{
name = us;
position = "{1283, 848}";
}
);
guideLines = (
{
position = "{1200, 369}";
showMeasurement = 1;
}
);
layerId = "6CE37295-6E30-426D-87AF-6FEE9061C297";
paths = (
{
closed = 1;
nodes = (
"1243 40 LINE",
"847 1222 LINE SMOOTH",
"829 1276 OFFCURVE",
"813 1331 OFFCURVE",
"800 1385 CURVE",
"706 1385 LINE",
"667 1347 OFFCURVE",
"484 1268 OFFCURVE",
"429 1259 CURVE",
"429 1178 LINE",
"472 1164 OFFCURVE",
"535 1136 OFFCURVE",
"598 941 CURVE SMOOTH",
"889 40 LINE"
);
},
{
closed = 1;
nodes = (
"281 40 LINE",
"637 1205 LINE",
"544 1234 LINE",
"155 40 LINE"
);
},
{
closed = 1;
nodes = (
"939 430 LINE",
"906 531 LINE",
"370 531 LINE",
"335 430 LINE"
);
},
{
closed = 1;
nodes = (
"1354 0 LINE",
"1354 81 LINE",
"1054 111 LINE",
"723 81 LINE",
"723 0 LINE"
);
},
{
closed = 1;
nodes = (
"462 0 LINE",
"462 81 LINE",
"237 111 LINE",
"22 81 LINE",
"22 0 LINE"
);
}
);
userData = {
assembly = "NPUSHB[ ]\011/* 11 values pushed */
61 56 2 9 8 1 76 32 1 1 73 
MPPEM[ ]\011/* MeasurePixelPerEm */
PUSHB[ ]\011/* 1 value pushed */
51 
LT[ ]\011/* LessThan */
IF[ ]\011/* If */
NPUSHB[ ]\011/* 36 values pushed */
0 8 7 9 7 8 9 128 0 9 0 3 0 9 3 103 0 7 7 74 77 6 4 2 3 0 0 1 97 5 1 1 1 69 1 78 
ELSE[ ]\011/* Else */
MPPEM[ ]\011/* MeasurePixelPerEm */
PUSHB[ ]\011/* 1 value pushed */
60 
LT[ ]\011/* LessThan */
IF[ ]\011/* If */
NPUSHB[ ]\011/* 33 values pushed */
0 8 7 9 7 8 9 128 0 9 0 3 0 9 3 103 6 4 2 3 0 5 1 1 0 1 101 0 7 7 74 7 78 
ELSE[ ]\011/* Else */
NPUSHB[ ]\011/* 41 values pushed */
0 7 8 7 133 0 8 9 8 133 0 9 0 3 0 9 3 103 6 4 2 3 0 1 1 0 89 6 4 2 3 0 0 1 97 5 1 1 0 1 81 
EIF[ ]\011/* EndIf */
EIF[ ]\011/* EndIf */
NPUSHB[ ]\011/* 14 values pushed */
60 58 36 41 35 50 21 53 34 66 17 10 11 31 
CALL[ ]\011/* CallFunction */";
};
width = 1376;
},
{
anchors = (
{
name = bottom;
position = "{684, 0}";
},
{
name = ogonek;
position = "{1236, 10}";
},
{
name = top;
position = "{665, 1358}";
},
{
name = us;
position = "{1193, 848}";
}
);
guideLines = (
{
position = "{1200, 369}";
showMeasurement = 1;
}
);
layerId = "C40247AC-6B1A-4EFE-B804-1FED3C225331";
paths = (
{
closed = 1;
nodes = (
"1160 22 LINE",
"729 1222 LINE SMOOTH",
"710 1276 OFFCURVE",
"693 1331 OFFCURVE",
"679 1385 CURVE",
"644 1385 LINE",
"628 1351 OFFCURVE",
"576 1282 OFFCURVE",
"533 1259 CURVE",
"533 1216 LINE",
"579 1212 OFFCURVE",
"635 1200 OFFCURVE",
"706 994 CURVE SMOOTH",
"1042 22 LINE"
);
},
{
closed = 1;
nodes = (
"252 22 LINE",
"640 1205 LINE",
"598 1234 LINE",
"179 22 LINE"
);
},
{
closed = 1;
nodes = (
"940 454 LINE",
"917 518 LINE",
"389 518 LINE",
"368 454 LINE"
);
},
{
closed = 1;
nodes = (
"1296 0 LINE",
"1296 44 LINE",
"1109 74 LINE",
"863 44 LINE",
"863 0 LINE"
);
},
{
closed = 1;
nodes = (
"437 0 LINE",
"437 44 LINE",
"218 74 LINE",
"54 44 LINE",
"54 0 LINE"
);
}
);
width = 1351;
},
{
anchors = (
{
name = bottom;
position = "{563, 0}";
},
{
name = ogonek;
position = "{1044, 10}";
},
{
name = top;
position = "{574, 1358}";
},
{
name = us;
position = "{941, 848}";
}
);
guideLines = (
{
position = "{1200, 369}";
showMeasurement = 1;
}
);
hints = (
{
horizontal = 1;
origin = "{4, 4}";
target = "{4, 3}";
type = TTStem;
stem = 2;
},
{
horizontal = 1;
origin = "{4, 4}";
target = "{3, 4}";
type = Align;
options = 4;
},
{
horizontal = 1;
origin = "{4, 3}";
target = "{4, 1}";
type = Align;
options = 4;
},
{
horizontal = 1;
origin = "{4, 3}";
target = "{3, 3}";
type = Align;
options = 4;
},
{
horizontal = 1;
origin = "{4, 3}";
target = "{3, 1}";
type = Align;
options = 4;
},
{
horizontal = 1;
origin = "{2, 2}";
target = "{2, 3}";
type = TTStem;
options = 4;
},
{
horizontal = 1;
origin = "{0, 5}";
type = Anchor;
},
{
horizontal = 1;
origin = "{4, 4}";
type = Anchor;
},
{
horizontal = 1;
origin = "{4, 4}";
target = "{0, 5}";
other1 = "{1, 1, 2, 2}";
type = Interpolate;
},
{
horizontal = 1;
origin = "{4, 3}";
target = "{4, 4}";
other1 = "{1, 3}";
type = Interpolate;
options = 4;
},
{
horizontal = 1;
origin = "{1, 3}";
target = "{0, 13}";
type = Align;
options = 4;
}
);
layerId = "56E89462-3A12-4850-914F-0D670F297A3A";
paths = (
{
closed = 1;
nodes = (
"1057 22 LINE",
"655 1222 LINE SMOOTH",
"637 1276 OFFCURVE",
"621 1331 OFFCURVE",
"608 1385 CURVE",
"583 1385 LINE",
"572 1357 OFFCURVE",
"511 1274 OFFCURVE",
"480 1259 CURVE",
"480 1218 LINE",
"523 1204 OFFCURVE",
"572 1183 OFFCURVE",
"633 994 CURVE SMOOTH",
"948 22 LINE"
);
},
{
closed = 1;
nodes = (
"214 22 LINE",
"577 1205 LINE",
"538 1234 LINE",
"146 22 LINE"
);
},
{
closed = 1;
nodes = (
"852 459 LINE",
"831 514 LINE",
"338 514 LINE",
"318 459 LINE"
);
},
{
closed = 1;
nodes = (
"1184 0 LINE",
"1184 44 LINE",
"1007 74 LINE",
"798 44 LINE",
"798 0 LINE"
);
},
{
closed = 1;
nodes = (
"356 0 LINE",
"356 44 LINE",
"178 74 LINE",
"20 44 LINE",
"20 0 LINE"
);
}
);
width = 1204;
},
{
anchors = (
{
name = bottom;
position = "{578, 0}";
},
{
name = ogonek;
position = "{1076, 10}";
},
{
name = top;
position = "{578, 1358}";
},
{
name = us;
position = "{1140, 848}";
}
);
guideLines = (
{
position = "{1200, 369}";
showMeasurement = 1;
}
);
layerId = "D683B167-653D-4D52-BD41-B5BCAD6A6428";
paths = (
{
closed = 1;
nodes = (
"1099 37 LINE",
"717 1222 LINE SMOOTH",
"696 1288 OFFCURVE",
"685 1328 OFFCURVE",
"671 1385 CURVE",
"592 1385 LINE",
"559 1348 OFFCURVE",
"423 1269 OFFCURVE",
"376 1259 CURVE",
"376 1185 LINE",
"430 1166 OFFCURVE",
"481 1124 OFFCURVE",
"535 950 CURVE SMOOTH",
"819 37 LINE"
);
},
{
closed = 1;
nodes = (
"217 37 LINE",
"560 1205 LINE",
"490 1234 LINE",
"116 37 LINE"
);
},
{
closed = 1;
nodes = (
"851 435 LINE",
"821 528 LINE",
"313 528 LINE",
"281 435 LINE"
);
},
{
closed = 1;
nodes = (
"1213 0 LINE",
"1213 75 LINE",
"967 105 LINE",
"656 75 LINE",
"656 0 LINE"
);
},
{
closed = 1;
nodes = (
"395 0 LINE",
"395 75 LINE",
"170 105 LINE",
"-9 75 LINE",
"-9 0 LINE"
);
}
);
width = 1204;
},
{
anchors = (
{
name = bottom;
position = "{658, 0}";
},
{
name = ogonek;
position = "{1191, 10}";
},
{
name = top;
position = "{649, 1358}";
},
{
name = us;
position = "{1192, 848}";
}
);
associatedMasterId = "56E89462-3A12-4850-914F-0D670F297A3A";
guideLines = (
{
position = "{1200, 369}";
showMeasurement = 1;
}
);
layerId = "F30A8CF1-E885-4C60-AB0B-C5212DFE917B";
name = "{420, 12, 1, 0 off}";
paths = (
{
closed = 1;
nodes = (
"1177 29 LINE",
"762 1222 LINE SMOOTH",
"743 1276 OFFCURVE",
"727 1331 OFFCURVE",
"714 1385 CURVE",
"659 1385 LINE",
"635 1350 OFFCURVE",
"534 1276 OFFCURVE",
"488 1259 CURVE",
"488 1202 LINE",
"532 1193 OFFCURVE",
"590 1174 OFFCURVE",
"657 975 CURVE SMOOTH",
"973 29 LINE"
);
},
{
closed = 1;
nodes = (
"258 29 LINE",
"631 1205 LINE",
"570 1234 LINE",
"166 29 LINE"
);
},
{
closed = 1;
nodes = (
"928 445 LINE",
"902 522 LINE",
"375 522 LINE",
"349 445 LINE"
);
},
{
closed = 1;
nodes = (
"1302 0 LINE",
"1302 58 LINE",
"1075 88 LINE",
"803 58 LINE",
"803 0 LINE"
);
},
{
closed = 1;
nodes = (
"435 0 LINE",
"435 58 LINE",
"220 88 LINE",
"38 58 LINE",
"38 0 LINE"
);
}
);
width = 1341;
}
);
leftKerningGroup = A;
note = A;
rightKerningGroup = A;
unicode = 0041;
},
{
glyphname = Aring;
lastChange = "2019-07-10 21:00:35 +0000";
layers = (
{
anchors = (
{
name = top;
position = "{1164, 1358}";
}
);
layerId = "6CE37295-6E30-426D-87AF-6FEE9061C297";
paths = (
{
closed = 1;
nodes = (
"940 430 LINE",
"906 531 LINE",
"370 531 LINE",
"335 430 LINE"
);
},
{
closed = 1;
nodes = (
"839 1219 OFFCURVE",
"960 1323 OFFCURVE",
"960 1452 CURVE SMOOTH",
"960 1586 OFFCURVE",
"842 1683 OFFCURVE",
"682 1683 CURVE SMOOTH",
"520 1683 OFFCURVE",
"403 1583 OFFCURVE",
"403 1452 CURVE SMOOTH",
"403 1321 OFFCURVE",
"526 1219 OFFCURVE",
"682 1219 CURVE SMOOTH"
);
},
{
closed = 1;
nodes = (
"630 1310 OFFCURVE",
"595 1368 OFFCURVE",
"595 1452 CURVE SMOOTH",
"595 1535 OFFCURVE",
"636 1600 OFFCURVE",
"682 1600 CURVE SMOOTH",
"728 1600 OFFCURVE",
"770 1531 OFFCURVE",
"770 1452 CURVE SMOOTH",
"770 1367 OFFCURVE",
"733 1310 OFFCURVE",
"682 1310 CURVE SMOOTH"
);
},
{
closed = 1;
nodes = (
"1354 0 LINE",
"1354 81 LINE",
"1054 111 LINE",
"723 81 LINE",
"723 0 LINE"
);
},
{
closed = 1;
nodes = (
"462 0 LINE",
"462 81 LINE",
"237 111 LINE",
"22 81 LINE",
"22 0 LINE"
);
},
{
closed = 1;
nodes = (
"281 40 LINE",
"577 1005 LINE",
"890 40 LINE",
"1244 40 LINE",
"829 1271 LINE",
"555 1271 LINE",
"155 40 LINE"
);
}
);
userData = {
assembly = "NPUSHB[ ]\011/* 20 values pushed */
47 1 9 8 50 38 2 10 9 84 1 11 10 60 5 2 0 1 4 76 
MPPEM[ ]\011/* MeasurePixelPerEm */
PUSHB[ ]\011/* 1 value pushed */
51 
LT[ ]\011/* LessThan */
IF[ ]\011/* If */
NPUSHB[ ]\011/* 41 values pushed */
0 6 0 8 9 6 8 105 0 11 0 2 1 11 2 103 0 10 10 9 97 0 9 9 74 77 7 5 3 3 1 1 0 95 4 1 0 0 69 0 78 
ELSE[ ]\011/* Else */
MPPEM[ ]\011/* MeasurePixelPerEm */
PUSHB[ ]\011/* 1 value pushed */
60 
LT[ ]\011/* LessThan */
IF[ ]\011/* If */
NPUSHB[ ]\011/* 38 values pushed */
0 6 0 8 9 6 8 105 0 11 0 2 1 11 2 103 7 5 3 3 1 4 1 0 1 0 99 0 10 10 9 97 0 9 9 74 10 78 
ELSE[ ]\011/* Else */
NPUSHB[ ]\011/* 47 values pushed */
0 6 0 8 9 6 8 105 0 9 0 10 11 9 10 105 0 11 0 2 1 11 2 103 7 5 3 3 1 0 0 1 89 7 5 3 3 1 1 0 95 4 1 0 1 0 79 
EIF[ ]\011/* EndIf */
EIF[ ]\011/* EndIf */
NPUSHB[ ]\011/* 18 values pushed */
88 86 80 79 74 72 40 28 39 34 66 23 53 37 48 12 11 31 
CALL[ ]\011/* CallFunction */";
};
width = 1376;
},
{
anchors = (
{
name = top;
position = "{1050, 1358}";
}
);
layerId = "C40247AC-6B1A-4EFE-B804-1FED3C225331";
paths = (
{
closed = 1;
nodes = (
"940 454 LINE",
"917 518 LINE",
"389 518 LINE",
"369 454 LINE"
);
},
{
closed = 1;
nodes = (
"736 1235 OFFCURVE",
"821 1303 OFFCURVE",
"821 1409 CURVE SMOOTH",
"821 1498 OFFCURVE",
"746 1582 OFFCURVE",
"650 1582 CURVE SMOOTH",
"563 1582 OFFCURVE",
"477 1513 OFFCURVE",
"477 1409 CURVE SMOOTH",
"477 1308 OFFCURVE",
"545 1235 OFFCURVE",
"650 1235 CURVE SMOOTH"
);
},
{
closed = 1;
nodes = (
"587 1290 OFFCURVE",
"538 1339 OFFCURVE",
"538 1409 CURVE SMOOTH",
"538 1462 OFFCURVE",
"578 1524 OFFCURVE",
"650 1524 CURVE SMOOTH",
"714 1524 OFFCURVE",
"761 1484 OFFCURVE",
"761 1409 CURVE SMOOTH",
"761 1345 OFFCURVE",
"720 1290 OFFCURVE",
"650 1290 CURVE SMOOTH"
);
},
{
closed = 1;
nodes = (
"1296 0 LINE",
"1296 44 LINE",
"1109 74 LINE",
"863 44 LINE",
"863 0 LINE"
);
},
{
closed = 1;
nodes = (
"437 0 LINE",
"437 44 LINE",
"218 74 LINE",
"54 44 LINE",
"54 0 LINE"
);
},
{
closed = 1;
nodes = (
"252 22 LINE",
"637 1198 LINE",
"1042 22 LINE",
"1160 22 LINE",
"712 1271 LINE",
"611 1271 LINE",
"179 22 LINE"
);
}
);
width = 1351;
},
{
anchors = (
{
name = top;
position = "{963, 1358}";
}
);
hints = (
{
horizontal = 1;
origin = "{4, 4}";
type = Anchor;
},
{
horizontal = 1;
origin = "{4, 4}";
target = "{4, 3}";
type = TTStem;
options = 4;
},
{
horizontal = 1;
origin = "{4, 4}";
target = "{3, 4}";
type = Align;
options = 4;
},
{
horizontal = 1;
origin = "{4, 3}";
target = "{3, 3}";
type = Align;
options = 4;
},
{
horizontal = 1;
origin = "{4, 4}";
target = "{4, 3}";
other1 = "{5, 6}";
type = Interpolate;
options = 4;
},
{
horizontal = 1;
origin = "{5, 6}";
target = "{5, 2}";
type = Align;
options = 4;
},
{
horizontal = 1;
origin = "{1, 5}";
type = Anchor;
},
{
horizontal = 1;
origin = "{1, 5}";
target = "{2, 5}";
type = TTStem;
options = 4;
},
{
horizontal = 1;
origin = "{2, 5}";
target = "{2, 11}";
type = TTStem;
stem = -1;
options = 4;
},
{
horizontal = 1;
origin = "{2, 11}";
target = "{1, 11}";
type = TTStem;
options = 4;
},
{
horizontal = 1;
origin = "{2, 11}";
target = "{1, 11}";
other1 = "{5, 5}";
type = Interpolate;
options = 4;
}
);
layerId = "56E89462-3A12-4850-914F-0D670F297A3A";
paths = (
{
closed = 1;
nodes = (
"850 459 LINE",
"829 514 LINE",
"336 514 LINE",
"317 459 LINE"
);
},
{
closed = 1;
nodes = (
"672 1235 OFFCURVE",
"757 1303 OFFCURVE",
"757 1408 CURVE SMOOTH",
"757 1498 OFFCURVE",
"682 1581 OFFCURVE",
"587 1581 CURVE SMOOTH",
"500 1581 OFFCURVE",
"415 1513 OFFCURVE",
"415 1408 CURVE SMOOTH",
"415 1308 OFFCURVE",
"482 1235 OFFCURVE",
"587 1235 CURVE SMOOTH"
);
},
{
closed = 1;
nodes = (
"523 1290 OFFCURVE",
"475 1339 OFFCURVE",
"475 1408 CURVE SMOOTH",
"475 1462 OFFCURVE",
"514 1523 OFFCURVE",
"587 1523 CURVE SMOOTH",
"651 1523 OFFCURVE",
"697 1484 OFFCURVE",
"697 1408 CURVE SMOOTH",
"697 1345 OFFCURVE",
"657 1290 OFFCURVE",
"587 1290 CURVE SMOOTH"
);
},
{
closed = 1;
nodes = (
"1184 0 LINE",
"1184 44 LINE",
"1007 74 LINE",
"798 44 LINE",
"798 0 LINE"
);
},
{
closed = 1;
nodes = (
"356 0 LINE",
"356 44 LINE",
"178 74 LINE",
"20 44 LINE",
"20 0 LINE"
);
},
{
closed = 1;
nodes = (
"214 22 LINE",
"573 1192 LINE",
"948 22 LINE",
"1057 22 LINE",
"643 1271 LINE",
"550 1271 LINE",
"149 22 LINE"
);
}
);
width = 1204;
},
{
anchors = (
{
name = top;
position = "{1049, 1358}";
}
);
layerId = "D683B167-653D-4D52-BD41-B5BCAD6A6428";
paths = (
{
closed = 1;
nodes = (
"851 435 LINE",
"820 528 LINE",
"312 528 LINE",
"281 435 LINE"
);
},
{
closed = 1;
nodes = (
"725 1222 OFFCURVE",
"836 1320 OFFCURVE",
"836 1445 CURVE SMOOTH",
"836 1571 OFFCURVE",
"729 1666 OFFCURVE",
"587 1666 CURVE SMOOTH",
"443 1666 OFFCURVE",
"335 1571 OFFCURVE",
"335 1445 CURVE SMOOTH",
"335 1319 OFFCURVE",
"445 1222 OFFCURVE",
"587 1222 CURVE SMOOTH"
);
},
{
closed = 1;
nodes = (
"535 1307 OFFCURVE",
"498 1363 OFFCURVE",
"498 1445 CURVE SMOOTH",
"498 1522 OFFCURVE",
"538 1587 OFFCURVE",
"587 1587 CURVE SMOOTH",
"633 1587 OFFCURVE",
"674 1522 OFFCURVE",
"674 1445 CURVE SMOOTH",
"674 1364 OFFCURVE",
"638 1307 OFFCURVE",
"587 1307 CURVE SMOOTH"
);
},
{
closed = 1;
nodes = (
"1213 0 LINE",
"1213 75 LINE",
"967 105 LINE",
"636 75 LINE",
"636 0 LINE"
);
},
{
closed = 1;
nodes = (
"455 0 LINE",
"455 75 LINE",
"189 105 LINE",
"-9 75 LINE",
"-9 0 LINE"
);
},
{
closed = 1;
nodes = (
"217 37 LINE",
"510 1035 LINE",
"819 37 LINE",
"1099 37 LINE",
"701 1271 LINE",
"500 1271 LINE",
"116 37 LINE"
);
}
);
width = 1204;
}
);
leftKerningGroup = A;
leftMetricsKey = "=A";
note = Aring;
rightKerningGroup = A;
rightMetricsKey = "=A";
unicode = 00C5;
},
{
glyphname = AE;
lastChange = "2019-07-10 21:12:55 +0000";
layers = (
{
anchors = (
{
name = bottom;
position = "{1112, 0}";
},
{
name = top;
position = "{1348, 1358}";
},
{
name = us;
position = "{2162, 848}";
}
);
guideLines = (
{
position = "{709, 365}";
showMeasurement = 1;
}
);
layerId = "6CE37295-6E30-426D-87AF-6FEE9061C297";
paths = (
{
closed = 1;
nodes = (
"2059 0 LINE",
"2059 356 LINE",
"1998 356 LINE",
"1882 157 LINE SMOOTH",
"1858 116 OFFCURVE",
"1806 101 OFFCURVE",
"1759 101 CURVE SMOOTH",
"1205 101 LINE",
"1328 36 LINE",
"1328 1257 LINE",
"1686 1257 LINE SMOOTH",
"1759 1257 OFFCURVE",
"1782 1245 OFFCURVE",
"1809 1203 CURVE SMOOTH",
"1941 999 LINE",
"2002 999 LINE",
"2002 1358 LINE",
"662 1358 LINE",
"662 1267 LINE",
"792 1267 OFFCURVE",
"928 1222 OFFCURVE",
"998 1153 CURVE",
"998 51 LINE",
"1127 133 LINE",
"830 81 LINE",
"830 0 LINE"
);
},
{
closed = 1;
nodes = (
"583 0 LINE",
"583 81 LINE",
"265 111 LINE",
"22 81 LINE",
"22 0 LINE"
);
},
{
closed = 1;
nodes = (
"311 40 LINE",
"975 1245 LINE",
"889 1307 LINE",
"176 40 LINE"
);
},
{
closed = 1;
nodes = (
"1647 587 LINE",
"1647 688 LINE",
"604 688 LINE",
"547 587 LINE"
);
},
{
closed = 1;
nodes = (
"1715 416 LINE",
"1715 882 LINE",
"1588 882 LINE",
"1588 416 LINE"
);
}
);
userData = {
assembly = "NPUSHB[ ]\011/* 13 values pushed */
97 71 57 3 9 6 92 78 2 1 2 2 76 
MPPEM[ ]\011/* MeasurePixelPerEm */
PUSHB[ ]\011/* 1 value pushed */
51 
LT[ ]\011/* LessThan */
IF[ ]\011/* If */
NPUSHB[ ]\011/* 36 values pushed */
12 1 9 10 1 2 1 9 2 103 8 1 6 6 7 95 0 7 7 68 77 11 5 3 3 1 1 0 95 4 1 0 0 69 0 78 
ELSE[ ]\011/* Else */
MPPEM[ ]\011/* MeasurePixelPerEm */
PUSHB[ ]\011/* 1 value pushed */
60 
LT[ ]\011/* LessThan */
IF[ ]\011/* If */
NPUSHB[ ]\011/* 33 values pushed */
12 1 9 10 1 2 1 9 2 103 11 5 3 3 1 4 1 0 1 0 99 8 1 6 6 7 95 0 7 7 68 6 78 
ELSE[ ]\011/* Else */
NPUSHB[ ]\011/* 42 values pushed */
0 7 8 1 6 9 7 6 105 12 1 9 10 1 2 1 9 2 103 11 5 3 3 1 0 0 1 89 11 5 3 3 1 1 0 95 4 1 0 1 0 79 
EIF[ ]\011/* EndIf */
EIF[ ]\011/* EndIf */
NPUSHB[ ]\011/* 20 values pushed */
108 105 91 88 85 82 70 67 56 114 23 34 82 21 51 34 99 13 11 31 
CALL[ ]\011/* CallFunction */";
};
width = 2074;
},
{
anchors = (
{
name = bottom;
position = "{1067, 0}";
},
{
name = top;
position = "{1331, 1358}";
},
{
name = us;
position = "{2098, 848}";
}
);
guideLines = (
{
position = "{655, 326}";
showMeasurement = 1;
}
);
layerId = "C40247AC-6B1A-4EFE-B804-1FED3C225331";
paths = (
{
closed = 1;
nodes = (
"1901 0 LINE",
"1901 340 LINE",
"1879 340 LINE",
"1806 121 LINE SMOOTH",
"1794 85 OFFCURVE",
"1740 65 OFFCURVE",
"1683 65 CURVE SMOOTH",
"1057 65 LINE",
"1103 29 LINE",
"1103 1293 LINE",
"1625 1293 LINE SMOOTH",
"1702 1293 OFFCURVE",
"1736 1278 OFFCURVE",
"1748 1235 CURVE SMOOTH",
"1811 1010 LINE",
"1832 1010 LINE",
"1832 1358 LINE",
"790 1358 LINE",
"790 1292 LINE",
"875 1292 OFFCURVE",
"951 1275 OFFCURVE",
"995 1227 CURVE",
"995 19 LINE",
"1041 80 LINE",
"794 44 LINE",
"794 0 LINE"
);
},
{
closed = 1;
nodes = (
"494 0 LINE",
"494 44 LINE",
"223 74 LINE",
"54 44 LINE",
"54 0 LINE"
);
},
{
closed = 1;
nodes = (
"246 22 LINE",
"1002 1297 LINE",
"947 1330 LINE",
"158 22 LINE"
);
},
{
closed = 1;
nodes = (
"1573 609 LINE",
"1573 674 LINE",
"601 674 LINE",
"572 609 LINE"
);
},
{
closed = 1;
nodes = (
"1607 419 LINE",
"1607 876 LINE",
"1543 876 LINE",
"1543 419 LINE"
);
}
);
width = 1942;
},
{
anchors = (
{
name = bottom;
position = "{972, 0}";
},
{
name = top;
position = "{1236, 1358}";
},
{
name = us;
position = "{1962, 848}";
}
);
guideLines = (
{
position = "{610, 333}";
showMeasurement = 1;
}
);
hints = (
{
horizontal = 1;
origin = "{1, 4}";
target = "{1, 3}";
type = TTStem;
stem = 2;
},
{
horizontal = 1;
origin = "{1, 4}";
target = "{0, 25}";
type = Align;
options = 4;
},
{
horizontal = 1;
origin = "{1, 3}";
target = "{0, 24}";
type = Align;
options = 4;
},
{
horizontal = 1;
origin = "{0, 17}";
target = "{0, 18}";
type = TTStem;
stem = 2;
},
{
horizontal = 1;
origin = "{3, 2}";
target = "{3, 3}";
type = TTStem;
options = 4;
},
{
origin = "{0, 22}";
type = Anchor;
},
{
origin = "{0, 22}";
target = "{0, 8}";
type = TTStem;
options = 4;
},
{
origin = "{0, 1}";
type = Anchor;
},
{
origin = "{0, 1}";
target = "{0, 2}";
type = TTStem;
options = 4;
},
{
origin = "{0, 15}";
type = Anchor;
},
{
origin = "{0, 15}";
target = "{0, 14}";
type = TTStem;
options = 4;
},
{
origin = "{4, 1}";
type = Anchor;
},
{
origin = "{4, 1}";
target = "{4, 2}";
type = TTStem;
options = 4;
},
{
horizontal = 1;
origin = "{1, 4}";
type = Anchor;
},
{
horizontal = 1;
origin = "{0, 17}";
type = Anchor;
},
{
horizontal = 1;
origin = "{1, 4}";
target = "{0, 17}";
other1 = "{3, 2}";
type = Interpolate;
},
{
horizontal = 1;
origin = "{1, 3}";
target = "{1, 4}";
other1 = "{2, 3}";
type = Interpolate;
options = 4;
},
{
horizontal = 1;
origin = "{0, 25}";
target = "{0, 6}";
type = TTStem;
stem = 2;
},
{
horizontal = 1;
origin = "{0, 17}";
target = "{0, 9}";
type = TTStem;
stem = 2;
}
);
layerId = "56E89462-3A12-4850-914F-0D670F297A3A";
paths = (
{
closed = 1;
nodes = (
"1714 0 LINE",
"1714 340 LINE",
"1695 340 LINE",
"1604 111 LINE SMOOTH",
"1583 58 OFFCURVE",
"1550 55 OFFCURVE",
"1481 55 CURVE SMOOTH",
"961 55 LINE",
"998 30 LINE",
"998 1303 LINE",
"1435 1303 LINE SMOOTH",
"1507 1303 OFFCURVE",
"1540 1287 OFFCURVE",
"1558 1232 CURVE SMOOTH",
"1627 1017 LINE",
"1646 1017 LINE",
"1646 1358 LINE",
"696 1358 LINE",
"696 1302 LINE",
"767 1302 OFFCURVE",
"844 1287 OFFCURVE",
"900 1248 CURVE",
"900 22 LINE",
"941 80 LINE",
"698 44 LINE",
"698 0 LINE"
);
},
{
closed = 1;
nodes = (
"453 0 LINE",
"453 44 LINE",
"186 74 LINE",
"20 44 LINE",
"20 0 LINE"
);
},
{
closed = 1;
nodes = (
"216 22 LINE",
"908 1302 LINE",
"854 1330 LINE",
"133 22 LINE"
);
},
{
closed = 1;
nodes = (
"1393 615 LINE",
"1393 670 LINE",
"526 670 LINE",
"497 615 LINE"
);
},
{
closed = 1;
nodes = (
"1422 424 LINE",
"1422 872 LINE",
"1364 872 LINE",
"1364 424 LINE"
);
}
);
width = 1753;
},
{
anchors = (
{
name = bottom;
position = "{941, 0}";
},
{
name = top;
position = "{1157, 1358}";
},
{
name = us;
position = "{1879, 848}";
}
);
guideLines = (
{
position = "{589, 333}";
showMeasurement = 1;
}
);
layerId = "D683B167-653D-4D52-BD41-B5BCAD6A6428";
paths = (
{
closed = 1;
nodes = (
"1728 0 LINE",
"1728 353 LINE",
"1679 353 LINE",
"1577 149 LINE SMOOTH",
"1558 111 OFFCURVE",
"1518 93 OFFCURVE",
"1466 93 CURVE SMOOTH",
"1009 93 LINE",
"1091 35 LINE",
"1091 1265 LINE",
"1404 1265 LINE SMOOTH",
"1478 1265 OFFCURVE",
"1495 1245 OFFCURVE",
"1515 1208 CURVE SMOOTH",
"1626 1002 LINE",
"1676 1002 LINE",
"1676 1358 LINE",
"574 1358 LINE",
"574 1273 LINE",
"680 1273 OFFCURVE",
"790 1229 OFFCURVE",
"843 1169 CURVE",
"843 46 LINE",
"947 124 LINE",
"687 75 LINE",
"687 0 LINE"
);
},
{
closed = 1;
nodes = (
"457 0 LINE",
"457 75 LINE",
"184 105 LINE",
"-9 75 LINE",
"-9 0 LINE"
);
},
{
closed = 1;
nodes = (
"218 37 LINE",
"822 1255 LINE",
"760 1311 LINE",
"116 37 LINE"
);
},
{
closed = 1;
nodes = (
"1369 592 LINE",
"1369 685 LINE",
"489 685 LINE",
"442 592 LINE"
);
},
{
closed = 1;
nodes = (
"1425 417 LINE",
"1425 880 LINE",
"1320 880 LINE",
"1320 417 LINE"
);
}
);
width = 1753;
},
{
anchors = (
{
name = bottom;
position = "{1071, 0}";
},
{
name = top;
position = "{1325, 1358}";
},
{
name = us;
position = "{2103, 848}";
}
);
associatedMasterId = "56E89462-3A12-4850-914F-0D670F297A3A";
guideLines = (
{
position = "{610, 333}";
showMeasurement = 1;
}
);
layerId = "488316D9-16A3-4AD2-8DCC-5E2B6EAB065B";
name = "{420, 12, 1, 0}";
paths = (
{
closed = 1;
nodes = (
"1934 0 LINE",
"1934 346 LINE",
"1898 346 LINE",
"1807 133 LINE SMOOTH",
"1790 93 OFFCURVE",
"1739 77 OFFCURVE",
"1684 77 CURVE SMOOTH",
"1098 77 LINE",
"1172 32 LINE",
"1172 1281 LINE",
"1622 1281 LINE SMOOTH",
"1697 1281 OFFCURVE",
"1727 1267 OFFCURVE",
"1745 1223 CURVE SMOOTH",
"1834 1007 LINE",
"1870 1007 LINE",
"1870 1358 LINE",
"731 1358 LINE",
"731 1284 LINE",
"830 1284 OFFCURVE",
"928 1257 OFFCURVE",
"983 1203 CURVE",
"983 31 LINE",
"1059 99 LINE",
"794 58 LINE",
"794 0 LINE"
);
},
{
closed = 1;
nodes = (
"521 0 LINE",
"521 58 LINE",
"233 88 LINE",
"38 58 LINE",
"38 0 LINE"
);
},
{
closed = 1;
nodes = (
"266 29 LINE",
"980 1279 LINE",
"913 1322 LINE",
"161 29 LINE"
);
},
{
closed = 1;
nodes = (
"1576 602 LINE",
"1576 679 LINE",
"592 679 LINE",
"553 602 LINE"
);
},
{
closed = 1;
nodes = (
"1622 419 LINE",
"1622 878 LINE",
"1536 878 LINE",
"1536 419 LINE"
);
}
);
width = 1965;
}
);
leftKerningGroup = AE;
leftMetricsKey = A;
note = AE;
rightMetricsKey = E;
unicode = 00C6;
},
{
glyphname = B;
lastChange = "2019-07-10 21:00:35 +0000";
layers = (
{
anchors = (
{
name = bottom;
position = "{638, 0}";
},
{
name = top;
position = "{638, 1358}";
},
{
name = us;
position = "{1604, 848}";
}
);
layerId = "6CE37295-6E30-426D-87AF-6FEE9061C297";
paths = (
{
closed = 1;
nodes = (
"689 0 LINE SMOOTH",
"1067 0 OFFCURVE",
"1288 117 OFFCURVE",
"1288 362 CURVE SMOOTH",
"1288 538 OFFCURVE",
"1157 672 OFFCURVE",
"937 736 CURVE",
"1115 798 OFFCURVE",
"1204 893 OFFCURVE",
"1204 1022 CURVE SMOOTH",
"1204 1224 OFFCURVE",
"1011 1358 OFFCURVE",
"685 1358 CURVE SMOOTH",
"198 1358 LINE",
"198 0 LINE"
);
},
{
closed = 1;
nodes = (
"355 0 LINE",
"355 111 LINE",
"29 81 LINE",
"29 0 LINE"
);
},
{
closed = 1;
nodes = (
"528 672 LINE",
"595 672 OFFCURVE",
"664 664 OFFCURVE",
"710 648 CURVE SMOOTH",
"827 608 OFFCURVE",
"901 528 OFFCURVE",
"901 370 CURVE SMOOTH",
"901 183 OFFCURVE",
"828 93 OFFCURVE",
"612 93 CURVE SMOOTH",
"528 93 LINE"
);
},
{
closed = 1;
nodes = (
"355 1358 LINE",
"29 1358 LINE",
"29 1277 LINE",
"355 1247 LINE"
);
},
{
closed = 1;
nodes = (
"528 1265 LINE",
"734 1260 OFFCURVE",
"835 1175 OFFCURVE",
"835 1011 CURVE SMOOTH",
"835 846 OFFCURVE",
"747 775 OFFCURVE",
"528 772 CURVE"
);
}
);
userData = {
assembly = "PUSHB[ ]\011/* 6 values pushed */
47 1 4 1 1 76 
MPPEM[ ]\011/* MeasurePixelPerEm */
PUSHB[ ]\011/* 1 value pushed */
34 
LT[ ]\011/* LessThan */
IF[ ]\011/* If */
NPUSHB[ ]\011/* 32 values pushed */
0 4 0 7 0 4 7 105 5 1 1 1 2 95 0 2 2 68 77 6 1 0 0 3 95 8 1 3 3 69 3 78 
ELSE[ ]\011/* Else */
MPPEM[ ]\011/* MeasurePixelPerEm */
PUSHB[ ]\011/* 1 value pushed */
51 
LT[ ]\011/* LessThan */
IF[ ]\011/* If */
NPUSHB[ ]\011/* 38 values pushed */
0 1 5 4 5 1 114 0 4 0 7 0 4 7 105 0 5 5 2 95 0 2 2 68 77 6 1 0 0 3 95 8 1 3 3 69 3 78 
ELSE[ ]\011/* Else */
MPPEM[ ]\011/* MeasurePixelPerEm */
PUSHB[ ]\011/* 1 value pushed */
60 
LT[ ]\011/* LessThan */
IF[ ]\011/* If */
NPUSHB[ ]\011/* 35 values pushed */
0 1 5 4 5 1 114 0 4 0 7 0 4 7 105 6 1 0 8 1 3 0 3 99 0 5 5 2 95 0 2 2 68 5 78 
ELSE[ ]\011/* Else */
MPPEM[ ]\011/* MeasurePixelPerEm */
PUSHB[ ]\011/* 1 value pushed */
93 
LT[ ]\011/* LessThan */
IF[ ]\011/* If */
NPUSHB[ ]\011/* 42 values pushed */
0 1 5 4 5 1 114 0 2 0 5 1 2 5 105 0 4 0 7 0 4 7 105 6 1 0 3 3 0 89 6 1 0 0 3 95 8 1 3 0 3 79 
ELSE[ ]\011/* Else */
NPUSHB[ ]\011/* 47 values pushed */
0 1 5 4 5 1 114 0 0 7 6 6 0 114 0 2 0 5 1 2 5 105 0 4 0 7 0 4 7 105 0 6 3 3 6 89 0 6 6 3 96 8 1 3 6 3 80 
EIF[ ]\011/* EndIf */
EIF[ ]\011/* EndIf */
EIF[ ]\011/* EndIf */
EIF[ ]\011/* EndIf */
NPUSHB[ ]\011/* 20 values pushed */
0 0 55 54 51 49 45 44 40 38 0 34 0 30 98 20 34 9 11 25 
CALL[ ]\011/* CallFunction */";
};
width = 1311;
},
{
anchors = (
{
name = bottom;
position = "{568, 0}";
},
{
name = top;
position = "{568, 1358}";
},
{
name = us;
position = "{1293, 848}";
}
);
guideLines = (
{
angle = 174.5768;
position = "{239, 1289}";
}
);
layerId = "C40247AC-6B1A-4EFE-B804-1FED3C225331";
paths = (
{
closed = 1;
nodes = (
"613 0 LINE SMOOTH",
"1038 0 OFFCURVE",
"1122 163 OFFCURVE",
"1122 345 CURVE SMOOTH",
"1122 530 OFFCURVE",
"1034 670 OFFCURVE",
"789 730 CURVE",
"972 793 OFFCURVE",
"1020 883 OFFCURVE",
"1020 1036 CURVE SMOOTH",
"1020 1253 OFFCURVE",
"855 1358 OFFCURVE",
"613 1358 CURVE SMOOTH",
"282 1358 LINE",
"282 0 LINE"
);
},
{
closed = 1;
nodes = (
"397 0 LINE",
"397 74 LINE",
"81 44 LINE",
"81 0 LINE"
);
},
{
closed = 1;
nodes = (
"391 685 LINE",
"564 685 OFFCURVE",
"653 680 OFFCURVE",
"723 659 CURVE SMOOTH",
"901 606 OFFCURVE",
"1009 511 OFFCURVE",
"1009 372 CURVE SMOOTH",
"1009 169 OFFCURVE",
"900 66 OFFCURVE",
"573 66 CURVE SMOOTH",
"391 66 LINE"
);
},
{
closed = 1;
nodes = (
"335 1358 LINE",
"81 1358 LINE",
"81 1304 LINE",
"335 1280 LINE"
);
},
{
closed = 1;
nodes = (
"391 1292 LINE",
"772 1292 OFFCURVE",
"906 1242 OFFCURVE",
"906 1035 CURVE SMOOTH",
"906 822 OFFCURVE",
"755 750 OFFCURVE",
"391 750 CURVE"
);
}
);
width = 1252;
},
{
anchors = (
{
name = bottom;
position = "{564, 0}";
},
{
name = top;
position = "{564, 1358}";
},
{
name = us;
position = "{1186, 848}";
}
);
guideLines = (
{
angle = 173.991;
position = "{221, 1299}";
},
{
angle = 90;
position = "{333, 1323}";
},
{
angle = 6.009;
position = "{221, 59}";
}
);
hints = (
{
horizontal = 1;
origin = "{1, 3}";
target = "{1, 2}";
type = TTStem;
stem = 2;
},
{
horizontal = 1;
origin = "{1, 3}";
target = "{0, 0}";
type = Align;
options = 4;
},
{
horizontal = 1;
origin = "{3, 1}";
target = "{3, 2}";
type = TTStem;
stem = 2;
},
{
horizontal = 1;
origin = "{3, 1}";
target = "{0, 13}";
type = Align;
options = 4;
},
{
horizontal = 1;
origin = "{2, 10}";
target = "{4, 0}";
other1 = "{4, 6}";
type = Interpolate;
},
{
horizontal = 1;
origin = "{4, 6}";
target = "{2, 0}";
type = TTStem;
options = 4;
},
{
origin = "{0, 14}";
type = Anchor;
},
{
origin = "{0, 14}";
target = "{2, 10}";
type = TTStem;
options = 4;
},
{
origin = "{0, 3}";
type = Anchor;
},
{
origin = "{0, 3}";
target = "{2, 6}";
type = TTStem;
options = 4;
},
{
origin = "{0, 9}";
type = Anchor;
},
{
origin = "{0, 9}";
target = "{4, 3}";
type = TTStem;
options = 4;
},
{
horizontal = 1;
origin = "{4, 6}";
target = "{2, 0}";
other1 = "{0, 6}";
type = Interpolate;
options = 4;
},
{
horizontal = 1;
origin = "{3, 1}";
type = Anchor;
},
{
horizontal = 1;
origin = "{1, 3}";
type = Anchor;
},
{
horizontal = 1;
origin = "{0, 13}";
target = "{4, 0}";
type = TTStem;
stem = 2;
},
{
horizontal = 1;
origin = "{1, 3}";
target = "{0, 14}";
type = Align;
options = 4;
},
{
horizontal = 1;
origin = "{0, 14}";
target = "{2, 10}";
type = TTStem;
stem = 2;
}
);
layerId = "56E89462-3A12-4850-914F-0D670F297A3A";
paths = (
{
closed = 1;
nodes = (
"584 0 LINE SMOOTH",
"973 0 OFFCURVE",
"1047 163 OFFCURVE",
"1047 345 CURVE SMOOTH",
"1047 530 OFFCURVE",
"957 660 OFFCURVE",
"703 730 CURVE",
"901 793 OFFCURVE",
"954 883 OFFCURVE",
"954 1036 CURVE SMOOTH",
"954 1253 OFFCURVE",
"803 1358 OFFCURVE",
"583 1358 CURVE SMOOTH",
"278 1358 LINE",
"278 0 LINE"
);
},
{
closed = 1;
nodes = (
"333 0 LINE",
"333 71 LINE",
"78 44 LINE",
"78 0 LINE"
);
},
{
closed = 1;
nodes = (
"376 689 LINE",
"529 689 OFFCURVE",
"620 681 OFFCURVE",
"686 659 CURVE SMOOTH",
"853 604 OFFCURVE",
"940 511 OFFCURVE",
"940 372 CURVE SMOOTH",
"940 163 OFFCURVE",
"821 57 OFFCURVE",
"575 57 CURVE SMOOTH",
"376 57 LINE"
);
},
{
closed = 1;
nodes = (
"333 1358 LINE",
"78 1358 LINE",
"78 1314 LINE",
"333 1287 LINE"
);
},
{
closed = 1;
nodes = (
"376 1301 LINE",
"712 1301 OFFCURVE",
"852 1242 OFFCURVE",
"852 1035 CURVE SMOOTH",
"852 809 OFFCURVE",
"724 744 OFFCURVE",
"376 744 CURVE"
);
}
);
width = 1112;
},
{
anchors = (
{
name = bottom;
position = "{532, 0}";
},
{
name = top;
position = "{532, 1358}";
},
{
name = us;
position = "{1335, 848}";
}
);
guideLines = (
{
angle = 173.991;
position = "{228, 1299}";
},
{
angle = 90;
position = "{340, 1323}";
},
{
angle = 6.009;
position = "{228, 59}";
}
);
layerId = "D683B167-653D-4D52-BD41-B5BCAD6A6428";
paths = (
{
closed = 1;
nodes = (
"573 0 LINE SMOOTH",
"906 0 OFFCURVE",
"1081 125 OFFCURVE",
"1081 359 CURVE SMOOTH",
"1081 535 OFFCURVE",
"971 670 OFFCURVE",
"773 735 CURVE",
"929 796 OFFCURVE",
"1007 889 OFFCURVE",
"1007 1024 CURVE SMOOTH",
"1007 1229 OFFCURVE",
"840 1358 OFFCURVE",
"569 1358 CURVE SMOOTH",
"181 1358 LINE",
"181 0 LINE"
);
},
{
closed = 1;
nodes = (
"327 0 LINE",
"327 104 LINE",
"49 75 LINE",
"49 0 LINE"
);
},
{
closed = 1;
nodes = (
"444 675 LINE",
"505 675 OFFCURVE",
"562 668 OFFCURVE",
"604 650 CURVE SMOOTH",
"707 605 OFFCURVE",
"764 524 OFFCURVE",
"764 370 CURVE SMOOTH",
"764 118 OFFCURVE",
"642 87 OFFCURVE",
"526 87 CURVE SMOOTH",
"444 87 LINE"
);
},
{
closed = 1;
nodes = (
"327 1358 LINE",
"49 1358 LINE",
"49 1283 LINE",
"327 1254 LINE"
);
},
{
closed = 1;
nodes = (
"444 1271 LINE",
"631 1267 OFFCURVE",
"724 1188 OFFCURVE",
"724 1015 CURVE SMOOTH",
"724 840 OFFCURVE",
"644 770 OFFCURVE",
"444 767 CURVE"
);
}
);
width = 1112;
}
);
leftMetricsKey = H;
note = B;
rightKerningGroup = B;
rightMetricsKey = O;
unicode = 0042;
},
{
glyphname = C;
lastChange = "2019-07-10 21:00:35 +0000";
layers = (
{
anchors = (
{
name = bottom;
position = "{736, 0}";
},
{
name = top;
position = "{801, 1358}";
}
);
guideLines = (
{
angle = 260.7334;
position = "{1221, 1275}";
},
{
angle = 96.1373;
position = "{1175, 93}";
}
);
layerId = "6CE37295-6E30-426D-87AF-6FEE9061C297";
paths = (
{
closed = 1;
nodes = (
"909 -27 OFFCURVE",
"1081 19 OFFCURVE",
"1246 189 CURVE",
"1165 189 LINE",
"1185 0 LINE",
"1308 0 LINE",
"1351 432 LINE",
"1238 432 LINE",
"1196 228 OFFCURVE",
"1069 73 OFFCURVE",
"848 73 CURVE SMOOTH",
"532 73 OFFCURVE",
"423 385 OFFCURVE",
"423 694 CURVE SMOOTH",
"423 1066 OFFCURVE",
"583 1292 OFFCURVE",
"834 1292 CURVE SMOOTH",
"1068 1292 OFFCURVE",
"1188 1098 OFFCURVE",
"1229 948 CURVE",
"1343 948 LINE",
"1350 1370 LINE",
"1237 1370 LINE",
"1207 1188 LINE",
"1293 1188 LINE",
"1151 1322 OFFCURVE",
"974 1385 OFFCURVE",
"778 1385 CURVE SMOOTH",
"332 1385 OFFCURVE",
"23 1061 OFFCURVE",
"23 649 CURVE SMOOTH",
"23 246 OFFCURVE",
"322 -27 OFFCURVE",
"737 -27 CURVE SMOOTH"
);
}
);
userData = {
assembly = "PUSHB[ ]\011/* 6 values pushed */
9 1 3 2 1 76 
MPPEM[ ]\011/* MeasurePixelPerEm */
PUSHB[ ]\011/* 1 value pushed */
37 
LT[ ]\011/* LessThan */
IF[ ]\011/* If */
NPUSHB[ ]\011/* 26 values pushed */
0 1 1 68 77 0 2 2 0 97 0 0 0 74 77 0 3 3 4 97 0 4 4 75 4 78 
ELSE[ ]\011/* Else */
MPPEM[ ]\011/* MeasurePixelPerEm */
PUSHB[ ]\011/* 1 value pushed */
60 
LT[ ]\011/* LessThan */
IF[ ]\011/* If */
NPUSHB[ ]\011/* 29 values pushed */
0 1 0 2 0 1 2 128 0 2 2 0 97 0 0 0 74 77 0 3 3 4 97 0 4 4 75 4 78 
ELSE[ ]\011/* Else */
NPUSHB[ ]\011/* 27 values pushed */
0 1 0 2 0 1 2 128 0 0 0 2 3 0 2 105 0 3 3 4 97 0 4 4 75 4 78 
EIF[ ]\011/* EndIf */
EIF[ ]\011/* EndIf */
PUSHB[ ]\011/* 8 values pushed */
42 36 40 18 34 5 11 27 
CALL[ ]\011/* CallFunction */";
};
width = 1377;
},
{
anchors = (
{
name = bottom;
position = "{803, 0}";
},
{
name = top;
position = "{838, 1358}";
}
);
layerId = "C40247AC-6B1A-4EFE-B804-1FED3C225331";
paths = (
{
closed = 1;
nodes = (
"996 -27 OFFCURVE",
"1173 31 OFFCURVE",
"1332 195 CURVE",
"1257 195 LINE",
"1278 0 LINE",
"1332 0 LINE",
"1379 432 LINE",
"1324 432 LINE",
"1287 197 OFFCURVE",
"1130 33 OFFCURVE",
"851 33 CURVE SMOOTH",
"482 33 OFFCURVE",
"245 309 OFFCURVE",
"245 693 CURVE SMOOTH",
"245 1074 OFFCURVE",
"483 1328 OFFCURVE",
"833 1328 CURVE SMOOTH",
"1058 1328 OFFCURVE",
"1244 1225 OFFCURVE",
"1320 948 CURVE",
"1374 948 LINE",
"1377 1370 LINE",
"1322 1370 LINE",
"1291 1181 LINE",
"1343 1181 LINE",
"1196 1322 OFFCURVE",
"1041 1385 OFFCURVE",
"847 1385 CURVE SMOOTH",
"422 1385 OFFCURVE",
"130 1079 OFFCURVE",
"130 661 CURVE SMOOTH",
"130 245 OFFCURVE",
"419 -27 OFFCURVE",
"814 -27 CURVE SMOOTH"
);
}
);
width = 1453;
},
{
anchors = (
{
name = bottom;
position = "{700, 0}";
},
{
name = top;
position = "{725, 1358}";
}
);
hints = (
{
horizontal = 1;
origin = "{0, 33}";
target = "{0, 10}";
type = TTStem;
options = 4;
},
{
horizontal = 1;
origin = "{0, 27}";
target = "{0, 16}";
type = TTStem;
options = 4;
},
{
origin = "{0, 30}";
target = "{0, 13}";
type = TTStem;
options = 4;
},
{
origin = "{0, 20}";
type = Anchor;
},
{
origin = "{0, 20}";
target = "{0, 19}";
type = TTStem;
options = 4;
},
{
origin = "{0, 6}";
type = Anchor;
},
{
origin = "{0, 6}";
target = "{0, 7}";
type = TTStem;
options = 4;
},
{
origin = "{0, 19}";
target = "{0, 22}";
type = TTStem;
options = 4;
},
{
origin = "{0, 20}";
target = "{0, 21}";
type = TTStem;
options = 4;
},
{
origin = "{0, 4}";
target = "{0, 7}";
type = TTStem;
options = 4;
},
{
origin = "{0, 5}";
target = "{0, 6}";
type = TTStem;
options = 4;
},
{
horizontal = 1;
origin = "{0, 27}";
type = Anchor;
},
{
horizontal = 1;
origin = "{0, 33}";
type = Anchor;
}
);
layerId = "56E89462-3A12-4850-914F-0D670F297A3A";
paths = (
{
closed = 1;
nodes = (
"874 -27 OFFCURVE",
"1039 31 OFFCURVE",
"1186 195 CURVE",
"1117 195 LINE",
"1137 0 LINE",
"1186 0 LINE",
"1230 432 LINE",
"1180 432 LINE",
"1144 197 OFFCURVE",
"998 33 OFFCURVE",
"738 33 CURVE SMOOTH",
"396 33 OFFCURVE",
"175 308 OFFCURVE",
"175 693 CURVE SMOOTH",
"175 1074 OFFCURVE",
"396 1328 OFFCURVE",
"721 1328 CURVE SMOOTH",
"930 1328 OFFCURVE",
"1104 1226 OFFCURVE",
"1175 948 CURVE",
"1225 948 LINE",
"1228 1370 LINE",
"1178 1370 LINE",
"1147 1181 LINE",
"1197 1181 LINE",
"1060 1322 OFFCURVE",
"916 1385 OFFCURVE",
"735 1385 CURVE SMOOTH",
"337 1385 OFFCURVE",
"64 1079 OFFCURVE",
"64 661 CURVE SMOOTH",
"64 245 OFFCURVE",
"335 -27 OFFCURVE",
"703 -27 CURVE SMOOTH"
);
}
);
width = 1301;
},
{
anchors = (
{
name = bottom;
position = "{690, 0}";
},
{
name = top;
position = "{745, 1358}";
}
);
layerId = "D683B167-653D-4D52-BD41-B5BCAD6A6428";
paths = (
{
closed = 1;
nodes = (
"851 -27 OFFCURVE",
"1015 21 OFFCURVE",
"1168 190 CURVE",
"1093 190 LINE",
"1112 0 LINE",
"1217 0 LINE",
"1257 432 LINE",
"1161 432 LINE",
"1120 219 OFFCURVE",
"988 66 OFFCURVE",
"776 66 CURVE SMOOTH",
"475 66 OFFCURVE",
"347 373 OFFCURVE",
"347 694 CURVE SMOOTH",
"347 1065 OFFCURVE",
"515 1298 OFFCURVE",
"763 1298 CURVE SMOOTH",
"978 1298 OFFCURVE",
"1109 1119 OFFCURVE",
"1152 948 CURVE",
"1250 948 LINE",
"1256 1370 LINE",
"1159 1370 LINE",
"1131 1187 LINE",
"1206 1187 LINE",
"1070 1325 OFFCURVE",
"906 1385 OFFCURVE",
"729 1385 CURVE SMOOTH",
"317 1385 OFFCURVE",
"30 1064 OFFCURVE",
"30 651 CURVE SMOOTH",
"30 246 OFFCURVE",
"310 -27 OFFCURVE",
"692 -27 CURVE SMOOTH"
);
}
);
width = 1301;
}
);
leftKerningGroup = C;
leftMetricsKey = O;
note = C;
rightKerningGroup = C;
rightMetricsKey = "=H*0.9";
unicode = 0043;
},
{
glyphname = D;
lastChange = "2019-07-10 21:00:35 +0000";
layers = (
{
anchors = (
{
name = bottom;
position = "{777, 0}";
},
{
name = center;
position = "{777, 679}";
},
{
name = overlay;
position = "{378, 673}";
},
{
name = top;
position = "{706, 1358}";
}
);
layerId = "6CE37295-6E30-426D-87AF-6FEE9061C297";
paths = (
{
closed = 1;
nodes = (
"825 0 LINE SMOOTH",
"1292 0 OFFCURVE",
"1597 287 OFFCURVE",
"1597 701 CURVE SMOOTH",
"1597 1128 OFFCURVE",
"1275 1358 OFFCURVE",
"775 1358 CURVE SMOOTH",
"198 1358 LINE",
"198 0 LINE"
);
},
{
closed = 1;
nodes = (
"528 1265 LINE",
"625 1265 LINE SMOOTH",
"1049 1265 OFFCURVE",
"1197 1080 OFFCURVE",
"1197 694 CURVE SMOOTH",
"1197 332 OFFCURVE",
"1093 92 OFFCURVE",
"652 92 CURVE SMOOTH",
"528 92 LINE"
);
},
{
closed = 1;
nodes = (
"351 1358 LINE",
"29 1358 LINE",
"29 1277 LINE",
"351 1247 LINE"
);
},
{
closed = 1;
nodes = (
"351 0 LINE",
"351 111 LINE",
"29 81 LINE",
"29 0 LINE"
);
}
);
userData = {
assembly = "MPPEM[ ]\011/* MeasurePixelPerEm */
PUSHB[ ]\011/* 1 value pushed */
34 
LT[ ]\011/* LessThan */
IF[ ]\011/* If */
NPUSHB[ ]\011/* 23 values pushed */
5 1 0 0 1 95 0 1 1 68 77 4 1 3 3 2 95 0 2 2 69 2 78 
ELSE[ ]\011/* Else */
MPPEM[ ]\011/* MeasurePixelPerEm */
PUSHB[ ]\011/* 1 value pushed */
35 
LT[ ]\011/* LessThan */
IF[ ]\011/* If */
NPUSHB[ ]\011/* 34 values pushed */
0 0 5 3 5 0 114 0 3 4 4 3 112 0 5 5 1 95 0 1 1 68 77 0 4 4 2 96 0 2 2 69 2 78 
ELSE[ ]\011/* Else */
MPPEM[ ]\011/* MeasurePixelPerEm */
PUSHB[ ]\011/* 1 value pushed */
37 
LT[ ]\011/* LessThan */
IF[ ]\011/* If */
NPUSHB[ ]\011/* 29 values pushed */
0 0 5 3 5 0 114 0 5 5 1 95 0 1 1 68 77 4 1 3 3 2 95 0 2 2 69 2 78 
ELSE[ ]\011/* Else */
MPPEM[ ]\011/* MeasurePixelPerEm */
PUSHB[ ]\011/* 1 value pushed */
51 
LT[ ]\011/* LessThan */
IF[ ]\011/* If */
NPUSHB[ ]\011/* 34 values pushed */
0 0 5 3 5 0 114 0 3 4 4 3 112 0 5 5 1 95 0 1 1 68 77 0 4 4 2 96 0 2 2 69 2 78 
ELSE[ ]\011/* Else */
MPPEM[ ]\011/* MeasurePixelPerEm */
PUSHB[ ]\011/* 1 value pushed */
60 
LT[ ]\011/* LessThan */
IF[ ]\011/* If */
NPUSHB[ ]\011/* 31 values pushed */
0 0 5 3 5 0 114 0 3 4 4 3 112 0 4 0 2 4 2 100 0 5 5 1 95 0 1 1 68 5 78 
ELSE[ ]\011/* Else */
NPUSHB[ ]\011/* 37 values pushed */
0 0 5 3 5 0 114 0 3 4 4 3 112 0 1 0 5 0 1 5 105 0 4 2 2 4 89 0 4 4 2 96 0 2 4 2 80 
EIF[ ]\011/* EndIf */
EIF[ ]\011/* EndIf */
EIF[ ]\011/* EndIf */
EIF[ ]\011/* EndIf */
EIF[ ]\011/* EndIf */
NPUSHB[ ]\011/* 9 values pushed */
52 36 34 84 98 18 6 11 28 
CALL[ ]\011/* CallFunction */";
};
width = 1620;
},
{
anchors = (
{
name = bottom;
position = "{690, 0}";
},
{
name = center;
position = "{790, 679}";
},
{
name = overlay;
position = "{352, 673}";
},
{
name = top;
position = "{690, 1358}";
}
);
layerId = "C40247AC-6B1A-4EFE-B804-1FED3C225331";
paths = (
{
closed = 1;
nodes = (
"730 0 LINE SMOOTH",
"1164 0 OFFCURVE",
"1429 284 OFFCURVE",
"1429 729 CURVE SMOOTH",
"1429 1112 OFFCURVE",
"1145 1358 OFFCURVE",
"682 1358 CURVE SMOOTH",
"282 1358 LINE",
"282 0 LINE"
);
},
{
closed = 1;
nodes = (
"391 1292 LINE",
"608 1292 LINE SMOOTH",
"1055 1292 OFFCURVE",
"1314 1087 OFFCURVE",
"1314 714 CURVE SMOOTH",
"1314 295 OFFCURVE",
"1104 67 OFFCURVE",
"628 67 CURVE SMOOTH",
"391 67 LINE"
);
},
{
closed = 1;
nodes = (
"350 1358 LINE",
"81 1358 LINE",
"81 1304 LINE",
"350 1278 LINE"
);
},
{
closed = 1;
nodes = (
"340 0 LINE",
"340 69 LINE",
"81 44 LINE",
"81 0 LINE"
);
}
);
width = 1559;
},
{
anchors = (
{
name = bottom;
position = "{726, 0}";
},
{
name = center;
position = "{726, 679}";
},
{
name = overlay;
position = "{347, 673}";
},
{
name = top;
position = "{658, 1358}";
}
);
hints = (
{
horizontal = 1;
origin = "{3, 3}";
type = Anchor;
},
{
horizontal = 1;
origin = "{3, 3}";
target = "{0, 8}";
type = Align;
options = 4;
},
{
horizontal = 1;
origin = "{3, 3}";
target = "{3, 2}";
type = TTStem;
stem = 2;
},
{
horizontal = 1;
origin = "{0, 8}";
target = "{1, 8}";
type = TTStem;
stem = 2;
},
{
horizontal = 1;
origin = "{2, 1}";
type = Anchor;
},
{
horizontal = 1;
origin = "{2, 1}";
target = "{2, 2}";
type = TTStem;
stem = 2;
},
{
horizontal = 1;
origin = "{2, 1}";
target = "{0, 7}";
type = Align;
options = 4;
},
{
horizontal = 1;
origin = "{0, 7}";
target = "{1, 0}";
type = TTStem;
stem = 2;
}
);
layerId = "56E89462-3A12-4850-914F-0D670F297A3A";
paths = (
{
closed = 1;
nodes = (
"625 0 LINE SMOOTH",
"1111 0 OFFCURVE",
"1344 316 OFFCURVE",
"1344 708 CURVE SMOOTH",
"1344 1105 OFFCURVE",
"1091 1358 OFFCURVE",
"599 1358 CURVE SMOOTH",
"278 1358 LINE",
"278 0 LINE"
);
},
{
closed = 1;
nodes = (
"376 1301 LINE",
"582 1301 LINE SMOOTH",
"994 1301 OFFCURVE",
"1235 1110 OFFCURVE",
"1235 677 CURVE SMOOTH",
"1235 271 OFFCURVE",
"1017 62 OFFCURVE",
"558 62 CURVE SMOOTH",
"376 62 LINE"
);
},
{
closed = 1;
nodes = (
"327 1358 LINE",
"78 1358 LINE",
"78 1314 LINE",
"327 1290 LINE"
);
},
{
closed = 1;
nodes = (
"326 0 LINE",
"326 68 LINE",
"78 44 LINE",
"78 0 LINE"
);
}
);
width = 1409;
},
{
anchors = (
{
name = bottom;
position = "{669, 566}";
},
{
name = center;
position = "{390, 674}";
},
{
name = overlay;
position = "{350, 682}";
},
{
name = top;
position = "{607, 1358}";
}
);
layerId = "D683B167-653D-4D52-BD41-B5BCAD6A6428";
paths = (
{
closed = 1;
nodes = (
"692 0 LINE SMOOTH",
"1112 0 OFFCURVE",
"1378 292 OFFCURVE",
"1378 702 CURVE SMOOTH",
"1378 1124 OFFCURVE",
"1099 1358 OFFCURVE",
"651 1358 CURVE SMOOTH",
"195 1358 LINE",
"195 0 LINE"
);
},
{
closed = 1;
nodes = (
"458 1271 LINE",
"534 1271 LINE SMOOTH",
"785 1271 OFFCURVE",
"1061 1208 OFFCURVE",
"1061 691 CURVE SMOOTH",
"1061 151 OFFCURVE",
"793 87 OFFCURVE",
"550 87 CURVE SMOOTH",
"458 87 LINE"
);
},
{
closed = 1;
nodes = (
"328 1358 LINE",
"49 1358 LINE",
"49 1283 LINE",
"328 1254 LINE"
);
},
{
closed = 1;
nodes = (
"328 0 LINE",
"328 104 LINE",
"49 75 LINE",
"49 0 LINE"
);
}
);
width = 1409;
}
);
leftMetricsKey = H;
note = D;
rightKerningGroup = D;
rightMetricsKey = O;
unicode = 0044;
},
{
glyphname = Eth;
lastChange = "2019-07-10 21:00:35 +0000";
layers = (
{
anchors = (
{
name = bottom;
position = "{777, 0}";
},
{
name = top;
position = "{706, 1358}";
}
);
layerId = "6CE37295-6E30-426D-87AF-6FEE9061C297";
paths = (
{
closed = 1;
nodes = (
"825 0 LINE SMOOTH",
"1292 0 OFFCURVE",
"1597 287 OFFCURVE",
"1597 701 CURVE SMOOTH",
"1597 1128 OFFCURVE",
"1275 1358 OFFCURVE",
"775 1358 CURVE",
"198 1358 LINE",
"198 0 LINE"
);
},
{
closed = 1;
nodes = (
"528 1265 LINE",
"625 1265 LINE SMOOTH",
"1049 1265 OFFCURVE",
"1197 1080 OFFCURVE",
"1197 694 CURVE SMOOTH",
"1197 332 OFFCURVE",
"1093 92 OFFCURVE",
"652 92 CURVE SMOOTH",
"528 92 LINE"
);
},
{
closed = 1;
nodes = (
"351 1358 LINE",
"29 1358 LINE",
"29 1277 LINE",
"351 1247 LINE"
);
},
{
closed = 1;
nodes = (
"351 0 LINE",
"351 111 LINE",
"29 81 LINE",
"29 0 LINE"
);
},
{
closed = 1;
nodes = (
"745 619 LINE",
"745 723 LINE",
"76 723 LINE",
"76 619 LINE"
);
}
);
userData = {
assembly = "MPPEM[ ]\011/* MeasurePixelPerEm */
PUSHB[ ]\011/* 1 value pushed */
34 
LT[ ]\011/* LessThan */
IF[ ]\011/* If */
NPUSHB[ ]\011/* 33 values pushed */
7 1 3 8 1 2 1 3 2 103 6 1 4 4 5 95 0 5 5 68 77 9 1 1 1 0 95 0 0 0 69 0 78 
ELSE[ ]\011/* Else */
MPPEM[ ]\011/* MeasurePixelPerEm */
PUSHB[ ]\011/* 1 value pushed */
56 
LT[ ]\011/* LessThan */
IF[ ]\011/* If */
NPUSHB[ ]\011/* 45 values pushed */
0 4 6 3 6 4 114 0 1 2 9 9 1 114 7 1 3 8 1 2 1 3 2 103 0 6 6 5 95 0 5 5 68 77 0 9 9 0 96 0 0 0 69 0 78 
ELSE[ ]\011/* Else */
MPPEM[ ]\011/* MeasurePixelPerEm */
PUSHB[ ]\011/* 1 value pushed */
60 
LT[ ]\011/* LessThan */
IF[ ]\011/* If */
NPUSHB[ ]\011/* 42 values pushed */
0 4 6 3 6 4 114 0 1 2 9 9 1 114 7 1 3 8 1 2 1 3 2 103 0 9 0 0 9 0 100 0 6 6 5 95 0 5 5 68 6 78 
ELSE[ ]\011/* Else */
NPUSHB[ ]\011/* 48 values pushed */
0 4 6 3 6 4 114 0 1 2 9 9 1 114 0 5 0 6 4 5 6 105 7 1 3 8 1 2 1 3 2 103 0 9 0 0 9 89 0 9 9 0 96 0 0 9 0 80 
EIF[ ]\011/* EndIf */
EIF[ ]\011/* EndIf */
EIF[ ]\011/* EndIf */
NPUSHB[ ]\011/* 14 values pushed */
62 60 50 35 54 114 19 50 35 34 99 10 11 31 
CALL[ ]\011/* CallFunction */";
};
width = 1620;
},
{
anchors = (
{
name = bottom;
position = "{690, 0}";
},
{
name = top;
position = "{690, 1358}";
}
);
layerId = "C40247AC-6B1A-4EFE-B804-1FED3C225331";
paths = (
{
closed = 1;
nodes = (
"730 0 LINE SMOOTH",
"1164 0 OFFCURVE",
"1429 284 OFFCURVE",
"1429 729 CURVE SMOOTH",
"1429 1112 OFFCURVE",
"1145 1358 OFFCURVE",
"682 1358 CURVE",
"282 1358 LINE",
"282 0 LINE"
);
},
{
closed = 1;
nodes = (
"391 1292 LINE",
"608 1292 LINE SMOOTH",
"1055 1292 OFFCURVE",
"1314 1087 OFFCURVE",
"1314 714 CURVE SMOOTH",
"1314 295 OFFCURVE",
"1104 67 OFFCURVE",
"628 67 CURVE SMOOTH",
"391 67 LINE"
);
},
{
closed = 1;
nodes = (
"350 1358 LINE",
"81 1358 LINE",
"81 1304 LINE",
"350 1278 LINE"
);
},
{
closed = 1;
nodes = (
"340 0 LINE",
"340 69 LINE",
"81 44 LINE",
"81 0 LINE"
);
},
{
closed = 1;
nodes = (
"623 642 LINE",
"623 711 LINE",
"82 711 LINE",
"82 642 LINE"
);
}
);
width = 1559;
},
{
anchors = (
{
name = bottom;
position = "{726, 0}";
},
{
name = top;
position = "{658, 1358}";
}
);
hints = (
{
horizontal = 1;
origin = "{3, 3}";
type = Anchor;
},
{
horizontal = 1;
origin = "{3, 3}";
target = "{3, 2}";
type = TTStem;
stem = 2;
},
{
horizontal = 1;
origin = "{3, 3}";
target = "{0, 8}";
type = Align;
options = 4;
},
{
horizontal = 1;
origin = "{0, 8}";
target = "{1, 8}";
type = TTStem;
stem = 2;
},
{
horizontal = 1;
origin = "{2, 1}";
type = Anchor;
},
{
horizontal = 1;
origin = "{2, 1}";
target = "{2, 2}";
type = TTStem;
stem = 2;
},
{
horizontal = 1;
origin = "{2, 1}";
target = "{0, 7}";
type = Align;
options = 4;
},
{
horizontal = 1;
origin = "{0, 7}";
target = "{1, 0}";
type = TTStem;
stem = 2;
},
{
horizontal = 1;
origin = "{3, 3}";
target = "{2, 1}";
other1 = "{4, 0}";
type = Interpolate;
options = 4;
},
{
horizontal = 1;
origin = "{4, 0}";
target = "{4, 1}";
type = TTStem;
options = 4;
}
);
layerId = "56E89462-3A12-4850-914F-0D670F297A3A";
paths = (
{
closed = 1;
nodes = (
"625 0 LINE SMOOTH",
"1111 0 OFFCURVE",
"1344 316 OFFCURVE",
"1344 708 CURVE SMOOTH",
"1344 1105 OFFCURVE",
"1091 1358 OFFCURVE",
"599 1358 CURVE",
"278 1358 LINE",
"278 0 LINE"
);
},
{
closed = 1;
nodes = (
"376 1301 LINE",
"582 1301 LINE SMOOTH",
"994 1301 OFFCURVE",
"1235 1110 OFFCURVE",
"1235 677 CURVE SMOOTH",
"1235 271 OFFCURVE",
"1017 62 OFFCURVE",
"558 62 CURVE SMOOTH",
"376 62 LINE"
);
},
{
closed = 1;
nodes = (
"327 1358 LINE",
"78 1358 LINE",
"78 1314 LINE",
"327 1290 LINE"
);
},
{
closed = 1;
nodes = (
"326 0 LINE",
"326 68 LINE",
"78 44 LINE",
"78 0 LINE"
);
},
{
closed = 1;
nodes = (
"618 642 LINE",
"618 711 LINE",
"80 711 LINE",
"80 642 LINE"
);
}
);
width = 1409;
},
{
anchors = (
{
name = bottom;
position = "{726, 0}";
},
{
name = top;
position = "{658, 1358}";
}
);
layerId = "D683B167-653D-4D52-BD41-B5BCAD6A6428";
paths = (
{
closed = 1;
nodes = (
"692 0 LINE SMOOTH",
"1112 0 OFFCURVE",
"1378 292 OFFCURVE",
"1378 702 CURVE SMOOTH",
"1378 1124 OFFCURVE",
"1099 1358 OFFCURVE",
"651 1358 CURVE",
"195 1358 LINE",
"195 0 LINE"
);
},
{
closed = 1;
nodes = (
"458 1271 LINE",
"534 1271 LINE SMOOTH",
"785 1271 OFFCURVE",
"1061 1208 OFFCURVE",
"1061 691 CURVE SMOOTH",
"1061 151 OFFCURVE",
"793 87 OFFCURVE",
"550 87 CURVE SMOOTH",
"458 87 LINE"
);
},
{
closed = 1;
nodes = (
"328 1358 LINE",
"49 1358 LINE",
"49 1283 LINE",
"328 1254 LINE"
);
},
{
closed = 1;
nodes = (
"328 0 LINE",
"328 104 LINE",
"49 75 LINE",
"49 0 LINE"
);
},
{
closed = 1;
nodes = (
"626 642 LINE",
"626 740 LINE",
"78 740 LINE",
"78 642 LINE"
);
}
);
width = 1409;
}
);
leftMetricsKey = D;
note = Eth;
rightKerningGroup = D;
rightMetricsKey = "=D";
unicode = 00D0;
},
{
glyphname = E;
lastChange = "2019-07-10 21:00:35 +0000";
layers = (
{
anchors = (
{
name = bottom;
position = "{660, 0}";
},
{
name = ogonek;
position = "{1188, 10}";
},
{
name = top;
position = "{731, 1358}";
}
);
layerId = "6CE37295-6E30-426D-87AF-6FEE9061C297";
paths = (
{
closed = 1;
nodes = (
"528 20 LINE",
"528 1338 LINE",
"198 1338 LINE",
"198 20 LINE"
);
},
{
closed = 1;
nodes = (
"1312 0 LINE",
"1312 356 LINE",
"1231 356 LINE",
"1111 157 LINE SMOOTH",
"1087 117 OFFCURVE",
"1035 101 OFFCURVE",
"988 101 CURVE SMOOTH",
"198 101 LINE",
"198 0 LINE"
);
},
{
closed = 1;
nodes = (
"1185 999 LINE",
"1185 1358 LINE",
"198 1358 LINE",
"198 1257 LINE",
"847 1257 LINE SMOOTH",
"920 1257 OFFCURVE",
"942 1245 OFFCURVE",
"970 1203 CURVE SMOOTH",
"1104 999 LINE"
);
},
{
closed = 1;
nodes = (
"856 630 LINE",
"856 731 LINE",
"308 731 LINE",
"308 630 LINE"
);
},
{
closed = 1;
nodes = (
"923 462 LINE",
"923 918 LINE",
"798 918 LINE",
"798 462 LINE"
);
},
{
closed = 1;
nodes = (
"351 1358 LINE",
"29 1358 LINE",
"29 1277 LINE",
"351 1247 LINE"
);
},
{
closed = 1;
nodes = (
"351 0 LINE",
"351 111 LINE",
"29 81 LINE",
"29 0 LINE"
);
}
);
userData = {
assembly = "MPPEM[ ]\011/* MeasurePixelPerEm */
PUSHB[ ]\011/* 1 value pushed */
79 
LT[ ]\011/* LessThan */
IF[ ]\011/* If */
NPUSHB[ ]\011/* 12 values pushed */
30 13 2 3 0 55 36 2 5 4 2 76 
ELSE[ ]\011/* Else */
NPUSHB[ ]\011/* 12 values pushed */
30 13 2 3 2 55 36 2 5 4 2 76 
EIF[ ]\011/* EndIf */
MPPEM[ ]\011/* MeasurePixelPerEm */
PUSHB[ ]\011/* 1 value pushed */
51 
LT[ ]\011/* LessThan */
IF[ ]\011/* If */
NPUSHB[ ]\011/* 31 values pushed */
0 3 0 4 5 3 4 105 2 1 0 0 1 95 0 1 1 68 77 7 1 5 5 6 95 0 6 6 69 6 78 
ELSE[ ]\011/* Else */
MPPEM[ ]\011/* MeasurePixelPerEm */
PUSHB[ ]\011/* 1 value pushed */
60 
LT[ ]\011/* LessThan */
IF[ ]\011/* If */
NPUSHB[ ]\011/* 28 values pushed */
0 3 0 4 5 3 4 105 7 1 5 0 6 5 6 99 2 1 0 0 1 95 0 1 1 68 0 78 
ELSE[ ]\011/* Else */
MPPEM[ ]\011/* MeasurePixelPerEm */
PUSHB[ ]\011/* 1 value pushed */
79 
LT[ ]\011/* LessThan */
IF[ ]\011/* If */
NPUSHB[ ]\011/* 35 values pushed */
0 1 2 1 0 3 1 0 105 0 3 0 4 5 3 4 105 7 1 5 6 6 5 89 7 1 5 5 6 95 0 6 5 6 79 
ELSE[ ]\011/* Else */
MPPEM[ ]\011/* MeasurePixelPerEm */
PUSHB[ ]\011/* 1 value pushed */
147 
LT[ ]\011/* LessThan */
IF[ ]\011/* If */
NPUSHB[ ]\011/* 41 values pushed */
0 0 1 2 2 0 114 0 1 0 2 3 1 2 103 0 3 0 4 5 3 4 105 7 1 5 6 6 5 89 7 1 5 5 6 95 0 6 5 6 79 
ELSE[ ]\011/* Else */
NPUSHB[ ]\011/* 46 values pushed */
0 0 1 2 2 0 114 0 7 5 6 5 7 114 0 1 0 2 3 1 2 103 0 3 0 4 5 3 4 105 0 5 7 6 5 87 0 5 5 6 95 0 6 5 6 79 
EIF[ ]\011/* EndIf */
EIF[ ]\011/* EndIf */
EIF[ ]\011/* EndIf */
EIF[ ]\011/* EndIf */
NPUSHB[ ]\011/* 11 values pushed */
34 88 53 61 51 56 98 18 8 11 30 
CALL[ ]\011/* CallFunction */";
};
width = 1327;
},
{
anchors = (
{
name = bottom;
position = "{759, 0}";
},
{
name = ogonek;
position = "{1109, 10}";
},
{
name = top;
position = "{713, 1358}";
}
);
guideLines = (
{
angle = 174.6275;
position = "{241, 1289}";
},
{
angle = 5.3725;
position = "{241, 59}";
}
);
layerId = "C40247AC-6B1A-4EFE-B804-1FED3C225331";
paths = (
{
closed = 1;
nodes = (
"385 20 LINE",
"385 1338 LINE",
"280 1338 LINE",
"280 20 LINE"
);
},
{
closed = 1;
nodes = (
"1293 0 LINE",
"1293 340 LINE",
"1272 340 LINE",
"1201 121 LINE SMOOTH",
"1189 85 OFFCURVE",
"1136 65 OFFCURVE",
"1078 65 CURVE SMOOTH",
"282 65 LINE",
"282 0 LINE"
);
},
{
closed = 1;
nodes = (
"1157 1010 LINE",
"1157 1358 LINE",
"282 1358 LINE",
"282 1293 LINE",
"951 1293 LINE SMOOTH",
"1029 1293 OFFCURVE",
"1062 1278 OFFCURVE",
"1074 1235 CURVE SMOOTH",
"1136 1010 LINE"
);
},
{
closed = 1;
nodes = (
"904 660 LINE",
"904 725 LINE",
"344 725 LINE",
"344 660 LINE"
);
},
{
closed = 1;
nodes = (
"936 437 LINE",
"936 962 LINE",
"873 962 LINE",
"873 437 LINE"
);
},
{
closed = 1;
nodes = (
"350 1358 LINE",
"81 1358 LINE",
"81 1314 LINE",
"350 1288 LINE"
);
},
{
closed = 1;
nodes = (
"340 0 LINE",
"340 69 LINE",
"81 44 LINE",
"81 0 LINE"
);
}
);
width = 1334;
},
{
anchors = (
{
name = bottom;
position = "{750, 0}";
},
{
name = ogonek;
position = "{1059, 10}";
},
{
name = top;
position = "{663, 1358}";
}
);
guideLines = (
{
angle = 5.5632;
position = "{232, 59}";
},
{
angle = 174.4547;
position = "{233, 1299}";
}
);
hints = (
{
horizontal = 1;
origin = "{6, 3}";
target = "{6, 2}";
type = TTStem;
stem = 2;
},
{
horizontal = 1;
origin = "{6, 2}";
target = "{6, 3}";
other1 = "{0, 3}";
type = Interpolate;
options = 4;
},
{
horizontal = 1;
origin = "{5, 1}";
target = "{5, 2}";
type = TTStem;
stem = 2;
},
{
horizontal = 1;
origin = "{5, 1}";
target = "{2, 2}";
type = Align;
options = 4;
},
{
horizontal = 1;
origin = "{5, 2}";
target = "{5, 1}";
other1 = "{0, 2}";
type = Interpolate;
options = 4;
},
{
horizontal = 1;
origin = "{3, 2}";
target = "{3, 3}";
type = TTStem;
},
{
origin = "{0, 3}";
type = Anchor;
},
{
origin = "{0, 3}";
target = "{0, 0}";
type = TTStem;
},
{
origin = "{rsb}";
target = "{1, 1}";
type = TTStem;
stem = -1;
},
{
origin = "{1, 1}";
target = "{1, 2}";
type = TTStem;
},
{
origin = "{1, 2}";
target = "{4, 0}";
type = TTStem;
stem = -1;
},
{
origin = "{4, 0}";
target = "{4, 3}";
type = TTStem;
},
{
origin = "{2, 0}";
target = "{1, 1}";
type = TTStem;
stem = -1;
},
{
origin = "{2, 8}";
target = "{2, 0}";
type = TTStem;
},
{
horizontal = 1;
origin = "{6, 3}";
target = "{1, 8}";
type = Align;
options = 4;
},
{
horizontal = 1;
origin = "{5, 1}";
type = Anchor;
},
{
horizontal = 1;
origin = "{6, 3}";
target = "{5, 1}";
other1 = "{3, 2}";
type = Interpolate;
},
{
horizontal = 1;
origin = "{2, 2}";
target = "{2, 3}";
type = TTStem;
stem = 2;
},
{
horizontal = 1;
origin = "{1, 8}";
target = "{1, 7}";
type = TTStem;
stem = 2;
},
{
horizontal = 1;
origin = "{6, 3}";
type = Anchor;
}
);
layerId = "56E89462-3A12-4850-914F-0D670F297A3A";
paths = (
{
closed = 1;
nodes = (
"376 30 LINE",
"376 1328 LINE",
"278 1328 LINE",
"278 30 LINE"
);
},
{
closed = 1;
nodes = (
"1222 0 LINE",
"1222 340 LINE",
"1187 340 LINE",
"1117 111 LINE SMOOTH",
"1100 56 OFFCURVE",
"1063 55 OFFCURVE",
"994 55 CURVE SMOOTH",
"278 55 LINE",
"278 0 LINE"
);
},
{
closed = 1;
nodes = (
"1095 1017 LINE",
"1095 1358 LINE",
"278 1358 LINE",
"278 1303 LINE",
"880 1303 LINE SMOOTH",
"952 1303 OFFCURVE",
"988 1288 OFFCURVE",
"1003 1232 CURVE SMOOTH",
"1060 1017 LINE"
);
},
{
closed = 1;
nodes = (
"866 665 LINE",
"866 721 LINE",
"343 721 LINE",
"343 665 LINE"
);
},
{
closed = 1;
nodes = (
"891 442 LINE",
"891 958 LINE",
"828 958 LINE",
"828 442 LINE"
);
},
{
closed = 1;
nodes = (
"327 1358 LINE",
"78 1358 LINE",
"78 1314 LINE",
"327 1290 LINE"
);
},
{
closed = 1;
nodes = (
"326 0 LINE",
"326 68 LINE",
"78 44 LINE",
"78 0 LINE"
);
}
);
width = 1261;
},
{
anchors = (
{
name = bottom;
position = "{629, 0}";
},
{
name = ogonek;
position = "{1109, 10}";
},
{
name = top;
position = "{674, 1358}";
}
);
guideLines = (
{
angle = 5.5632;
position = "{234, 59}";
},
{
angle = 174.4547;
position = "{235, 1299}";
}
);
layerId = "D683B167-653D-4D52-BD41-B5BCAD6A6428";
paths = (
{
closed = 1;
nodes = (
"492 20 LINE",
"492 1338 LINE",
"209 1338 LINE",
"209 20 LINE"
);
},
{
closed = 1;
nodes = (
"1236 0 LINE",
"1236 353 LINE",
"1165 353 LINE",
"1055 149 LINE SMOOTH",
"1033 108 OFFCURVE",
"986 93 OFFCURVE",
"935 93 CURVE SMOOTH",
"209 93 LINE",
"209 0 LINE"
);
},
{
closed = 1;
nodes = (
"1112 1002 LINE",
"1112 1358 LINE",
"209 1358 LINE",
"209 1265 LINE",
"803 1265 LINE SMOOTH",
"874 1265 OFFCURVE",
"898 1252 OFFCURVE",
"923 1208 CURVE SMOOTH",
"1041 1002 LINE"
);
},
{
closed = 1;
nodes = (
"808 636 LINE",
"808 729 LINE",
"319 729 LINE",
"319 636 LINE"
);
},
{
closed = 1;
nodes = (
"866 459 LINE",
"866 925 LINE",
"754 925 LINE",
"754 459 LINE"
);
},
{
closed = 1;
nodes = (
"351 1358 LINE",
"49 1358 LINE",
"49 1283 LINE",
"351 1254 LINE"
);
},
{
closed = 1;
nodes = (
"351 0 LINE",
"351 104 LINE",
"49 75 LINE",
"49 0 LINE"
);
}
);
width = 1261;
}
);
leftMetricsKey = H;
note = E;
rightKerningGroup = E;
rightMetricsKey = "=H/2";
unicode = 0045;
},
{
glyphname = Eogonek;
lastChange = "2019-07-10 21:00:35 +0000";
layers = (
{
anchors = (
{
name = bottom;
position = "{660, 0}";
},
{
name = top;
position = "{731, 1358}";
}
);
layerId = "6CE37295-6E30-426D-87AF-6FEE9061C297";
paths = (
{
closed = 1;
nodes = (
"528 20 LINE",
"528 1338 LINE",
"198 1338 LINE",
"198 20 LINE"
);
},
{
closed = 1;
nodes = (
"1312 0 LINE",
"1312 356 LINE",
"1231 356 LINE",
"1111 157 LINE SMOOTH",
"1087 117 OFFCURVE",
"1035 101 OFFCURVE",
"988 101 CURVE SMOOTH",
"198 101 LINE",
"198 0 LINE"
);
},
{
closed = 1;
nodes = (
"1185 999 LINE",
"1185 1358 LINE",
"198 1358 LINE",
"198 1257 LINE",
"847 1257 LINE SMOOTH",
"920 1257 OFFCURVE",
"942 1245 OFFCURVE",
"970 1203 CURVE SMOOTH",
"1104 999 LINE"
);
},
{
closed = 1;
nodes = (
"856 630 LINE",
"856 731 LINE",
"308 731 LINE",
"308 630 LINE"
);
},
{
closed = 1;
nodes = (
"923 462 LINE",
"923 918 LINE",
"798 918 LINE",
"798 462 LINE"
);
},
{
closed = 1;
nodes = (
"351 1358 LINE",
"29 1358 LINE",
"29 1277 LINE",
"351 1247 LINE"
);
},
{
closed = 1;
nodes = (
"351 0 LINE",
"351 111 LINE",
"29 81 LINE",
"29 0 LINE"
);
},
{
closed = 1;
nodes = (
"1168 -487 OFFCURVE",
"1250 -444 OFFCURVE",
"1298 -374 CURVE",
"1270 -321 LINE",
"1229 -356 OFFCURVE",
"1206 -367 OFFCURVE",
"1159 -367 CURVE SMOOTH",
"1088 -367 OFFCURVE",
"1054 -329 OFFCURVE",
"1054 -246 CURVE SMOOTH",
"1054 -163 OFFCURVE",
"1104 -29 OFFCURVE",
"1312 0 CURVE",
"1079 41 LINE",
"919 -87 OFFCURVE",
"842 -199 OFFCURVE",
"842 -303 CURVE SMOOTH",
"842 -425 OFFCURVE",
"919 -487 OFFCURVE",
"1065 -487 CURVE SMOOTH"
);
}
);
userData = {
assembly = "MPPEM[ ]\011/* MeasurePixelPerEm */
PUSHB[ ]\011/* 1 value pushed */
79 
LT[ ]\011/* LessThan */
IF[ ]\011/* If */
NPUSHB[ ]\011/* 20 values pushed */
31 14 2 3 0 56 37 2 5 4 69 1 7 6 71 1 8 7 4 76 
ELSE[ ]\011/* Else */
NPUSHB[ ]\011/* 20 values pushed */
31 14 2 3 2 56 37 2 5 4 69 1 7 6 71 1 8 7 4 76 
EIF[ ]\011/* EndIf */
MPPEM[ ]\011/* MeasurePixelPerEm */
PUSHB[ ]\011/* 1 value pushed */
60 
LT[ ]\011/* LessThan */
IF[ ]\011/* If */
NPUSHB[ ]\011/* 39 values pushed */
0 3 0 4 5 3 4 105 0 7 0 8 7 8 101 2 1 0 0 1 95 0 1 1 68 77 10 1 5 5 6 97 9 1 6 6 69 6 78 
ELSE[ ]\011/* Else */
MPPEM[ ]\011/* MeasurePixelPerEm */
PUSHB[ ]\011/* 1 value pushed */
79 
LT[ ]\011/* LessThan */
IF[ ]\011/* If */
NPUSHB[ ]\011/* 43 values pushed */
0 1 2 1 0 3 1 0 105 0 3 0 4 5 3 4 105 10 1 5 9 1 6 7 5 6 105 0 7 8 8 7 89 0 7 7 8 97 0 8 7 8 81 
ELSE[ ]\011/* Else */
MPPEM[ ]\011/* MeasurePixelPerEm */
PUSHB[ ]\011/* 1 value pushed */
147 
LT[ ]\011/* LessThan */
IF[ ]\011/* If */
NPUSHB[ ]\011/* 49 values pushed */
0 0 1 2 2 0 114 0 1 0 2 3 1 2 103 0 3 0 4 5 3 4 105 10 1 5 9 1 6 7 5 6 105 0 7 8 8 7 89 0 7 7 8 97 0 8 7 8 81 
ELSE[ ]\011/* Else */
NPUSHB[ ]\011/* 61 values pushed */
0 0 1 2 2 0 114 0 10 5 9 5 10 114 0 6 9 7 9 6 114 0 1 0 2 3 1 2 103 0 3 0 4 5 3 4 105 0 5 0 9 6 5 9 103 0 7 8 8 7 89 0 7 7 8 97 0 8 7 8 81 
EIF[ ]\011/* EndIf */
EIF[ ]\011/* EndIf */
EIF[ ]\011/* EndIf */
NPUSHB[ ]\011/* 16 values pushed */
87 85 83 77 36 35 40 53 61 51 56 114 18 11 11 31 
CALL[ ]\011/* CallFunction */";
};
width = 1327;
},
{
anchors = (
{
name = bottom;
position = "{759, 0}";
},
{
name = top;
position = "{713, 1358}";
}
);
layerId = "C40247AC-6B1A-4EFE-B804-1FED3C225331";
paths = (
{
closed = 1;
nodes = (
"391 20 LINE",
"391 1338 LINE",
"282 1338 LINE",
"282 20 LINE"
);
},
{
closed = 1;
nodes = (
"1293 0 LINE",
"1293 340 LINE",
"1272 340 LINE",
"1201 121 LINE SMOOTH",
"1191 85 OFFCURVE",
"1136 65 OFFCURVE",
"1078 65 CURVE SMOOTH",
"282 65 LINE",
"282 0 LINE"
);
},
{
closed = 1;
nodes = (
"1157 1010 LINE",
"1157 1358 LINE",
"282 1358 LINE",
"282 1293 LINE",
"951 1293 LINE SMOOTH",
"1029 1293 OFFCURVE",
"1063 1278 OFFCURVE",
"1074 1235 CURVE SMOOTH",
"1136 1010 LINE"
);
},
{
closed = 1;
nodes = (
"904 660 LINE",
"904 725 LINE",
"344 725 LINE",
"344 660 LINE"
);
},
{
closed = 1;
nodes = (
"936 437 LINE",
"936 962 LINE",
"873 962 LINE",
"873 437 LINE"
);
},
{
closed = 1;
nodes = (
"350 1358 LINE",
"81 1358 LINE",
"81 1304 LINE",
"350 1278 LINE"
);
},
{
closed = 1;
nodes = (
"340 0 LINE",
"340 69 LINE",
"81 44 LINE",
"81 0 LINE"
);
},
{
closed = 1;
nodes = (
"1184 -489 OFFCURVE",
"1230 -458 OFFCURVE",
"1291 -382 CURVE",
"1271 -352 LINE",
"1245 -373 OFFCURVE",
"1207 -385 OFFCURVE",
"1170 -385 CURVE SMOOTH",
"1086 -385 OFFCURVE",
"1043 -340 OFFCURVE",
"1043 -252 CURVE SMOOTH",
"1043 -168 OFFCURVE",
"1109 -26 OFFCURVE",
"1293 0 CURVE",
"1150 40 LINE",
"1008 -82 OFFCURVE",
"937 -201 OFFCURVE",
"937 -317 CURVE SMOOTH",
"937 -405 OFFCURVE",
"1004 -489 OFFCURVE",
"1098 -489 CURVE SMOOTH"
);
}
);
width = 1334.4;
},
{
anchors = (
{
name = bottom;
position = "{750, 0}";
},
{
name = top;
position = "{663, 1358}";
}
);
hints = (
{
horizontal = 1;
origin = "{6, 3}";
type = Anchor;
},
{
horizontal = 1;
origin = "{6, 3}";
target = "{6, 2}";
type = TTStem;
stem = 2;
},
{
horizontal = 1;
origin = "{6, 3}";
target = "{1, 8}";
type = Align;
options = 4;
},
{
horizontal = 1;
origin = "{5, 1}";
type = Anchor;
},
{
horizontal = 1;
origin = "{5, 1}";
target = "{5, 2}";
type = TTStem;
stem = 2;
},
{
horizontal = 1;
origin = "{5, 1}";
target = "{2, 2}";
type = Align;
options = 4;
},
{
horizontal = 1;
origin = "{6, 3}";
target = "{5, 1}";
other1 = "{3, 2}";
type = Interpolate;
options = 4;
},
{
horizontal = 1;
origin = "{3, 2}";
target = "{3, 3}";
type = TTStem;
options = 4;
},
{
horizontal = 1;
origin = "{6, 3}";
target = "{7, 12}";
type = Align;
options = 4;
},
{
horizontal = 1;
origin = "{6, 3}";
target = "{1, 0}";
type = Align;
options = 4;
},
{
horizontal = 1;
origin = "{7, 12}";
target = "{7, 6}";
type = TTStem;
stem = -1;
},
{
horizontal = 1;
origin = "{7, 6}";
target = "{7, 19}";
type = TTStem;
},
{
horizontal = 1;
origin = "{2, 2}";
target = "{2, 3}";
type = TTStem;
stem = 2;
},
{
horizontal = 1;
origin = "{1, 8}";
target = "{1, 7}";
type = TTStem;
stem = 2;
}
);
layerId = "56E89462-3A12-4850-914F-0D670F297A3A";
paths = (
{
closed = 1;
nodes = (
"377 20 LINE",
"377 1338 LINE",
"278 1338 LINE",
"278 20 LINE"
);
},
{
closed = 1;
nodes = (
"1222 0 LINE",
"1222 340 LINE",
"1187 340 LINE",
"1117 111 LINE SMOOTH",
"1100 56 OFFCURVE",
"1063 55 OFFCURVE",
"994 55 CURVE SMOOTH",
"278 55 LINE",
"278 0 LINE"
);
},
{
closed = 1;
nodes = (
"1095 1017 LINE",
"1095 1358 LINE",
"278 1358 LINE",
"278 1303 LINE",
"880 1303 LINE SMOOTH",
"952 1303 OFFCURVE",
"988 1288 OFFCURVE",
"1003 1232 CURVE SMOOTH",
"1060 1017 LINE"
);
},
{
closed = 1;
nodes = (
"866 665 LINE",
"866 721 LINE",
"343 721 LINE",
"343 665 LINE"
);
},
{
closed = 1;
nodes = (
"891 442 LINE",
"891 958 LINE",
"828 958 LINE",
"828 442 LINE"
);
},
{
closed = 1;
nodes = (
"327 1358 LINE",
"78 1358 LINE",
"78 1314 LINE",
"327 1290 LINE"
);
},
{
closed = 1;
nodes = (
"326 0 LINE",
"326 68 LINE",
"78 44 LINE",
"78 0 LINE"
);
},
{
closed = 1;
nodes = (
"1109 -510 OFFCURVE",
"1155 -479 OFFCURVE",
"1216 -403 CURVE",
"1196 -373 LINE",
"1170 -394 OFFCURVE",
"1132 -406 OFFCURVE",
"1095 -406 CURVE SMOOTH",
"1011 -406 OFFCURVE",
"968 -361 OFFCURVE",
"968 -273 CURVE SMOOTH",
"968 -189 OFFCURVE",
"1026 -43 OFFCURVE",
"1222 0 CURVE",
"1075 19 LINE",
"933 -103 OFFCURVE",
"862 -222 OFFCURVE",
"862 -338 CURVE SMOOTH",
"862 -426 OFFCURVE",
"929 -510 OFFCURVE",
"1023 -510 CURVE SMOOTH"
);
}
);
width = 1261.4;
},
{
anchors = (
{
name = bottom;
position = "{629, 0}";
},
{
name = top;
position = "{674, 1358}";
}
);
layerId = "D683B167-653D-4D52-BD41-B5BCAD6A6428";
paths = (
{
closed = 1;
nodes = (
"472 20 LINE",
"472 1338 LINE",
"209 1338 LINE",
"209 20 LINE"
);
},
{
closed = 1;
nodes = (
"1236 0 LINE",
"1236 353 LINE",
"1165 353 LINE",
"1055 149 LINE SMOOTH",
"1033 108 OFFCURVE",
"986 93 OFFCURVE",
"935 93 CURVE SMOOTH",
"209 93 LINE",
"209 0 LINE"
);
},
{
closed = 1;
nodes = (
"1112 1002 LINE",
"1112 1358 LINE",
"209 1358 LINE",
"209 1265 LINE",
"803 1265 LINE SMOOTH",
"874 1265 OFFCURVE",
"898 1252 OFFCURVE",
"923 1208 CURVE SMOOTH",
"1041 1002 LINE"
);
},
{
closed = 1;
nodes = (
"808 636 LINE",
"808 729 LINE",
"319 729 LINE",
"319 636 LINE"
);
},
{
closed = 1;
nodes = (
"866 459 LINE",
"866 925 LINE",
"754 925 LINE",
"754 459 LINE"
);
},
{
closed = 1;
nodes = (
"351 1358 LINE",
"49 1358 LINE",
"49 1283 LINE",
"351 1254 LINE"
);
},
{
closed = 1;
nodes = (
"351 0 LINE",
"351 104 LINE",
"49 75 LINE",
"49 0 LINE"
);
},
{
closed = 1;
nodes = (
"1091 -487 OFFCURVE",
"1158 -446 OFFCURVE",
"1202 -375 CURVE",
"1178 -326 LINE",
"1144 -359 OFFCURVE",
"1121 -370 OFFCURVE",
"1082 -370 CURVE SMOOTH",
"1017 -370 OFFCURVE",
"985 -330 OFFCURVE",
"985 -247 CURVE SMOOTH",
"985 -163 OFFCURVE",
"1033 -29 OFFCURVE",
"1236 0 CURVE",
"1019 41 LINE",
"880 -86 OFFCURVE",
"813 -201 OFFCURVE",
"813 -305 CURVE SMOOTH",
"813 -422 OFFCURVE",
"881 -487 OFFCURVE",
"1002 -487 CURVE SMOOTH"
);
}
);
width = 1261.4;
}
);
leftMetricsKey = "=E";
widthMetricsKey = E;
note = Eogonek;
rightKerningGroup = E;
unicode = 0118;
},
{
glyphname = F;
lastChange = "2019-07-10 21:00:35 +0000";
layers = (
{
anchors = (
{
name = bottom;
position = "{610, 0}";
},
{
name = top;
position = "{610, 1358}";
}
);
layerId = "6CE37295-6E30-426D-87AF-6FEE9061C297";
paths = (
{
closed = 1;
nodes = (
"528 40 LINE",
"528 1311 LINE",
"198 1311 LINE",
"198 40 LINE"
);
},
{
closed = 1;
nodes = (
"1216 991 LINE",
"1216 1358 LINE",
"198 1358 LINE",
"198 1257 LINE",
"865 1257 LINE SMOOTH",
"939 1257 OFFCURVE",
"962 1245 OFFCURVE",
"991 1202 CURVE SMOOTH",
"1132 991 LINE"
);
},
{
closed = 1;
nodes = (
"724 0 LINE",
"724 81 LINE",
"375 111 LINE",
"29 81 LINE",
"29 0 LINE"
);
},
{
closed = 1;
nodes = (
"842 608 LINE",
"842 709 LINE",
"287 709 LINE",
"287 608 LINE"
);
},
{
closed = 1;
nodes = (
"912 367 LINE",
"912 941 LINE",
"787 941 LINE",
"787 367 LINE"
);
},
{
closed = 1;
nodes = (
"349 1358 LINE",
"29 1358 LINE",
"29 1277 LINE",
"349 1247 LINE"
);
}
);
userData = {
assembly = "MPPEM[ ]\011/* MeasurePixelPerEm */
PUSHB[ ]\011/* 1 value pushed */
70 
LT[ ]\011/* LessThan */
IF[ ]\011/* If */
NPUSHB[ ]\011/* 11 values pushed */
30 13 2 3 0 36 1 5 4 2 76 
ELSE[ ]\011/* Else */
NPUSHB[ ]\011/* 11 values pushed */
30 13 2 3 2 36 1 5 4 2 76 
EIF[ ]\011/* EndIf */
MPPEM[ ]\011/* MeasurePixelPerEm */
PUSHB[ ]\011/* 1 value pushed */
51 
LT[ ]\011/* LessThan */
IF[ ]\011/* If */
NPUSHB[ ]\011/* 31 values pushed */
0 3 0 4 5 3 4 105 2 1 0 0 1 95 0 1 1 68 77 7 1 5 5 6 95 0 6 6 69 6 78 
ELSE[ ]\011/* Else */
MPPEM[ ]\011/* MeasurePixelPerEm */
PUSHB[ ]\011/* 1 value pushed */
60 
LT[ ]\011/* LessThan */
IF[ ]\011/* If */
NPUSHB[ ]\011/* 28 values pushed */
0 3 0 4 5 3 4 105 7 1 5 0 6 5 6 99 2 1 0 0 1 95 0 1 1 68 0 78 
ELSE[ ]\011/* Else */
MPPEM[ ]\011/* MeasurePixelPerEm */
PUSHB[ ]\011/* 1 value pushed */
70 
LT[ ]\011/* LessThan */
IF[ ]\011/* If */
NPUSHB[ ]\011/* 35 values pushed */
0 1 2 1 0 3 1 0 105 0 3 0 4 5 3 4 105 7 1 5 6 6 5 89 7 1 5 5 6 95 0 6 5 6 79 
ELSE[ ]\011/* Else */
NPUSHB[ ]\011/* 41 values pushed */
0 0 1 2 2 0 114 0 1 0 2 3 1 2 103 0 3 0 4 5 3 4 105 7 1 5 6 6 5 89 7 1 5 5 6 95 0 6 5 6 79 
EIF[ ]\011/* EndIf */
EIF[ ]\011/* EndIf */
EIF[ ]\011/* EndIf */
NPUSHB[ ]\011/* 11 values pushed */
34 66 19 61 51 71 98 18 8 11 30 
CALL[ ]\011/* CallFunction */";
};
width = 1231;
},
{
anchors = (
{
name = bottom;
position = "{564, 0}";
},
{
name = top;
position = "{564, 1358}";
}
);
guideLines = (
{
angle = 174.6442;
position = "{241, 1289}";
}
);
layerId = "C40247AC-6B1A-4EFE-B804-1FED3C225331";
paths = (
{
closed = 1;
nodes = (
"391 22 LINE",
"391 1325 LINE",
"282 1325 LINE",
"282 22 LINE"
);
},
{
closed = 1;
nodes = (
"1099 990 LINE",
"1099 1358 LINE",
"282 1358 LINE",
"282 1293 LINE",
"880 1293 LINE SMOOTH",
"963 1293 OFFCURVE",
"999 1277 OFFCURVE",
"1012 1231 CURVE SMOOTH",
"1076 990 LINE"
);
},
{
closed = 1;
nodes = (
"597 0 LINE",
"597 44 LINE",
"346 74 LINE",
"87 44 LINE",
"87 0 LINE"
);
},
{
closed = 1;
nodes = (
"809 625 LINE",
"809 689 LINE",
"345 689 LINE",
"345 625 LINE"
);
},
{
closed = 1;
nodes = (
"841 367 LINE",
"841 951 LINE",
"778 951 LINE",
"778 367 LINE"
);
},
{
closed = 1;
nodes = (
"361 1358 LINE",
"81 1358 LINE",
"81 1304 LINE",
"361 1277 LINE"
);
}
);
width = 1140;
},
{
anchors = (
{
name = bottom;
position = "{560, 0}";
},
{
name = top;
position = "{560, 1358}";
}
);
guideLines = (
{
angle = 174.6442;
position = "{238, 1299}";
}
);
hints = (
{
horizontal = 1;
origin = "{2, 4}";
target = "{2, 3}";
type = TTStem;
stem = 2;
},
{
horizontal = 1;
origin = "{3, 2}";
target = "{3, 3}";
type = TTStem;
options = 4;
},
{
origin = "{1, 0}";
target = "{rsb}";
type = TTStem;
},
{
origin = "{1, 0}";
target = "{1, 8}";
type = TTStem;
},
{
origin = "{1, 8}";
target = "{4, 1}";
type = TTStem;
},
{
origin = "{4, 1}";
target = "{4, 2}";
type = TTStem;
options = 4;
},
{
origin = "{0, 3}";
type = Anchor;
},
{
origin = "{0, 3}";
target = "{0, 0}";
type = TTStem;
options = 4;
},
{
horizontal = 1;
origin = "{5, 1}";
type = Anchor;
},
{
horizontal = 1;
origin = "{5, 1}";
target = "{5, 2}";
type = TTStem;
stem = 2;
},
{
horizontal = 1;
origin = "{5, 1}";
target = "{1, 1}";
type = Align;
options = 4;
},
{
horizontal = 1;
origin = "{2, 4}";
type = Anchor;
},
{
horizontal = 1;
origin = "{2, 4}";
target = "{5, 1}";
other1 = "{3, 2}";
type = Interpolate;
},
{
horizontal = 1;
origin = "{2, 3}";
target = "{2, 4}";
other1 = "{0, 3}";
type = Interpolate;
options = 4;
},
{
horizontal = 1;
origin = "{5, 2}";
target = "{5, 1}";
other1 = "{0, 2}";
type = Interpolate;
options = 4;
},
{
horizontal = 1;
origin = "{5, 1}";
target = "{1, 2}";
type = Align;
options = 4;
},
{
horizontal = 1;
origin = "{1, 2}";
target = "{1, 3}";
type = TTStem;
stem = 2;
}
);
layerId = "56E89462-3A12-4850-914F-0D670F297A3A";
paths = (
{
closed = 1;
nodes = (
"377 22 LINE",
"377 1329 LINE",
"278 1329 LINE",
"278 22 LINE"
);
},
{
closed = 1;
nodes = (
"1039 990 LINE",
"1039 1358 LINE",
"278 1358 LINE",
"278 1303 LINE",
"821 1303 LINE SMOOTH",
"901 1303 OFFCURVE",
"944 1288 OFFCURVE",
"957 1226 CURVE SMOOTH",
"1005 990 LINE"
);
},
{
closed = 1;
nodes = (
"578 0 LINE",
"578 44 LINE",
"332 74 LINE",
"78 44 LINE",
"78 0 LINE"
);
},
{
closed = 1;
nodes = (
"805 630 LINE",
"805 685 LINE",
"327 685 LINE",
"327 630 LINE"
);
},
{
closed = 1;
nodes = (
"830 375 LINE",
"830 943 LINE",
"767 943 LINE",
"767 375 LINE"
);
},
{
closed = 1;
nodes = (
"358 1358 LINE",
"78 1358 LINE",
"78 1314 LINE",
"358 1287 LINE"
);
}
);
width = 1078;
},
{
anchors = (
{
name = bottom;
position = "{522, 0}";
},
{
name = top;
position = "{522, 1358}";
}
);
guideLines = (
{
angle = 174.6442;
position = "{242, 1299}";
}
);
layerId = "D683B167-653D-4D52-BD41-B5BCAD6A6428";
paths = (
{
closed = 1;
nodes = (
"459 37 LINE",
"459 1314 LINE",
"196 1314 LINE",
"196 37 LINE"
);
},
{
closed = 1;
nodes = (
"1053 991 LINE",
"1053 1358 LINE",
"196 1358 LINE",
"196 1265 LINE",
"755 1265 LINE SMOOTH",
"835 1265 OFFCURVE",
"850 1241 OFFCURVE",
"869 1206 CURVE SMOOTH",
"984 991 LINE"
);
},
{
closed = 1;
nodes = (
"612 0 LINE",
"612 75 LINE",
"330 105 LINE",
"49 75 LINE",
"49 0 LINE"
);
},
{
closed = 1;
nodes = (
"735 612 LINE",
"735 705 LINE",
"281 705 LINE",
"281 612 LINE"
);
},
{
closed = 1;
nodes = (
"792 368 LINE",
"792 941 LINE",
"687 941 LINE",
"687 368 LINE"
);
},
{
closed = 1;
nodes = (
"333 1358 LINE",
"49 1358 LINE",
"49 1283 LINE",
"333 1254 LINE"
);
}
);
width = 1078;
}
);
leftMetricsKey = H;
note = F;
rightKerningGroup = F;
rightMetricsKey = "=H/2";
unicode = 0046;
},
{
glyphname = G;
lastChange = "2019-07-10 21:13:19 +0000";
layers = (
{
anchors = (
{
name = bottom;
position = "{795, 0}";
},
{
name = top;
position = "{821, 1358}";
}
);
guideLines = (
{
angle = 260.7334;
position = "{1221, 1275}";
},
{
angle = 96.1373;
position = "{1183, 93}";
}
);
layerId = "6CE37295-6E30-426D-87AF-6FEE9061C297";
paths = (
{
closed = 1;
nodes = (
"893 -27 OFFCURVE",
"967 -23 OFFCURVE",
"1149 9 CURVE SMOOTH",
"1254 27 OFFCURVE",
"1297 32 OFFCURVE",
"1343 32 CURVE",
"1343 124 LINE",
"1316 124 OFFCURVE",
"1299 128 OFFCURVE",
"1299 161 CURVE SMOOTH",
"1299 539 LINE",
"1143 456 LINE",
"1414 486 LINE",
"1414 570 LINE",
"743 570 LINE",
"743 486 LINE",
"1097 456 LINE",
"969 539 LINE",
"969 38 LINE",
"1139 196 LINE",
"1025 104 OFFCURVE",
"939 73 OFFCURVE",
"840 73 CURVE SMOOTH",
"587 73 OFFCURVE",
"423 315 OFFCURVE",
"423 689 CURVE SMOOTH",
"423 1077 OFFCURVE",
"569 1292 OFFCURVE",
"833 1292 CURVE SMOOTH",
"1018 1292 OFFCURVE",
"1172 1158 OFFCURVE",
"1229 948 CURVE",
"1343 948 LINE",
"1350 1370 LINE",
"1237 1370 LINE",
"1207 1188 LINE",
"1293 1188 LINE",
"1151 1322 OFFCURVE",
"974 1385 OFFCURVE",
"778 1385 CURVE SMOOTH",
"372 1385 OFFCURVE",
"23 1070 OFFCURVE",
"23 655 CURVE SMOOTH",
"23 233 OFFCURVE",
"377 -27 OFFCURVE",
"818 -27 CURVE SMOOTH"
);
}
);
userData = {
assembly = "PUSHB[ ]\011/* 7 values pushed */
32 3 2 0 7 1 76 
MPPEM[ ]\011/* MeasurePixelPerEm */
PUSHB[ ]\011/* 1 value pushed */
34 
LT[ ]\011/* LessThan */
IF[ ]\011/* If */
NPUSHB[ ]\011/* 43 values pushed */
0 0 9 1 1 2 0 1 105 0 2 0 3 4 2 3 105 0 6 6 68 77 0 7 7 5 97 0 5 5 74 77 0 8 8 4 97 0 4 4 75 4 78 
ELSE[ ]\011/* Else */
MPPEM[ ]\011/* MeasurePixelPerEm */
PUSHB[ ]\011/* 1 value pushed */
60 
LT[ ]\011/* LessThan */
IF[ ]\011/* If */
NPUSHB[ ]\011/* 46 values pushed */
0 6 5 7 5 6 7 128 0 0 9 1 1 2 0 1 105 0 2 0 3 4 2 3 105 0 7 7 5 97 0 5 5 74 77 0 8 8 4 97 0 4 4 75 4 78 
ELSE[ ]\011/* Else */
NPUSHB[ ]\011/* 44 values pushed */
0 6 5 7 5 6 7 128 0 5 0 7 0 5 7 105 0 0 9 1 1 2 0 1 105 0 2 0 3 4 2 3 105 0 8 8 4 97 0 4 4 75 4 78 
EIF[ ]\011/* EndIf */
EIF[ ]\011/* EndIf */
NPUSHB[ ]\011/* 14 values pushed */
52 50 36 41 18 38 33 34 19 35 17 10 11 31 
CALL[ ]\011/* CallFunction */";
};
width = 1434;
},
{
anchors = (
{
name = bottom;
position = "{861, 0}";
},
{
name = top;
position = "{812, 1358}";
}
);
layerId = "C40247AC-6B1A-4EFE-B804-1FED3C225331";
paths = (
{
closed = 1;
nodes = (
"947 -27 OFFCURVE",
"1051 -20 OFFCURVE",
"1237 20 CURVE SMOOTH",
"1343 43 OFFCURVE",
"1384 51 OFFCURVE",
"1401 54 CURVE",
"1401 83 LINE",
"1375 83 OFFCURVE",
"1362 106 OFFCURVE",
"1362 154 CURVE SMOOTH",
"1362 508 LINE",
"1316 454 LINE",
"1507 484 LINE",
"1507 541 LINE",
"1023 541 LINE",
"1023 484 LINE",
"1300 454 LINE",
"1254 508 LINE",
"1254 55 LINE",
"1302 149 LINE",
"1180 57 OFFCURVE",
"986 33 OFFCURVE",
"869 33 CURVE SMOOTH",
"490 33 OFFCURVE",
"245 281 OFFCURVE",
"245 664 CURVE SMOOTH",
"245 1043 OFFCURVE",
"499 1328 OFFCURVE",
"838 1328 CURVE SMOOTH",
"1081 1328 OFFCURVE",
"1248 1195 OFFCURVE",
"1315 948 CURVE",
"1369 948 LINE",
"1372 1370 LINE",
"1317 1370 LINE",
"1287 1181 LINE",
"1338 1181 LINE",
"1191 1322 OFFCURVE",
"1036 1385 OFFCURVE",
"841 1385 CURVE SMOOTH",
"414 1385 OFFCURVE",
"130 1086 OFFCURVE",
"130 672 CURVE SMOOTH",
"130 264 OFFCURVE",
"405 -27 OFFCURVE",
"933 -27 CURVE SMOOTH"
);
}
);
width = 1564;
},
{
anchors = (
{
name = bottom;
position = "{747, 0}";
},
{
name = top;
position = "{688, 1358}";
}
);
hints = (
{
horizontal = 1;
origin = "{0, 45}";
target = "{0, 22}";
type = TTStem;
options = 4;
},
{
horizontal = 1;
origin = "{0, 39}";
target = "{0, 28}";
type = TTStem;
options = 4;
},
{
horizontal = 1;
origin = "{0, 14}";
target = "{0, 15}";
type = TTStem;
stem = 2;
},
{
horizontal = 1;
origin = "{0, 15}";
target = "{0, 12}";
type = Align;
options = 4;
},
{
origin = "{0, 42}";
type = Anchor;
},
{
origin = "{0, 42}";
target = "{0, 25}";
type = TTStem;
options = 4;
},
{
origin = "{rsb}";
target = "{0, 9}";
type = TTStem;
},
{
origin = "{0, 9}";
target = "{0, 18}";
type = TTStem;
},
{
origin = "{0, 9}";
target = "{0, 32}";
type = TTStem;
},
{
origin = "{0, 32}";
target = "{0, 31}";
type = TTStem;
options = 4;
},
{
origin = "{0, 32}";
target = "{0, 33}";
type = TTStem;
options = 4;
},
{
origin = "{0, 31}";
target = "{0, 34}";
type = TTStem;
options = 4;
},
{
horizontal = 1;
origin = "{0, 45}";
target = "{0, 5}";
type = TTStem;
},
{
horizontal = 1;
origin = "{0, 5}";
target = "{0, 6}";
type = TTStem;
options = 4;
},
{
horizontal = 1;
origin = "{0, 45}";
type = Anchor;
},
{
horizontal = 1;
origin = "{0, 39}";
type = Anchor;
},
{
horizontal = 1;
origin = "{0, 45}";
target = "{0, 39}";
other1 = "{0, 14}";
type = Interpolate;
options = 4;
}
);
layerId = "56E89462-3A12-4850-914F-0D670F297A3A";
paths = (
{
closed = 1;
nodes = (
"833 -27 OFFCURVE",
"937 -21 OFFCURVE",
"1080 14 CURVE SMOOTH",
"1162 34 OFFCURVE",
"1185 39 OFFCURVE",
"1252 53 CURVE",
"1252 82 LINE",
"1227 82 OFFCURVE",
"1216 106 OFFCURVE",
"1216 153 CURVE SMOOTH",
"1216 514 LINE",
"1173 464 LINE",
"1360 494 LINE",
"1360 542 LINE",
"887 542 LINE",
"887 494 LINE",
"1160 464 LINE",
"1118 514 LINE",
"1118 55 LINE",
"1161 149 LINE",
"1047 57 OFFCURVE",
"865 33 OFFCURVE",
"760 33 CURVE SMOOTH",
"411 33 OFFCURVE",
"175 293 OFFCURVE",
"175 679 CURVE SMOOTH",
"175 1050 OFFCURVE",
"412 1328 OFFCURVE",
"729 1328 CURVE SMOOTH",
"957 1328 OFFCURVE",
"1113 1195 OFFCURVE",
"1175 948 CURVE",
"1225 948 LINE",
"1228 1370 LINE",
"1178 1370 LINE",
"1147 1181 LINE",
"1197 1181 LINE",
"1060 1322 OFFCURVE",
"916 1385 OFFCURVE",
"735 1385 CURVE SMOOTH",
"336 1385 OFFCURVE",
"64 1087 OFFCURVE",
"64 678 CURVE SMOOTH",
"64 264 OFFCURVE",
"341 -27 OFFCURVE",
"771 -27 CURVE SMOOTH"
);
}
);
width = 1415;
},
{
anchors = (
{
name = bottom;
position = "{774, 0}";
},
{
name = top;
position = "{785, 1358}";
}
);
layerId = "D683B167-653D-4D52-BD41-B5BCAD6A6428";
paths = (
{
closed = 1;
nodes = (
"870 -27 OFFCURVE",
"949 -22 OFFCURVE",
"1120 10 CURVE SMOOTH",
"1217 28 OFFCURVE",
"1257 33 OFFCURVE",
"1306 36 CURVE",
"1306 117 LINE",
"1276 117 OFFCURVE",
"1263 128 OFFCURVE",
"1263 160 CURVE SMOOTH",
"1263 535 LINE",
"1148 457 LINE",
"1381 487 LINE",
"1381 565 LINE",
"795 565 LINE",
"795 487 LINE",
"1110 457 LINE",
"1000 535 LINE",
"1000 41 LINE",
"1126 188 LINE",
"1015 96 OFFCURVE",
"922 66 OFFCURVE",
"827 66 CURVE SMOOTH",
"566 66 OFFCURVE",
"405 306 OFFCURVE",
"405 687 CURVE SMOOTH",
"405 1084 OFFCURVE",
"549 1298 OFFCURVE",
"817 1298 CURVE SMOOTH",
"1005 1298 OFFCURVE",
"1139 1176 OFFCURVE",
"1200 948 CURVE",
"1301 948 LINE",
"1308 1370 LINE",
"1206 1370 LINE",
"1177 1187 LINE",
"1255 1187 LINE",
"1117 1322 OFFCURVE",
"945 1385 OFFCURVE",
"758 1385 CURVE SMOOTH",
"363 1385 OFFCURVE",
"30 1073 OFFCURVE",
"30 659 CURVE SMOOTH",
"30 239 OFFCURVE",
"366 -27 OFFCURVE",
"797 -27 CURVE SMOOTH"
);
}
);
width = 1415;
},
{
anchors = (
{
name = bottom;
position = "{822, 0}";
},
{
name = top;
position = "{918, 1358}";
}
);
associatedMasterId = "D683B167-653D-4D52-BD41-B5BCAD6A6428";
layerId = "ECA24DFA-E7D1-4DC0-818E-430155BD70A4";
leftMetricsKey = "=11";
name = "{800, 18, 500, 0}";
paths = (
{
closed = 1;
nodes = (
"930 -27 OFFCURVE",
"979 -24 OFFCURVE",
"1125 -4 CURVE SMOOTH",
"1258 14 OFFCURVE",
"1369 15 OFFCURVE",
"1397 15 CURVE",
"1397 159 LINE",
"1365 159 OFFCURVE",
"1346 163 OFFCURVE",
"1346 188 CURVE SMOOTH",
"1346 560 LINE",
"1148 449 LINE",
"1435 479 LINE",
"1435 593 LINE",
"731 593 LINE",
"731 479 LINE",
"1077 449 LINE",
"884 560 LINE",
"884 9 LINE",
"1104 159 LINE",
"1020 114 OFFCURVE",
"966 106 OFFCURVE",
"907 106 CURVE SMOOTH",
"742 106 OFFCURVE",
"653 313 OFFCURVE",
"653 697 CURVE SMOOTH",
"653 1093 OFFCURVE",
"743 1262 OFFCURVE",
"953 1262 CURVE SMOOTH",
"1114 1262 OFFCURVE",
"1204 1168 OFFCURVE",
"1254 948 CURVE",
"1419 948 LINE",
"1430 1370 LINE",
"1265 1370 LINE",
"1237 1194 LINE",
"1351 1194 LINE",
"1208 1322 OFFCURVE",
"1003 1385 OFFCURVE",
"801 1385 CURVE SMOOTH",
"410 1385 OFFCURVE",
"11 1056 OFFCURVE",
"11 636 CURVE SMOOTH",
"11 208 OFFCURVE",
"413 -27 OFFCURVE",
"844 -27 CURVE SMOOTH"
);
}
);
width = 1434;
}
);
leftKerningGroup = C;
leftMetricsKey = "=O";
note = G;
rightKerningGroup = G;
rightMetricsKey = "=H*0.7";
unicode = 0047;
},
{
glyphname = uni021C;
lastChange = "2019-07-10 21:00:35 +0000";
layers = (
{
anchors = (
{
name = bottom;
position = "{527, 0}";
},
{
name = top;
position = "{528, 1358}";
}
);
guideLines = (
{
angle = 260.7334;
position = "{342, 1275}";
},
{
angle = 96.1373;
position = "{304, 93}";
},
{
angle = 90;
position = "{688, 698}";
}
);
layerId = "6CE37295-6E30-426D-87AF-6FEE9061C297";
paths = (
{
closed = 1;
nodes = (
"701 -136 OFFCURVE",
"1052 28 OFFCURVE",
"1052 399 CURVE SMOOTH",
"1052 595 OFFCURVE",
"955 758 OFFCURVE",
"688 801 CURVE",
"688 716 LINE",
"889 816 OFFCURVE",
"983 913 OFFCURVE",
"983 1073 CURVE SMOOTH",
"983 1272 OFFCURVE",
"841 1384 OFFCURVE",
"548 1384 CURVE SMOOTH",
"336 1384 OFFCURVE",
"199 1330 OFFCURVE",
"87 1189 CURVE",
"186 1189 LINE",
"167 1370 LINE",
"65 1370 LINE",
"65 948 LINE",
"167 948 LINE",
"202 1157 OFFCURVE",
"288 1291 OFFCURVE",
"429 1291 CURVE SMOOTH",
"544 1291 OFFCURVE",
"615 1204 OFFCURVE",
"615 1069 CURVE SMOOTH",
"615 949 OFFCURVE",
"564 825 OFFCURVE",
"251 652 CURVE",
"304 572 LINE",
"385 648 OFFCURVE",
"450 664 OFFCURVE",
"496 664 CURVE SMOOTH",
"617 664 OFFCURVE",
"664 559 OFFCURVE",
"664 441 CURVE SMOOTH",
"664 199 OFFCURVE",
"461 0 OFFCURVE",
"45 0 CURVE",
"45 -136 LINE"
);
}
);
userData = {
assembly = "NPUSHB[ ]\011/* 10 values pushed */
37 1 4 5 33 1 2 3 2 76 
MPPEM[ ]\011/* MeasurePixelPerEm */
PUSHB[ ]\011/* 1 value pushed */
60 
LT[ ]\011/* LessThan */
IF[ ]\011/* If */
NPUSHB[ ]\011/* 32 values pushed */
0 2 3 1 3 2 1 128 0 4 0 3 2 4 3 106 0 5 5 74 77 0 1 1 0 97 0 0 0 75 0 78 
ELSE[ ]\011/* Else */
MPPEM[ ]\011/* MeasurePixelPerEm */
PUSHB[ ]\011/* 1 value pushed */
84 
LT[ ]\011/* LessThan */
IF[ ]\011/* If */
NPUSHB[ ]\011/* 32 values pushed */
0 5 4 5 133 0 2 3 1 3 2 1 128 0 4 0 3 2 4 3 106 0 1 1 0 97 0 0 0 75 0 78 
ELSE[ ]\011/* Else */
NPUSHB[ ]\011/* 37 values pushed */
0 5 4 5 133 0 2 3 1 3 2 1 128 0 4 0 3 2 4 3 106 0 1 0 0 1 89 0 1 1 0 97 0 0 1 0 81 
EIF[ ]\011/* EndIf */
EIF[ ]\011/* EndIf */
NPUSHB[ ]\011/* 9 values pushed */
35 25 46 38 34 19 6 11 28 
CALL[ ]\011/* CallFunction */";
};
width = 1075;
},
{
anchors = (
{
name = bottom;
position = "{517, 0}";
},
{
name = top;
position = "{518, 1358}";
}
);
background = {
paths = (
{
closed = 1;
nodes = (
"506 -159 OFFCURVE",
"956 86 OFFCURVE",
"956 449 CURVE SMOOTH",
"956 629 OFFCURVE",
"846 740 OFFCURVE",
"658 764 CURVE",
"638 736 LINE",
"798 852 OFFCURVE",
"872 968 OFFCURVE",
"872 1099 CURVE SMOOTH",
"872 1289 OFFCURVE",
"717 1386 OFFCURVE",
"540 1386 CURVE SMOOTH",
"390 1386 OFFCURVE",
"285 1322 OFFCURVE",
"134 1152 CURVE",
"187 1152 LINE",
"164 1370 LINE",
"109 1370 LINE",
"109 948 LINE",
"164 948 LINE",
"180 1155 OFFCURVE",
"329 1319 OFFCURVE",
"519 1319 CURVE SMOOTH",
"664 1319 OFFCURVE",
"758 1227 OFFCURVE",
"758 1072 CURVE SMOOTH",
"758 858 OFFCURVE",
"583 765 OFFCURVE",
"369 653 CURVE",
"401 610 LINE",
"468 666 OFFCURVE",
"533 682 OFFCURVE",
"590 682 CURVE SMOOTH",
"741 682 OFFCURVE",
"843 567 OFFCURVE",
"843 413 CURVE SMOOTH",
"843 84 OFFCURVE",
"385 -113 OFFCURVE",
"105 -113 CURVE",
"105 -159 LINE"
);
}
);
};
layerId = "C40247AC-6B1A-4EFE-B804-1FED3C225331";
paths = (
{
closed = 1;
nodes = (
"506 -159 OFFCURVE",
"956 86 OFFCURVE",
"956 449 CURVE SMOOTH",
"956 629 OFFCURVE",
"845 745 OFFCURVE",
"638 768 CURVE",
"638 736 LINE",
"798 852 OFFCURVE",
"872 968 OFFCURVE",
"872 1099 CURVE SMOOTH",
"872 1289 OFFCURVE",
"717 1386 OFFCURVE",
"540 1386 CURVE SMOOTH",
"390 1386 OFFCURVE",
"285 1322 OFFCURVE",
"134 1152 CURVE",
"187 1152 LINE",
"164 1370 LINE",
"109 1370 LINE",
"109 948 LINE",
"164 948 LINE",
"180 1155 OFFCURVE",
"329 1319 OFFCURVE",
"519 1319 CURVE SMOOTH",
"664 1319 OFFCURVE",
"758 1227 OFFCURVE",
"758 1072 CURVE SMOOTH",
"758 858 OFFCURVE",
"583 765 OFFCURVE",
"369 653 CURVE",
"401 610 LINE",
"468 666 OFFCURVE",
"533 682 OFFCURVE",
"590 682 CURVE SMOOTH",
"741 682 OFFCURVE",
"843 567 OFFCURVE",
"843 413 CURVE SMOOTH",
"843 84 OFFCURVE",
"385 -113 OFFCURVE",
"105 -113 CURVE",
"105 -159 LINE"
);
}
);
width = 1086;
},
{
anchors = (
{
name = bottom;
position = "{477, 0}";
},
{
name = top;
position = "{478, 1358}";
}
);
background = {
paths = (
{
closed = 1;
nodes = (
"472 -159 OFFCURVE",
"892 87 OFFCURVE",
"892 452 CURVE SMOOTH",
"892 630 OFFCURVE",
"790 740 OFFCURVE",
"616 763 CURVE",
"596 736 LINE",
"745 852 OFFCURVE",
"814 959 OFFCURVE",
"814 1090 CURVE SMOOTH",
"814 1289 OFFCURVE",
"656 1386 OFFCURVE",
"492 1386 CURVE SMOOTH",
"356 1386 OFFCURVE",
"228 1322 OFFCURVE",
"128 1152 CURVE",
"179 1152 LINE",
"156 1370 LINE",
"105 1370 LINE",
"105 948 LINE",
"156 948 LINE",
"156 1156 OFFCURVE",
"301 1320 OFFCURVE",
"469 1320 CURVE SMOOTH",
"596 1320 OFFCURVE",
"711 1227 OFFCURVE",
"711 1061 CURVE SMOOTH",
"711 870 OFFCURVE",
"547 772 OFFCURVE",
"349 653 CURVE",
"377 610 LINE",
"450 666 OFFCURVE",
"508 682 OFFCURVE",
"557 682 CURVE SMOOTH",
"689 682 OFFCURVE",
"785 567 OFFCURVE",
"785 413 CURVE SMOOTH",
"785 83 OFFCURVE",
"358 -114 OFFCURVE",
"101 -114 CURVE",
"101 -159 LINE"
);
}
);
};
hints = (
{
horizontal = 1;
origin = "{0, 40}";
type = Anchor;
},
{
horizontal = 1;
origin = "{0, 40}";
target = "{0, 39}";
type = TTStem;
options = 4;
},
{
horizontal = 1;
origin = "{0, 23}";
target = "{0, 12}";
type = TTStem;
options = 4;
},
{
horizontal = 1;
origin = "{0, 39}";
target = "{0, 23}";
other1 = "{0, 30}";
type = Interpolate;
},
{
horizontal = 1;
origin = "{0, 30}";
target = "{0, 29}";
type = TTStem;
options = 4;
},
{
origin = "{rsb}";
target = "{0, 2}";
type = TTStem;
},
{
origin = "{0, 2}";
target = "{0, 36}";
type = TTStem;
options = 4;
},
{
origin = "{0, 2}";
target = "{0, 9}";
type = TTStem;
},
{
origin = "{0, 9}";
target = "{0, 26}";
type = TTStem;
options = 4;
},
{
origin = "{lsb}";
target = "{0, 19}";
type = TTStem;
},
{
origin = "{0, 19}";
target = "{0, 20}";
type = TTStem;
},
{
origin = "{0, 19}";
target = "{0, 18}";
type = Align;
options = 4;
},
{
origin = "{0, 20}";
target = "{0, 17}";
type = Align;
options = 4;
},
{
horizontal = 1;
origin = "{0, 12}";
type = Anchor;
}
);
layerId = "56E89462-3A12-4850-914F-0D670F297A3A";
paths = (
{
closed = 1;
nodes = (
"472 -159 OFFCURVE",
"892 87 OFFCURVE",
"892 452 CURVE SMOOTH",
"892 630 OFFCURVE",
"792 745 OFFCURVE",
"596 767 CURVE",
"596 736 LINE",
"745 852 OFFCURVE",
"814 959 OFFCURVE",
"814 1090 CURVE SMOOTH",
"814 1289 OFFCURVE",
"656 1386 OFFCURVE",
"492 1386 CURVE SMOOTH",
"356 1386 OFFCURVE",
"228 1322 OFFCURVE",
"128 1152 CURVE",
"179 1152 LINE",
"156 1370 LINE",
"105 1370 LINE",
"105 948 LINE",
"156 948 LINE",
"156 1156 OFFCURVE",
"301 1320 OFFCURVE",
"469 1320 CURVE SMOOTH",
"596 1320 OFFCURVE",
"711 1227 OFFCURVE",
"711 1061 CURVE SMOOTH",
"711 870 OFFCURVE",
"547 772 OFFCURVE",
"349 653 CURVE",
"377 610 LINE",
"450 666 OFFCURVE",
"508 682 OFFCURVE",
"557 682 CURVE SMOOTH",
"689 682 OFFCURVE",
"785 567 OFFCURVE",
"785 413 CURVE SMOOTH",
"785 83 OFFCURVE",
"358 -114 OFFCURVE",
"101 -114 CURVE",
"101 -159 LINE"
);
}
);
width = 957;
},
{
anchors = (
{
name = bottom;
position = "{477, 0}";
},
{
name = top;
position = "{478, 1358}";
}
);
guideLines = (
{
angle = 90;
position = "{605, 672}";
}
);
layerId = "D683B167-653D-4D52-BD41-B5BCAD6A6428";
paths = (
{
closed = 1;
nodes = (
"598 -140 OFFCURVE",
"926 38 OFFCURVE",
"926 408 CURVE SMOOTH",
"926 601 OFFCURVE",
"837 757 OFFCURVE",
"605 796 CURVE",
"605 719 LINE",
"780 822 OFFCURVE",
"862 922 OFFCURVE",
"862 1076 CURVE SMOOTH",
"862 1275 OFFCURVE",
"729 1384 OFFCURVE",
"484 1384 CURVE SMOOTH",
"297 1384 OFFCURVE",
"177 1323 OFFCURVE",
"81 1183 CURVE",
"163 1183 LINE",
"146 1370 LINE",
"61 1370 LINE",
"61 948 LINE",
"146 948 LINE",
"172 1158 OFFCURVE",
"267 1297 OFFCURVE",
"396 1297 CURVE SMOOTH",
"501 1297 OFFCURVE",
"579 1209 OFFCURVE",
"579 1068 CURVE SMOOTH",
"579 942 OFFCURVE",
"512 819 OFFCURVE",
"238 652 CURVE",
"283 578 LINE",
"351 648 OFFCURVE",
"406 667 OFFCURVE",
"450 667 CURVE SMOOTH",
"561 667 OFFCURVE",
"609 556 OFFCURVE",
"609 436 CURVE SMOOTH",
"609 180 OFFCURVE",
"398 -19 OFFCURVE",
"45 -19 CURVE",
"45 -140 LINE"
);
}
);
width = 957;
}
);
note = uni021C;
rightMetricsKey = O;
unicode = 021C;
},
{
glyphname = H;
lastChange = "2019-07-10 21:00:35 +0000";
layers = (
{
anchors = (
{
name = bottom;
position = "{871, 0}";
},
{
name = center;
position = "{871, 679}";
},
{
name = ogonek;
position = "{1605, 10}";
},
{
name = top;
position = "{871, 1358}";
},
{
name = topleft;
position = "{31, 1358}";
}
);
layerId = "6CE37295-6E30-426D-87AF-6FEE9061C297";
paths = (
{
closed = 1;
nodes = (
"541 39 LINE",
"541 1311 LINE",
"211 1311 LINE",
"211 39 LINE"
);
},
{
closed = 1;
nodes = (
"1539 39 LINE",
"1539 1311 LINE",
"1209 1311 LINE",
"1209 39 LINE"
);
},
{
closed = 1;
nodes = (
"1245 650 LINE",
"1245 751 LINE",
"457 751 LINE",
"457 650 LINE"
);
},
{
closed = 1;
nodes = (
"724 0 LINE",
"724 81 LINE",
"375 111 LINE",
"29 81 LINE",
"29 0 LINE"
);
},
{
closed = 1;
nodes = (
"1722 0 LINE",
"1722 81 LINE",
"1373 111 LINE",
"1027 81 LINE",
"1027 0 LINE"
);
},
{
closed = 1;
nodes = (
"724 1277 LINE",
"724 1358 LINE",
"29 1358 LINE",
"29 1277 LINE",
"363 1247 LINE"
);
},
{
closed = 1;
nodes = (
"1722 1277 LINE",
"1722 1358 LINE",
"1027 1358 LINE",
"1027 1277 LINE",
"1361 1247 LINE"
);
}
);
userData = {
assembly = "PUSHB[ ]\011/* 5 values pushed */
62 42 2 8 74 
MPPEM[ ]\011/* MeasurePixelPerEm */
PUSHB[ ]\011/* 1 value pushed */
51 
LT[ ]\011/* LessThan */
IF[ ]\011/* If */
NPUSHB[ ]\011/* 37 values pushed */
0 10 0 3 0 10 3 103 13 11 9 3 7 7 8 97 12 1 8 8 68 77 6 4 2 3 0 0 1 95 5 1 1 1 69 1 78 
ELSE[ ]\011/* Else */
MPPEM[ ]\011/* MeasurePixelPerEm */
PUSHB[ ]\011/* 1 value pushed */
60 
LT[ ]\011/* LessThan */
IF[ ]\011/* If */
NPUSHB[ ]\011/* 34 values pushed */
0 10 0 3 0 10 3 103 6 4 2 3 0 5 1 1 0 1 99 13 11 9 3 7 7 8 97 12 1 8 8 68 7 78 
ELSE[ ]\011/* Else */
NPUSHB[ ]\011/* 43 values pushed */
12 1 8 13 11 9 3 7 10 8 7 105 0 10 0 3 0 10 3 103 6 4 2 3 0 1 1 0 89 6 4 2 3 0 0 1 95 5 1 1 0 1 79 
EIF[ ]\011/* EndIf */
EIF[ ]\011/* EndIf */
NPUSHB[ ]\011/* 22 values pushed */
66 64 61 60 56 55 52 49 46 44 20 19 34 66 19 51 34 66 17 14 11 31 
CALL[ ]\011/* CallFunction */";
};
width = 1751;
},
{
anchors = (
{
name = bottom;
position = "{808, 0}";
},
{
name = center;
position = "{808, 679}";
},
{
name = ogonek;
position = "{1547, 10}";
},
{
name = top;
position = "{808, 1358}";
},
{
name = topleft;
position = "{33, 1358}";
}
);
layerId = "C40247AC-6B1A-4EFE-B804-1FED3C225331";
paths = (
{
closed = 1;
nodes = (
"405 29 LINE",
"405 1325 LINE",
"296 1325 LINE",
"296 29 LINE"
);
},
{
closed = 1;
nodes = (
"1434 29 LINE",
"1434 1325 LINE",
"1326 1325 LINE",
"1326 29 LINE"
);
},
{
closed = 1;
nodes = (
"1365 668 LINE",
"1365 732 LINE",
"371 732 LINE",
"371 668 LINE"
);
},
{
closed = 1;
nodes = (
"618 0 LINE",
"618 44 LINE",
"354 74 LINE",
"81 44 LINE",
"81 0 LINE"
);
},
{
closed = 1;
nodes = (
"1647 0 LINE",
"1647 44 LINE",
"1384 74 LINE",
"1112 44 LINE",
"1112 0 LINE"
);
},
{
closed = 1;
nodes = (
"618 1314 LINE",
"618 1358 LINE",
"81 1358 LINE",
"81 1314 LINE",
"348 1284 LINE"
);
},
{
closed = 1;
nodes = (
"1647 1314 LINE",
"1647 1358 LINE",
"1112 1358 LINE",
"1112 1314 LINE",
"1378 1284 LINE"
);
}
);
width = 1729;
},
{
anchors = (
{
name = bottom;
position = "{804, 0}";
},
{
name = center;
position = "{804, 679}";
},
{
name = ogonek;
position = "{1543, 10}";
},
{
name = top;
position = "{804, 1358}";
},
{
name = topleft;
position = "{30, 1358}";
}
);
hints = (
{
horizontal = 1;
origin = "{5, 2}";
target = "{5, 3}";
type = TTStem;
stem = 2;
},
{
horizontal = 1;
origin = "{5, 2}";
target = "{6, 2}";
type = Align;
options = 4;
},
{
horizontal = 1;
origin = "{5, 3}";
target = "{6, 3}";
type = Align;
options = 4;
},
{
horizontal = 1;
origin = "{3, 4}";
target = "{3, 3}";
type = TTStem;
stem = 2;
},
{
horizontal = 1;
origin = "{3, 4}";
target = "{4, 4}";
type = Align;
options = 4;
},
{
horizontal = 1;
origin = "{3, 3}";
target = "{4, 3}";
type = Align;
options = 4;
},
{
horizontal = 1;
origin = "{5, 3}";
target = "{3, 3}";
other1 = "{2, 3}";
type = Interpolate;
},
{
horizontal = 1;
origin = "{2, 3}";
target = "{2, 2}";
type = TTStem;
},
{
origin = "{0, 3}";
type = Anchor;
},
{
origin = "{0, 3}";
target = "{0, 0}";
type = TTStem;
},
{
origin = "{1, 0}";
type = Anchor;
},
{
origin = "{1, 0}";
target = "{1, 3}";
type = TTStem;
},
{
horizontal = 1;
origin = "{3, 4}";
type = Anchor;
},
{
horizontal = 1;
origin = "{5, 2}";
type = Anchor;
},
{
horizontal = 1;
origin = "{5, 3}";
target = "{5, 2}";
other1 = "{0, 2}";
type = Interpolate;
options = 4;
},
{
horizontal = 1;
origin = "{0, 2}";
target = "{1, 2}";
type = Align;
options = 4;
},
{
horizontal = 1;
origin = "{3, 3}";
target = "{3, 4}";
other1 = "{0, 3}";
type = Interpolate;
options = 4;
},
{
horizontal = 1;
origin = "{0, 3}";
target = "{1, 3}";
type = Align;
options = 4;
}
);
layerId = "56E89462-3A12-4850-914F-0D670F297A3A";
paths = (
{
closed = 1;
nodes = (
"377 29 LINE",
"377 1329 LINE",
"278 1329 LINE",
"278 29 LINE"
);
},
{
closed = 1;
nodes = (
"1340 29 LINE",
"1340 1329 LINE",
"1241 1329 LINE",
"1241 29 LINE"
);
},
{
closed = 1;
nodes = (
"1298 673 LINE",
"1298 728 LINE",
"325 728 LINE",
"325 673 LINE"
);
},
{
closed = 1;
nodes = (
"578 0 LINE",
"578 44 LINE",
"332 74 LINE",
"78 44 LINE",
"78 0 LINE"
);
},
{
closed = 1;
nodes = (
"1540 0 LINE",
"1540 44 LINE",
"1296 74 LINE",
"1041 44 LINE",
"1041 0 LINE"
);
},
{
closed = 1;
nodes = (
"578 1314 LINE",
"578 1358 LINE",
"78 1358 LINE",
"78 1314 LINE",
"328 1284 LINE"
);
},
{
closed = 1;
nodes = (
"1540 1314 LINE",
"1540 1358 LINE",
"1041 1358 LINE",
"1041 1314 LINE",
"1291 1284 LINE"
);
}
);
width = 1619;
},
{
anchors = (
{
name = bottom;
position = "{805, 566}";
},
{
name = center;
position = "{805, 113}";
},
{
name = ogonek;
position = "{1517, 10}";
},
{
name = top;
position = "{805, 1358}";
},
{
name = topleft;
position = "{3, 1358}";
}
);
layerId = "D683B167-653D-4D52-BD41-B5BCAD6A6428";
paths = (
{
closed = 1;
nodes = (
"480 37 LINE",
"480 1314 LINE",
"217 1314 LINE",
"217 37 LINE"
);
},
{
closed = 1;
nodes = (
"1402 37 LINE",
"1402 1314 LINE",
"1139 1314 LINE",
"1139 37 LINE"
);
},
{
closed = 1;
nodes = (
"1186 654 LINE",
"1186 747 LINE",
"394 747 LINE",
"394 654 LINE"
);
},
{
closed = 1;
nodes = (
"650 0 LINE",
"650 75 LINE",
"349 105 LINE",
"49 75 LINE",
"49 0 LINE"
);
},
{
closed = 1;
nodes = (
"1570 0 LINE",
"1570 75 LINE",
"1270 105 LINE",
"970 75 LINE",
"970 0 LINE"
);
},
{
closed = 1;
nodes = (
"650 1283 LINE",
"650 1358 LINE",
"49 1358 LINE",
"49 1283 LINE",
"339 1253 LINE"
);
},
{
closed = 1;
nodes = (
"1570 1283 LINE",
"1570 1358 LINE",
"970 1358 LINE",
"970 1283 LINE",
"1270 1253 LINE"
);
}
);
width = 1619;
}
);
note = H;
unicode = 0048;
},
{
glyphname = I;
lastChange = "2019-07-10 21:00:35 +0000";
layers = (
{
anchors = (
{
name = bottom;
position = "{355, 0}";
},
{
name = ogonek;
position = "{614, 10}";
},
{
name = top;
position = "{355, 1358}";
}
);
layerId = "6CE37295-6E30-426D-87AF-6FEE9061C297";
paths = (
{
closed = 1;
nodes = (
"541 40 LINE",
"541 1311 LINE",
"211 1311 LINE",
"211 40 LINE"
);
},
{
closed = 1;
nodes = (
"724 0 LINE",
"724 81 LINE",
"375 111 LINE",
"29 81 LINE",
"29 0 LINE"
);
},
{
closed = 1;
nodes = (
"724 1277 LINE",
"724 1358 LINE",
"29 1358 LINE",
"29 1277 LINE",
"363 1247 LINE"
);
}
);
userData = {
assembly = "PUSHB[ ]\011/* 4 values pushed */
14 1 2 74 
MPPEM[ ]\011/* MeasurePixelPerEm */
PUSHB[ ]\011/* 1 value pushed */
51 
LT[ ]\011/* LessThan */
IF[ ]\011/* If */
NPUSHB[ ]\011/* 24 values pushed */
3 1 1 1 2 97 0 2 2 68 77 4 1 0 0 5 95 6 1 5 5 69 5 78 
ELSE[ ]\011/* Else */
MPPEM[ ]\011/* MeasurePixelPerEm */
PUSHB[ ]\011/* 1 value pushed */
60 
LT[ ]\011/* LessThan */
IF[ ]\011/* If */
NPUSHB[ ]\011/* 21 values pushed */
4 1 0 6 1 5 0 5 99 3 1 1 1 2 97 0 2 2 68 1 78 
ELSE[ ]\011/* Else */
NPUSHB[ ]\011/* 28 values pushed */
0 2 3 1 1 0 2 1 105 4 1 0 5 5 0 89 4 1 0 0 5 95 6 1 5 0 5 79 
EIF[ ]\011/* EndIf */
EIF[ ]\011/* EndIf */
NPUSHB[ ]\011/* 14 values pushed */
0 0 0 27 0 24 19 35 20 19 34 7 11 27 
CALL[ ]\011/* CallFunction */";
};
width = 753;
},
{
anchors = (
{
name = bottom;
position = "{341, 0}";
},
{
name = ogonek;
position = "{579, 10}";
},
{
name = top;
position = "{335, 1358}";
}
);
layerId = "C40247AC-6B1A-4EFE-B804-1FED3C225331";
paths = (
{
closed = 1;
nodes = (
"391 22 LINE",
"391 1325 LINE",
"282 1325 LINE",
"282 22 LINE"
);
},
{
closed = 1;
nodes = (
"591 0 LINE",
"591 44 LINE",
"340 74 LINE",
"81 44 LINE",
"81 0 LINE"
);
},
{
closed = 1;
nodes = (
"591 1314 LINE",
"591 1358 LINE",
"81 1358 LINE",
"81 1314 LINE",
"334 1284 LINE"
);
}
);
width = 673;
},
{
anchors = (
{
name = bottom;
position = "{323, 0}";
},
{
name = ogonek;
position = "{535, 10}";
},
{
name = top;
position = "{323, 1358}";
}
);
hints = (
{
horizontal = 1;
origin = "{1, 4}";
target = "{1, 3}";
type = TTStem;
stem = 2;
},
{
horizontal = 1;
origin = "{1, 3}";
target = "{1, 1}";
type = Align;
options = 4;
},
{
horizontal = 1;
origin = "{2, 2}";
target = "{2, 3}";
type = TTStem;
stem = 2;
},
{
horizontal = 1;
origin = "{2, 3}";
target = "{2, 0}";
type = Align;
options = 4;
},
{
origin = "{0, 3}";
type = Anchor;
},
{
origin = "{0, 3}";
target = "{0, 0}";
type = TTStem;
options = 4;
},
{
horizontal = 1;
origin = "{1, 4}";
type = Anchor;
},
{
horizontal = 1;
origin = "{2, 2}";
type = Anchor;
},
{
horizontal = 1;
origin = "{2, 3}";
target = "{2, 2}";
other1 = "{0, 2}";
type = Interpolate;
options = 4;
},
{
horizontal = 1;
origin = "{1, 3}";
target = "{1, 4}";
other1 = "{0, 3}";
type = Interpolate;
options = 4;
}
);
layerId = "56E89462-3A12-4850-914F-0D670F297A3A";
paths = (
{
closed = 1;
nodes = (
"377 22 LINE",
"377 1329 LINE",
"278 1329 LINE",
"278 22 LINE"
);
},
{
closed = 1;
nodes = (
"578 0 LINE",
"578 44 LINE",
"332 74 LINE",
"78 44 LINE",
"78 0 LINE"
);
},
{
closed = 1;
nodes = (
"578 1314 LINE",
"578 1358 LINE",
"78 1358 LINE",
"78 1314 LINE",
"328 1284 LINE"
);
}
);
width = 657;
},
{
anchors = (
{
name = bottom;
position = "{331, 0}";
},
{
name = ogonek;
position = "{562, 10}";
},
{
name = top;
position = "{331, 1358}";
}
);
guideLines = (
{
position = "{656, 811}";
showMeasurement = 1;
}
);
layerId = "D683B167-653D-4D52-BD41-B5BCAD6A6428";
paths = (
{
closed = 1;
nodes = (
"460 37 LINE",
"460 1314 LINE",
"197 1314 LINE",
"197 37 LINE"
);
},
{
closed = 1;
nodes = (
"608 0 LINE",
"608 75 LINE",
"328 105 LINE",
"49 75 LINE",
"49 0 LINE"
);
},
{
closed = 1;
nodes = (
"608 1283 LINE",
"608 1358 LINE",
"49 1358 LINE",
"49 1283 LINE",
"318 1253 LINE"
);
}
);
width = 657;
}
);
leftMetricsKey = H;
note = I;
rightMetricsKey = H;
unicode = 0049;
},
{
glyphname = J;
lastChange = "2019-07-10 21:00:35 +0000";
layers = (
{
anchors = (
{
name = bottom;
position = "{512, 0}";
},
{
name = top;
position = "{512, 1358}";
}
);
layerId = "6CE37295-6E30-426D-87AF-6FEE9061C297";
paths = (
{
closed = 1;
nodes = (
"233 -545 OFFCURVE",
"308 -525 OFFCURVE",
"378 -487 CURVE SMOOTH",
"547 -395 OFFCURVE",
"675 -199 OFFCURVE",
"685 70 CURVE SMOOTH",
"694 308 OFFCURVE",
"695 453 OFFCURVE",
"695 504 CURVE SMOOTH",
"695 1311 LINE",
"365 1311 LINE",
"365 129 LINE SMOOTH",
"365 -48 OFFCURVE",
"351 -370 OFFCURVE",
"288 -370 CURVE SMOOTH",
"271 -370 OFFCURVE",
"241 -344 OFFCURVE",
"227 -325 CURVE SMOOTH",
"206 -297 OFFCURVE",
"170 -268 OFFCURVE",
"108 -268 CURVE SMOOTH",
"27 -268 OFFCURVE",
"-42 -318 OFFCURVE",
"-42 -390 CURVE SMOOTH",
"-42 -471 OFFCURVE",
"47 -545 OFFCURVE",
"160 -545 CURVE SMOOTH"
);
},
{
closed = 1;
nodes = (
"876 1277 LINE",
"876 1358 LINE",
"182 1358 LINE",
"182 1277 LINE",
"516 1247 LINE"
);
}
);
userData = {
assembly = "NPUSHB[ ]\011/* 10 values pushed */
7 1 4 0 1 76 20 1 2 74 
MPPEM[ ]\011/* MeasurePixelPerEm */
PUSHB[ ]\011/* 1 value pushed */
60 
LT[ ]\011/* LessThan */
IF[ ]\011/* If */
NPUSHB[ ]\011/* 19 values pushed */
0 0 0 4 0 4 101 3 1 1 1 2 97 0 2 2 68 1 78 
ELSE[ ]\011/* Else */
NPUSHB[ ]\011/* 25 values pushed */
0 2 3 1 1 0 2 1 105 0 0 4 4 0 89 0 0 0 4 97 0 4 0 4 81 
EIF[ ]\011/* EndIf */
PUSHB[ ]\011/* 8 values pushed */
40 35 20 25 34 5 11 27 
CALL[ ]\011/* CallFunction */";
};
width = 898;
},
{
anchors = (
{
name = bottom;
position = "{286, 0}";
},
{
name = top;
position = "{294, 1358}";
}
);
layerId = "C40247AC-6B1A-4EFE-B804-1FED3C225331";
paths = (
{
closed = 1;
nodes = (
"40 -544 OFFCURVE",
"83 -529 OFFCURVE",
"130 -495 CURVE SMOOTH",
"289 -384 OFFCURVE",
"328 -197 OFFCURVE",
"339 75 CURVE SMOOTH",
"342 167 OFFCURVE",
"345 308 OFFCURVE",
"345 509 CURVE SMOOTH",
"345 1325 LINE",
"236 1325 LINE",
"236 135 LINE SMOOTH",
"236 -161 OFFCURVE",
"235 -440 OFFCURVE",
"123 -440 CURVE SMOOTH",
"98 -440 OFFCURVE",
"74 -430 OFFCURVE",
"53 -411 CURVE SMOOTH",
"34 -393 OFFCURVE",
"0 -374 OFFCURVE",
"-36 -374 CURVE SMOOTH",
"-83 -374 OFFCURVE",
"-117 -409 OFFCURVE",
"-117 -456 CURVE SMOOTH",
"-117 -512 OFFCURVE",
"-70 -544 OFFCURVE",
"-5 -544 CURVE SMOOTH"
);
},
{
closed = 1;
nodes = (
"545 1314 LINE",
"545 1358 LINE",
"35 1358 LINE",
"35 1314 LINE",
"289 1284 LINE"
);
}
);
width = 606;
},
{
anchors = (
{
name = bottom;
position = "{289, 0}";
},
{
name = top;
position = "{289, 1358}";
}
);
hints = (
{
horizontal = 1;
origin = "{1, 2}";
target = "{1, 3}";
type = TTStem;
stem = 2;
},
{
horizontal = 1;
origin = "{1, 3}";
target = "{1, 0}";
type = Align;
options = 4;
},
{
horizontal = 1;
origin = "{0, 26}";
type = Anchor;
},
{
horizontal = 1;
origin = "{0, 26}";
target = "{0, 20}";
type = TTStem;
options = 4;
},
{
origin = "{0, 11}";
type = Anchor;
},
{
origin = "{0, 11}";
target = "{0, 8}";
type = TTStem;
},
{
horizontal = 1;
origin = "{1, 2}";
type = Anchor;
},
{
horizontal = 1;
origin = "{1, 3}";
target = "{1, 2}";
other1 = "{0, 10}";
type = Interpolate;
options = 4;
}
);
layerId = "56E89462-3A12-4850-914F-0D670F297A3A";
paths = (
{
closed = 1;
nodes = (
"43 -545 OFFCURVE",
"87 -530 OFFCURVE",
"132 -497 CURVE SMOOTH",
"289 -382 OFFCURVE",
"321 -197 OFFCURVE",
"333 75 CURVE SMOOTH",
"337 166 OFFCURVE",
"339 307 OFFCURVE",
"339 509 CURVE SMOOTH",
"339 1328 LINE",
"241 1328 LINE",
"241 134 LINE SMOOTH",
"241 -162 OFFCURVE",
"233 -456 OFFCURVE",
"127 -456 CURVE SMOOTH",
"99 -456 OFFCURVE",
"74 -439 OFFCURVE",
"57 -420 CURVE SMOOTH",
"39 -400 OFFCURVE",
"4 -375 OFFCURVE",
"-34 -375 CURVE SMOOTH",
"-79 -375 OFFCURVE",
"-112 -410 OFFCURVE",
"-112 -457 CURVE SMOOTH",
"-112 -513 OFFCURVE",
"-65 -545 OFFCURVE",
"-1 -545 CURVE SMOOTH"
);
},
{
closed = 1;
nodes = (
"539 1314 LINE",
"539 1358 LINE",
"39 1358 LINE",
"39 1314 LINE",
"291 1284 LINE"
);
}
);
width = 598;
},
{
anchors = (
{
name = bottom;
position = "{346, 0}";
},
{
name = top;
position = "{346, 1358}";
}
);
guideLines = (
{
position = "{656, 811}";
showMeasurement = 1;
}
);
layerId = "D683B167-653D-4D52-BD41-B5BCAD6A6428";
paths = (
{
closed = 1;
nodes = (
"106 -545 OFFCURVE",
"161 -524 OFFCURVE",
"207 -497 CURVE SMOOTH",
"387 -391 OFFCURVE",
"471 -203 OFFCURVE",
"480 63 CURVE SMOOTH",
"491 382 OFFCURVE",
"492 531 OFFCURVE",
"492 625 CURVE SMOOTH",
"492 1314 LINE",
"229 1314 LINE",
"229 130 LINE SMOOTH",
"229 -67 OFFCURVE",
"229 -384 OFFCURVE",
"169 -384 CURVE SMOOTH",
"154 -384 OFFCURVE",
"125 -360 OFFCURVE",
"112 -342 CURVE SMOOTH",
"92 -315 OFFCURVE",
"62 -286 OFFCURVE",
"7 -286 CURVE SMOOTH",
"-61 -286 OFFCURVE",
"-120 -334 OFFCURVE",
"-120 -401 CURVE SMOOTH",
"-120 -478 OFFCURVE",
"-43 -545 OFFCURVE",
"52 -545 CURVE SMOOTH"
);
},
{
closed = 1;
nodes = (
"624 1283 LINE",
"624 1358 LINE",
"94 1358 LINE",
"94 1283 LINE",
"349 1253 LINE"
);
}
);
width = 598;
}
);
leftKerningGroup = J;
note = J;
rightKerningGroup = J;
unicode = 004A;
},
{
glyphname = K;
lastChange = "2019-07-10 21:00:35 +0000";
layers = (
{
anchors = (
{
name = bottom;
position = "{779, 0}";
},
{
name = top;
position = "{779, 1358}";
}
);
layerId = "6CE37295-6E30-426D-87AF-6FEE9061C297";
paths = (
{
closed = 1;
nodes = (
"1522 0 LINE",
"1522 81 LINE",
"1191 111 LINE",
"1414 26 LINE",
"776 763 LINE",
"1255 1315 LINE",
"1117 1247 LINE",
"1370 1277 LINE",
"1370 1358 LINE",
"874 1358 LINE",
"874 1277 LINE",
"1107 1247 LINE",
"1036 1315 LINE",
"624 828 LINE SMOOTH",
"598 798 OFFCURVE",
"583 781 OFFCURVE",
"568 781 CURVE SMOOTH",
"479 781 LINE",
"479 589 LINE",
"568 589 LINE SMOOTH",
"583 589 OFFCURVE",
"611 555 OFFCURVE",
"639 521 CURVE SMOOTH",
"1037 26 LINE",
"1166 111 LINE",
"840 81 LINE",
"840 0 LINE"
);
},
{
closed = 1;
nodes = (
"541 40 LINE",
"541 1311 LINE",
"211 1311 LINE",
"211 40 LINE"
);
},
{
closed = 1;
nodes = (
"724 1277 LINE",
"724 1358 LINE",
"29 1358 LINE",
"29 1277 LINE",
"363 1247 LINE"
);
},
{
closed = 1;
nodes = (
"724 0 LINE",
"724 81 LINE",
"375 111 LINE",
"29 81 LINE",
"29 0 LINE"
);
}
);
userData = {
assembly = "PUSHB[ ]\011/* 5 values pushed */
64 44 2 8 74 
MPPEM[ ]\011/* MeasurePixelPerEm */
PUSHB[ ]\011/* 1 value pushed */
51 
LT[ ]\011/* LessThan */
IF[ ]\011/* If */
NPUSHB[ ]\011/* 37 values pushed */
0 10 0 3 0 10 3 105 13 11 9 3 7 7 8 97 12 1 8 8 68 77 6 4 2 3 0 0 1 95 5 1 1 1 69 1 78 
ELSE[ ]\011/* Else */
MPPEM[ ]\011/* MeasurePixelPerEm */
PUSHB[ ]\011/* 1 value pushed */
60 
LT[ ]\011/* LessThan */
IF[ ]\011/* If */
NPUSHB[ ]\011/* 34 values pushed */
0 10 0 3 0 10 3 105 6 4 2 3 0 5 1 1 0 1 99 13 11 9 3 7 7 8 97 12 1 8 8 68 7 78 
ELSE[ ]\011/* Else */
NPUSHB[ ]\011/* 43 values pushed */
12 1 8 13 11 9 3 7 10 8 7 105 0 10 0 3 0 10 3 105 6 4 2 3 0 1 1 0 89 6 4 2 3 0 0 1 95 5 1 1 0 1 79 
EIF[ ]\011/* EndIf */
EIF[ ]\011/* EndIf */
NPUSHB[ ]\011/* 22 values pushed */
68 66 63 62 58 57 53 51 48 46 20 19 34 66 19 21 34 66 19 14 11 31 
CALL[ ]\011/* CallFunction */";
};
width = 1544;
},
{
anchors = (
{
name = bottom;
position = "{650, 0}";
},
{
name = top;
position = "{650, 1358}";
}
);
layerId = "C40247AC-6B1A-4EFE-B804-1FED3C225331";
paths = (
{
closed = 1;
nodes = (
"1282 0 LINE",
"1282 44 LINE",
"1072 74 LINE",
"1173 31 LINE",
"560 739 LINE",
"1093 1339 LINE",
"1016 1284 LINE",
"1177 1314 LINE",
"1177 1358 LINE",
"814 1358 LINE",
"814 1314 LINE",
"1004 1284 LINE",
"1002 1339 LINE",
"545 808 LINE SMOOTH",
"528 789 OFFCURVE",
"452 704 OFFCURVE",
"411 704 CURVE SMOOTH",
"354 704 LINE",
"354 650 LINE",
"411 650 LINE SMOOTH",
"478 650 OFFCURVE",
"544 599 OFFCURVE",
"590 541 CURVE SMOOTH",
"1007 31 LINE",
"1062 74 LINE",
"781 44 LINE",
"781 0 LINE"
);
},
{
closed = 1;
nodes = (
"391 22 LINE",
"391 1325 LINE",
"282 1325 LINE",
"282 22 LINE"
);
},
{
closed = 1;
nodes = (
"591 1314 LINE",
"591 1358 LINE",
"81 1358 LINE",
"81 1314 LINE",
"334 1284 LINE"
);
},
{
closed = 1;
nodes = (
"591 0 LINE",
"591 44 LINE",
"340 74 LINE",
"81 44 LINE",
"81 0 LINE"
);
}
);
width = 1337;
},
{
anchors = (
{
name = bottom;
position = "{646, 0}";
},
{
name = top;
position = "{646, 1358}";
}
);
hints = (
{
horizontal = 1;
origin = "{3, 4}";
target = "{3, 3}";
type = TTStem;
stem = 2;
},
{
horizontal = 1;
origin = "{3, 4}";
target = "{0, 26}";
type = Align;
options = 4;
},
{
horizontal = 1;
origin = "{3, 3}";
target = "{0, 25}";
type = Align;
options = 4;
},
{
horizontal = 1;
origin = "{3, 3}";
target = "{0, 1}";
type = Align;
options = 4;
},
{
horizontal = 1;
origin = "{2, 2}";
target = "{2, 3}";
type = TTStem;
stem = 2;
},
{
horizontal = 1;
origin = "{2, 2}";
target = "{0, 9}";
type = Align;
options = 4;
},
{
horizontal = 1;
origin = "{2, 3}";
target = "{0, 10}";
type = Align;
options = 4;
},
{
horizontal = 1;
origin = "{2, 3}";
target = "{0, 7}";
type = Align;
options = 4;
},
{
horizontal = 1;
origin = "{0, 9}";
target = "{0, 10}";
other1 = "{0, 12}";
type = Interpolate;
options = 4;
},
{
horizontal = 1;
origin = "{0, 9}";
target = "{0, 10}";
other1 = "{0, 5}";
type = Interpolate;
options = 4;
},
{
horizontal = 1;
origin = "{1, 3}";
target = "{1, 2}";
other1 = "{0, 17}";
type = Interpolate;
},
{
horizontal = 1;
origin = "{0, 17}";
target = "{0, 18}";
type = TTStem;
},
{
origin = "{1, 3}";
type = Anchor;
},
{
origin = "{1, 3}";
target = "{1, 0}";
type = TTStem;
},
{
horizontal = 1;
origin = "{2, 2}";
type = Anchor;
},
{
horizontal = 1;
origin = "{3, 4}";
type = Anchor;
},
{
horizontal = 1;
origin = "{2, 3}";
target = "{2, 2}";
other1 = "{1, 2}";
type = Interpolate;
options = 4;
},
{
horizontal = 1;
origin = "{3, 4}";
target = "{3, 3}";
other1 = "{1, 3}";
type = Interpolate;
options = 4;
},
{
horizontal = 1;
origin = "{0, 26}";
target = "{0, 25}";
other1 = "{0, 23}";
type = Interpolate;
options = 4;
},
{
horizontal = 1;
origin = "{0, 26}";
target = "{0, 25}";
other1 = "{0, 3}";
type = Interpolate;
options = 4;
}
);
layerId = "56E89462-3A12-4850-914F-0D670F297A3A";
paths = (
{
closed = 1;
nodes = (
"1227 0 LINE",
"1227 44 LINE",
"1025 74 LINE",
"1100 34 LINE",
"533 735 LINE",
"1036 1343 LINE",
"970 1284 LINE",
"1132 1314 LINE",
"1132 1358 LINE",
"783 1358 LINE",
"783 1314 LINE",
"949 1284 LINE",
"951 1343 LINE",
"524 808 LINE SMOOTH",
"509 789 OFFCURVE",
"433 699 OFFCURVE",
"397 699 CURVE SMOOTH",
"332 699 LINE",
"332 655 LINE",
"397 655 LINE SMOOTH",
"456 655 OFFCURVE",
"526 600 OFFCURVE",
"571 541 CURVE SMOOTH",
"957 34 LINE",
"1020 74 LINE",
"753 44 LINE",
"753 0 LINE"
);
},
{
closed = 1;
nodes = (
"377 22 LINE",
"377 1329 LINE",
"278 1329 LINE",
"278 22 LINE"
);
},
{
closed = 1;
nodes = (
"578 1314 LINE",
"578 1358 LINE",
"78 1358 LINE",
"78 1314 LINE",
"328 1284 LINE"
);
},
{
closed = 1;
nodes = (
"578 0 LINE",
"578 44 LINE",
"332 74 LINE",
"78 44 LINE",
"78 0 LINE"
);
}
);
width = 1247;
},
{
anchors = (
{
name = bottom;
position = "{645, 0}";
},
{
name = top;
position = "{645, 1358}";
}
);
layerId = "D683B167-653D-4D52-BD41-B5BCAD6A6428";
paths = (
{
closed = 1;
nodes = (
"1256 0 LINE",
"1256 75 LINE",
"1002 105 LINE",
"1158 27 LINE",
"609 758 LINE",
"1032 1320 LINE",
"940 1253 LINE",
"1132 1283 LINE",
"1132 1358 LINE",
"734 1358 LINE",
"734 1283 LINE",
"929 1253 LINE",
"877 1320 LINE",
"514 824 LINE SMOOTH",
"488 789 OFFCURVE",
"469 767 OFFCURVE",
"455 767 CURVE SMOOTH",
"408 767 LINE",
"408 600 LINE",
"455 600 LINE SMOOTH",
"467 600 OFFCURVE",
"504 559 OFFCURVE",
"529 524 CURVE SMOOTH",
"879 27 LINE",
"984 105 LINE",
"705 75 LINE",
"705 0 LINE"
);
},
{
closed = 1;
nodes = (
"444 37 LINE",
"444 1314 LINE",
"181 1314 LINE",
"181 37 LINE"
);
},
{
closed = 1;
nodes = (
"595 1283 LINE",
"595 1358 LINE",
"49 1358 LINE",
"49 1283 LINE",
"313 1253 LINE"
);
},
{
closed = 1;
nodes = (
"595 0 LINE",
"595 75 LINE",
"321 105 LINE",
"49 75 LINE",
"49 0 LINE"
);
}
);
width = 1247;
}
);
leftMetricsKey = H;
note = K;
rightKerningGroup = K;
rightMetricsKey = A;
unicode = 004B;
},
{
glyphname = L;
lastChange = "2019-07-10 21:00:35 +0000";
layers = (
{
anchors = (
{
name = bottom;
position = "{771, 0}";
},
{
name = center;
position = "{405, 679}";
},
{
name = top;
position = "{413, 1358}";
},
{
name = topright;
position = "{946, 738}";
}
);
layerId = "6CE37295-6E30-426D-87AF-6FEE9061C297";
paths = (
{
closed = 1;
nodes = (
"523 40 LINE",
"523 1311 LINE",
"193 1311 LINE",
"193 40 LINE"
);
},
{
closed = 1;
nodes = (
"1309 0 LINE",
"1309 405 LINE",
"1216 405 LINE",
"1096 162 LINE SMOOTH",
"1071 111 OFFCURVE",
"1006 95 OFFCURVE",
"950 95 CURVE SMOOTH",
"207 95 LINE",
"207 0 LINE"
);
},
{
closed = 1;
nodes = (
"724 1277 LINE",
"724 1358 LINE",
"29 1358 LINE",
"29 1277 LINE",
"363 1247 LINE"
);
},
{
closed = 1;
nodes = (
"351 0 LINE",
"351 111 LINE",
"29 81 LINE",
"29 0 LINE"
);
}
);
userData = {
assembly = "NPUSHB[ ]\011/* 10 values pushed */
9 1 0 3 1 76 35 1 4 74 
MPPEM[ ]\011/* MeasurePixelPerEm */
PUSHB[ ]\011/* 1 value pushed */
51 
LT[ ]\011/* LessThan */
IF[ ]\011/* If */
NPUSHB[ ]\011/* 23 values pushed */
5 1 3 3 4 97 0 4 4 68 77 2 1 0 0 1 95 0 1 1 69 1 78 
ELSE[ ]\011/* Else */
MPPEM[ ]\011/* MeasurePixelPerEm */
PUSHB[ ]\011/* 1 value pushed */
60 
LT[ ]\011/* LessThan */
IF[ ]\011/* If */
NPUSHB[ ]\011/* 20 values pushed */
2 1 0 0 1 0 1 99 5 1 3 3 4 97 0 4 4 68 3 78 
ELSE[ ]\011/* Else */
NPUSHB[ ]\011/* 27 values pushed */
0 4 5 1 3 0 4 3 105 2 1 0 1 1 0 89 2 1 0 0 1 95 0 1 0 1 79 
EIF[ ]\011/* EndIf */
EIF[ ]\011/* EndIf */
NPUSHB[ ]\011/* 9 values pushed */
35 20 19 34 75 51 6 11 28 
CALL[ ]\011/* CallFunction */";
};
width = 1331;
},
{
anchors = (
{
name = bottom;
position = "{624, 0}";
},
{
name = center;
position = "{341, 679}";
},
{
name = top;
position = "{331, 1358}";
},
{
name = topright;
position = "{761, 832}";
}
);
guideLines = (
{
angle = 5.3725;
position = "{241, 59}";
}
);
layerId = "C40247AC-6B1A-4EFE-B804-1FED3C225331";
paths = (
{
closed = 1;
nodes = (
"391 22 LINE",
"391 1325 LINE",
"282 1325 LINE",
"282 22 LINE"
);
},
{
closed = 1;
nodes = (
"1234 0 LINE",
"1234 378 LINE",
"1210 378 LINE",
"1134 130 LINE SMOOTH",
"1122 87 OFFCURVE",
"1059 66 OFFCURVE",
"994 66 CURVE SMOOTH",
"282 66 LINE",
"282 0 LINE"
);
},
{
closed = 1;
nodes = (
"591 1314 LINE",
"591 1358 LINE",
"81 1358 LINE",
"81 1314 LINE",
"334 1284 LINE"
);
},
{
closed = 1;
nodes = (
"340 0 LINE",
"340 68 LINE",
"81 44 LINE",
"81 0 LINE"
);
}
);
width = 1289;
},
{
anchors = (
{
name = bottom;
position = "{619, 0}";
},
{
name = center;
position = "{327, 679}";
},
{
name = top;
position = "{326, 1358}";
},
{
name = topright;
position = "{708, 768}";
}
);
guideLines = (
{
angle = 185.5453;
position = "{233, 59}";
}
);
hints = (
{
horizontal = 1;
origin = "{3, 3}";
target = "{3, 2}";
type = TTStem;
stem = 2;
},
{
horizontal = 1;
origin = "{3, 3}";
target = "{1, 8}";
type = Align;
options = 4;
},
{
horizontal = 1;
origin = "{2, 2}";
target = "{2, 3}";
type = TTStem;
stem = 2;
},
{
horizontal = 1;
origin = "{2, 2}";
target = "{0, 2}";
type = Align;
options = 4;
},
{
horizontal = 1;
origin = "{2, 3}";
target = "{2, 0}";
type = Align;
options = 4;
},
{
origin = "{0, 3}";
type = Anchor;
},
{
origin = "{0, 3}";
target = "{0, 0}";
type = TTStem;
},
{
origin = "{rsb}";
target = "{1, 1}";
type = TTStem;
},
{
origin = "{1, 1}";
target = "{1, 2}";
type = TTStem;
options = 4;
},
{
horizontal = 1;
origin = "{2, 2}";
type = Anchor;
},
{
horizontal = 1;
origin = "{3, 3}";
type = Anchor;
},
{
horizontal = 1;
origin = "{3, 2}";
target = "{3, 3}";
other1 = "{0, 3}";
type = Interpolate;
options = 4;
},
{
horizontal = 1;
origin = "{2, 3}";
target = "{2, 2}";
other1 = "{0, 2}";
type = Interpolate;
options = 4;
},
{
horizontal = 1;
origin = "{1, 8}";
target = "{1, 7}";
type = TTStem;
stem = 2;
}
);
layerId = "56E89462-3A12-4850-914F-0D670F297A3A";
paths = (
{
closed = 1;
nodes = (
"377 22 LINE",
"377 1329 LINE",
"278 1329 LINE",
"278 22 LINE"
);
},
{
closed = 1;
nodes = (
"1167 0 LINE",
"1167 377 LINE",
"1136 377 LINE",
"1072 120 LINE SMOOTH",
"1057 58 OFFCURVE",
"1010 57 OFFCURVE",
"932 57 CURVE SMOOTH",
"278 57 LINE",
"278 0 LINE"
);
},
{
closed = 1;
nodes = (
"578 1314 LINE",
"578 1358 LINE",
"78 1358 LINE",
"78 1314 LINE",
"328 1284 LINE"
);
},
{
closed = 1;
nodes = (
"327 0 LINE",
"327 68 LINE",
"78 44 LINE",
"78 0 LINE"
);
}
);
width = 1187;
},
{
anchors = (
{
name = bottom;
position = "{638, 0}";
},
{
name = center;
position = "{343, 679}";
},
{
name = top;
position = "{353, 1358}";
},
{
name = topright;
position = "{836, 743}";
}
);
guideLines = (
{
angle = 185.5453;
position = "{254, 59}";
}
);
layerId = "D683B167-653D-4D52-BD41-B5BCAD6A6428";
paths = (
{
closed = 1;
nodes = (
"476 37 LINE",
"476 1314 LINE",
"213 1314 LINE",
"213 37 LINE"
);
},
{
closed = 1;
nodes = (
"1196 0 LINE",
"1196 400 LINE",
"1117 400 LINE",
"991 155 LINE SMOOTH",
"965 105 OFFCURVE",
"909 89 OFFCURVE",
"853 89 CURVE SMOOTH",
"221 89 LINE",
"221 0 LINE"
);
},
{
closed = 1;
nodes = (
"639 1283 LINE",
"639 1358 LINE",
"49 1358 LINE",
"49 1283 LINE",
"334 1253 LINE"
);
},
{
closed = 1;
nodes = (
"343 0 LINE",
"343 104 LINE",
"49 75 LINE",
"49 0 LINE"
);
}
);
width = 1187;
}
);
leftMetricsKey = H;
note = L;
rightKerningGroup = L;
rightMetricsKey = A;
unicode = 004C;
},
{
glyphname = M;
lastChange = "2019-07-10 21:00:35 +0000";
layers = (
{
anchors = (
{
name = bottom;
position = "{972, 0}";
},
{
name = top;
position = "{972, 1358}";
}
);
guideLines = (
{
position = "{489, 981}";
}
);
layerId = "6CE37295-6E30-426D-87AF-6FEE9061C297";
paths = (
{
closed = 1;
nodes = (
"1789 40 LINE",
"1753 1358 LINE",
"1519 1358 LINE",
"1457 1358 OFFCURVE",
"1418 1339 OFFCURVE",
"1398 1291 CURVE SMOOTH",
"978 279 LINE",
"1068 279 LINE",
"584 1285 LINE SMOOTH",
"558 1340 OFFCURVE",
"524 1358 OFFCURVE",
"458 1358 CURVE SMOOTH",
"99 1358 LINE",
"99 1277 LINE",
"230 1277 OFFCURVE",
"261 1239 OFFCURVE",
"366 1023 CURVE SMOOTH",
"855 21 LINE",
"1057 21 LINE",
"1526 1161 LINE",
"1431 1161 LINE",
"1459 40 LINE"
);
},
{
closed = 1;
nodes = (
"360 40 LINE",
"432 1289 LINE",
"262 1299 LINE",
"185 40 LINE"
);
},
{
closed = 1;
nodes = (
"525 0 LINE",
"525 81 LINE",
"283 111 LINE",
"26 81 LINE",
"26 0 LINE"
);
},
{
closed = 1;
nodes = (
"1954 0 LINE",
"1954 81 LINE",
"1618 111 LINE",
"1294 81 LINE",
"1294 0 LINE"
);
},
{
closed = 1;
nodes = (
"1918 1277 LINE",
"1918 1358 LINE",
"1621 1358 LINE",
"1621 1247 LINE"
);
}
);
userData = {
assembly = "MPPEM[ ]\011/* MeasurePixelPerEm */
PUSHB[ ]\011/* 1 value pushed */
34 
LT[ ]\011/* LessThan */
IF[ ]\011/* If */
NPUSHB[ ]\011/* 14 values pushed */
25 1 9 7 1 76 62 1 8 74 35 1 1 73 
ELSE[ ]\011/* Else */
NPUSHB[ ]\011/* 14 values pushed */
25 1 9 7 35 1 3 1 2 76 62 1 8 74 
EIF[ ]\011/* EndIf */
MPPEM[ ]\011/* MeasurePixelPerEm */
PUSHB[ ]\011/* 1 value pushed */
34 
LT[ ]\011/* LessThan */
IF[ ]\011/* If */
NPUSHB[ ]\011/* 36 values pushed */
0 9 7 0 7 9 0 128 11 1 7 7 8 97 10 1 8 8 68 77 6 4 2 3 0 0 1 97 5 3 2 1 1 69 1 78 
ELSE[ ]\011/* Else */
MPPEM[ ]\011/* MeasurePixelPerEm */
PUSHB[ ]\011/* 1 value pushed */
51 
LT[ ]\011/* LessThan */
IF[ ]\011/* If */
NPUSHB[ ]\011/* 40 values pushed */
0 9 7 0 7 9 0 128 11 1 7 7 8 97 10 1 8 8 68 77 6 4 2 3 0 0 1 97 5 1 1 1 69 77 0 3 3 69 3 78 
ELSE[ ]\011/* Else */
MPPEM[ ]\011/* MeasurePixelPerEm */
PUSHB[ ]\011/* 1 value pushed */
60 
LT[ ]\011/* LessThan */
IF[ ]\011/* If */
NPUSHB[ ]\011/* 38 values pushed */
0 9 7 0 7 9 0 128 6 4 2 3 0 5 1 1 3 0 1 105 11 1 7 7 8 97 10 1 8 8 68 77 0 3 3 69 3 78 
ELSE[ ]\011/* Else */
MPPEM[ ]\011/* MeasurePixelPerEm */
PUSHB[ ]\011/* 1 value pushed */
147 
LT[ ]\011/* LessThan */
IF[ ]\011/* If */
NPUSHB[ ]\011/* 36 values pushed */
0 9 7 0 7 9 0 128 10 1 8 11 1 7 9 8 7 105 6 4 2 3 0 5 1 1 3 0 1 105 0 3 3 69 3 78 
ELSE[ ]\011/* Else */
NPUSHB[ ]\011/* 41 values pushed */
0 9 7 0 7 9 0 128 0 8 10 7 8 87 0 10 11 1 7 9 10 7 105 6 4 2 3 0 5 1 1 3 0 1 105 0 3 3 69 3 78 
EIF[ ]\011/* EndIf */
EIF[ ]\011/* EndIf */
EIF[ ]\011/* EndIf */
EIF[ ]\011/* EndIf */
NPUSHB[ ]\011/* 18 values pushed */
66 64 61 58 55 54 82 20 35 50 24 23 34 66 17 12 11 31 
CALL[ ]\011/* CallFunction */";
};
width = 1980;
},
{
anchors = (
{
name = bottom;
position = "{871, 0}";
},
{
name = top;
position = "{871, 1358}";
}
);
layerId = "C40247AC-6B1A-4EFE-B804-1FED3C225331";
paths = (
{
closed = 1;
nodes = (
"1601 22 LINE",
"1563 1358 LINE",
"1533 1358 LINE",
"1466 1358 OFFCURVE",
"1424 1339 OFFCURVE",
"1403 1291 CURVE SMOOTH",
"953 279 LINE",
"966 279 LINE",
"504 1285 LINE SMOOTH",
"478 1340 OFFCURVE",
"440 1358 OFFCURVE",
"369 1358 CURVE SMOOTH",
"161 1358 LINE",
"161 1304 LINE",
"271 1304 OFFCURVE",
"376 1269 OFFCURVE",
"474 1063 CURVE SMOOTH",
"924 95 LINE",
"942 95 LINE",
"1461 1275 LINE",
"1455 1275 LINE",
"1488 22 LINE"
);
},
{
closed = 1;
nodes = (
"323 22 LINE",
"402 1289 LINE",
"326 1299 LINE",
"242 22 LINE"
);
},
{
closed = 1;
nodes = (
"512 0 LINE",
"512 44 LINE",
"292 74 LINE",
"73 44 LINE",
"73 0 LINE"
);
},
{
closed = 1;
nodes = (
"1778 0 LINE",
"1778 44 LINE",
"1551 74 LINE",
"1314 44 LINE",
"1314 0 LINE"
);
},
{
closed = 1;
nodes = (
"1739 1304 LINE",
"1739 1358 LINE",
"1547 1358 LINE",
"1547 1274 LINE"
);
}
);
width = 1852;
},
{
anchors = (
{
name = bottom;
position = "{881, 0}";
},
{
name = top;
position = "{881, 1358}";
}
);
hints = (
{
horizontal = 1;
origin = "{2, 4}";
target = "{2, 3}";
type = TTStem;
stem = 2;
},
{
horizontal = 1;
origin = "{2, 4}";
target = "{3, 4}";
type = Align;
options = 4;
},
{
horizontal = 1;
origin = "{2, 3}";
target = "{3, 3}";
type = Align;
options = 4;
},
{
horizontal = 1;
origin = "{0, 12}";
target = "{0, 13}";
type = TTStem;
stem = 2;
},
{
horizontal = 1;
origin = "{4, 1}";
target = "{4, 0}";
type = TTStem;
stem = 2;
},
{
origin = "{0, 0}";
type = Anchor;
},
{
origin = "{0, 0}";
target = "{0, 21}";
type = TTStem;
},
{
origin = "{1, 3}";
type = Anchor;
},
{
origin = "{1, 3}";
target = "{1, 0}";
type = TTStem;
options = 4;
},
{
horizontal = 1;
origin = "{0, 12}";
type = Anchor;
},
{
horizontal = 1;
origin = "{2, 4}";
type = Anchor;
},
{
horizontal = 1;
origin = "{2, 3}";
target = "{2, 4}";
other1 = "{1, 3}";
type = Interpolate;
options = 4;
},
{
horizontal = 1;
origin = "{1, 3}";
target = "{0, 21}";
type = Align;
options = 4;
},
{
horizontal = 1;
origin = "{0, 12}";
target = "{4, 1}";
type = Align;
options = 4;
}
);
layerId = "56E89462-3A12-4850-914F-0D670F297A3A";
paths = (
{
closed = 1;
nodes = (
"1491 22 LINE",
"1455 1358 LINE",
"1431 1358 LINE",
"1369 1358 OFFCURVE",
"1330 1339 OFFCURVE",
"1310 1291 CURVE SMOOTH",
"890 279 LINE",
"894 279 LINE",
"463 1285 LINE SMOOTH",
"439 1340 OFFCURVE",
"403 1358 OFFCURVE",
"337 1358 CURVE SMOOTH",
"140 1358 LINE",
"140 1314 LINE",
"299 1314 OFFCURVE",
"386 1199 OFFCURVE",
"445 1063 CURVE SMOOTH",
"864 95 LINE",
"879 95 LINE",
"1363 1274 LINE",
"1359 1274 LINE",
"1390 22 LINE"
);
},
{
closed = 1;
nodes = (
"302 22 LINE",
"376 1289 LINE",
"306 1299 LINE",
"227 22 LINE"
);
},
{
closed = 1;
nodes = (
"479 0 LINE",
"479 44 LINE",
"278 74 LINE",
"70 44 LINE",
"70 0 LINE"
);
},
{
closed = 1;
nodes = (
"1655 0 LINE",
"1655 44 LINE",
"1447 74 LINE",
"1227 44 LINE",
"1227 0 LINE"
);
},
{
closed = 1;
nodes = (
"1619 1314 LINE",
"1619 1358 LINE",
"1446 1358 LINE",
"1446 1284 LINE"
);
}
);
width = 1726;
},
{
anchors = (
{
name = bottom;
position = "{863, 0}";
},
{
name = top;
position = "{863, 1358}";
}
);
layerId = "D683B167-653D-4D52-BD41-B5BCAD6A6428";
paths = (
{
closed = 1;
nodes = (
"1538 37 LINE",
"1505 1358 LINE",
"1363 1358 LINE",
"1305 1358 OFFCURVE",
"1270 1338 OFFCURVE",
"1252 1291 CURVE SMOOTH",
"869 279 LINE",
"949 279 LINE",
"516 1285 LINE SMOOTH",
"489 1349 OFFCURVE",
"449 1358 OFFCURVE",
"401 1358 CURVE SMOOTH",
"111 1358 LINE",
"111 1283 LINE",
"239 1283 OFFCURVE",
"272 1208 OFFCURVE",
"350 1030 CURVE SMOOTH",
"787 33 LINE",
"913 33 LINE",
"1342 1180 LINE",
"1261 1180 LINE",
"1288 37 LINE"
);
},
{
closed = 1;
nodes = (
"318 37 LINE",
"385 1289 LINE",
"259 1299 LINE",
"189 37 LINE"
);
},
{
closed = 1;
nodes = (
"478 0 LINE",
"478 75 LINE",
"264 105 LINE",
"44 75 LINE",
"44 0 LINE"
);
},
{
closed = 1;
nodes = (
"1682 0 LINE",
"1682 75 LINE",
"1413 105 LINE",
"1145 75 LINE",
"1145 0 LINE"
);
},
{
closed = 1;
nodes = (
"1649 1283 LINE",
"1649 1358 LINE",
"1397 1358 LINE",
"1397 1253 LINE"
);
}
);
width = 1726;
}
);
leftMetricsKey = "=H*0.9";
note = M;
rightMetricsKey = "=H*0.9";
unicode = 004D;
},
{
glyphname = N;
lastChange = "2019-07-10 21:00:35 +0000";
layers = (
{
anchors = (
{
name = bottom;
position = "{761, 0}";
},
{
name = top;
position = "{761, 1358}";
}
);
layerId = "6CE37295-6E30-426D-87AF-6FEE9061C297";
paths = (
{
closed = 1;
nodes = (
"1374 -21 LINE",
"1374 1311 LINE",
"1199 1311 LINE",
"1199 243 LINE",
"1344 344 LINE",
"493 1309 LINE SMOOTH",
"459 1348 OFFCURVE",
"413 1358 OFFCURVE",
"355 1358 CURVE SMOOTH",
"43 1358 LINE",
"43 1277 LINE",
"142 1277 OFFCURVE",
"205 1204 OFFCURVE",
"307 1085 CURVE SMOOTH",
"1261 -21 LINE"
);
},
{
closed = 1;
nodes = (
"375 40 LINE",
"375 1296 LINE",
"200 1296 LINE",
"200 40 LINE"
);
},
{
closed = 1;
nodes = (
"544 0 LINE",
"544 81 LINE",
"290 111 LINE",
"23 81 LINE",
"23 0 LINE"
);
},
{
closed = 1;
nodes = (
"1520 1277 LINE",
"1520 1358 LINE",
"1018 1358 LINE",
"1018 1277 LINE",
"1268 1247 LINE"
);
}
);
userData = {
assembly = "PUSHB[ ]\011/* 6 values pushed */
9 1 6 4 1 76 
MPPEM[ ]\011/* MeasurePixelPerEm */
PUSHB[ ]\011/* 1 value pushed */
51 
LT[ ]\011/* LessThan */
IF[ ]\011/* If */
NPUSHB[ ]\011/* 38 values pushed */
0 6 4 1 4 6 1 128 9 7 2 4 4 5 95 8 1 5 5 68 77 3 1 1 1 2 95 0 2 2 69 77 0 0 0 69 0 78 
ELSE[ ]\011/* Else */
MPPEM[ ]\011/* MeasurePixelPerEm */
PUSHB[ ]\011/* 1 value pushed */
60 
LT[ ]\011/* LessThan */
IF[ ]\011/* If */
NPUSHB[ ]\011/* 36 values pushed */
0 6 4 1 4 6 1 128 3 1 1 0 2 0 1 2 103 9 7 2 4 4 5 95 8 1 5 5 68 77 0 0 0 69 0 78 
ELSE[ ]\011/* Else */
NPUSHB[ ]\011/* 34 values pushed */
0 6 4 1 4 6 1 128 8 1 5 9 7 2 4 6 5 4 105 3 1 1 0 2 0 1 2 103 0 0 0 69 0 78 
EIF[ ]\011/* EndIf */
EIF[ ]\011/* EndIf */
NPUSHB[ ]\011/* 14 values pushed */
55 53 82 19 37 66 19 34 52 24 33 10 11 31 
CALL[ ]\011/* CallFunction */";
};
width = 1540;
},
{
anchors = (
{
name = bottom;
position = "{733, 0}";
},
{
name = top;
position = "{793, 1358}";
}
);
layerId = "C40247AC-6B1A-4EFE-B804-1FED3C225331";
paths = (
{
closed = 1;
nodes = (
"1414 -21 LINE",
"1414 1325 LINE",
"1357 1325 LINE",
"1357 216 LINE",
"1376 215 LINE",
"345 1309 LINE SMOOTH",
"308 1349 OFFCURVE",
"259 1358 OFFCURVE",
"197 1358 CURVE SMOOTH",
"65 1358 LINE",
"65 1314 LINE",
"166 1314 OFFCURVE",
"238 1239 OFFCURVE",
"347 1121 CURVE SMOOTH",
"1401 -21 LINE"
);
},
{
closed = 1;
nodes = (
"310 22 LINE",
"310 1293 LINE",
"254 1293 LINE",
"254 22 LINE"
);
},
{
closed = 1;
nodes = (
"491 0 LINE",
"491 44 LINE",
"288 74 LINE",
"65 44 LINE",
"65 0 LINE"
);
},
{
closed = 1;
nodes = (
"1570 1314 LINE",
"1570 1358 LINE",
"1163 1358 LINE",
"1163 1314 LINE",
"1385 1284 LINE"
);
}
);
width = 1627;
},
{
anchors = (
{
name = bottom;
position = "{765, 0}";
},
{
name = top;
position = "{765, 1358}";
}
);
hints = (
{
horizontal = 1;
origin = "{2, 4}";
target = "{2, 3}";
type = TTStem;
stem = 2;
},
{
horizontal = 1;
origin = "{2, 3}";
target = "{2, 1}";
type = Align;
options = 4;
},
{
horizontal = 1;
origin = "{0, 14}";
type = Anchor;
stem = 8;
options = 1;
},
{
horizontal = 1;
origin = "{0, 9}";
target = "{0, 10}";
type = TTStem;
stem = 2;
},
{
origin = "{1, 3}";
type = Anchor;
},
{
origin = "{0, 1}";
type = Anchor;
},
{
origin = "{0, 1}";
target = "{0, 2}";
type = TTStem;
},
{
origin = "{1, 3}";
target = "{1, 0}";
type = TTStem;
},
{
horizontal = 1;
origin = "{2, 4}";
type = Anchor;
},
{
horizontal = 1;
origin = "{0, 9}";
type = Anchor;
},
{
horizontal = 1;
origin = "{0, 9}";
target = "{3, 2}";
type = Align;
options = 4;
},
{
horizontal = 1;
origin = "{0, 10}";
target = "{3, 3}";
type = Align;
options = 4;
},
{
horizontal = 1;
origin = "{2, 3}";
target = "{2, 4}";
other1 = "{1, 3}";
type = Interpolate;
options = 4;
},
{
horizontal = 1;
origin = "{3, 2}";
target = "{3, 3}";
other1 = "{0, 2}";
type = Interpolate;
options = 4;
}
);
layerId = "56E89462-3A12-4850-914F-0D670F297A3A";
paths = (
{
closed = 1;
nodes = (
"1320 -21 LINE",
"1320 1329 LINE",
"1269 1329 LINE",
"1269 215 LINE",
"1269 220 LINE",
"309 1309 LINE SMOOTH",
"274 1348 OFFCURVE",
"229 1358 OFFCURVE",
"171 1358 CURVE SMOOTH",
"62 1358 LINE",
"62 1314 LINE",
"159 1314 OFFCURVE",
"224 1239 OFFCURVE",
"326 1121 CURVE SMOOTH",
"1310 -21 LINE"
);
},
{
closed = 1;
nodes = (
"290 22 LINE",
"290 1283 LINE",
"239 1283 LINE",
"239 22 LINE"
);
},
{
closed = 1;
nodes = (
"459 0 LINE",
"459 44 LINE",
"265 74 LINE",
"62 44 LINE",
"62 0 LINE"
);
},
{
closed = 1;
nodes = (
"1466 1314 LINE",
"1466 1358 LINE",
"1088 1358 LINE",
"1088 1314 LINE",
"1294 1284 LINE"
);
}
);
width = 1521;
},
{
anchors = (
{
name = bottom;
position = "{755, 0}";
},
{
name = top;
position = "{755, 1358}";
}
);
guideLines = (
{
position = "{1054, 788}";
showMeasurement = 1;
}
);
layerId = "D683B167-653D-4D52-BD41-B5BCAD6A6428";
paths = (
{
closed = 1;
nodes = (
"1341 -21 LINE",
"1341 1314 LINE",
"1204 1314 LINE",
"1204 238 LINE",
"1272 365 LINE",
"440 1309 LINE SMOOTH",
"406 1348 OFFCURVE",
"357 1358 OFFCURVE",
"303 1358 CURVE SMOOTH",
"39 1358 LINE",
"39 1283 LINE",
"135 1283 OFFCURVE",
"199 1212 OFFCURVE",
"303 1091 CURVE SMOOTH",
"1262 -21 LINE"
);
},
{
closed = 1;
nodes = (
"353 37 LINE",
"353 1294 LINE",
"216 1294 LINE",
"216 37 LINE"
);
},
{
closed = 1;
nodes = (
"523 0 LINE",
"523 75 LINE",
"288 105 LINE",
"39 75 LINE",
"39 0 LINE"
);
},
{
closed = 1;
nodes = (
"1487 1283 LINE",
"1487 1358 LINE",
"1023 1358 LINE",
"1023 1283 LINE",
"1265 1253 LINE"
);
}
);
width = 1521;
}
);
leftMetricsKey = "=H*0.8";
note = N;
rightMetricsKey = "=H*0.7";
unicode = 004E;
},
{
glyphname = Eng;
lastChange = "2019-07-10 21:00:35 +0000";
layers = (
{
anchors = (
{
name = bottom;
position = "{752, 0}";
},
{
name = top;
position = "{752, 1358}";
}
);
layerId = "6CE37295-6E30-426D-87AF-6FEE9061C297";
paths = (
{
closed = 1;
nodes = (
"1080 -518 OFFCURVE",
"1203 -456 OFFCURVE",
"1287 -327 CURVE SMOOTH",
"1341 -244 OFFCURVE",
"1349 -179 OFFCURVE",
"1349 53 CURVE SMOOTH",
"1349 1311 LINE",
"1177 1311 LINE",
"1177 386 LINE",
"1235 391 LINE",
"479 1296 LINE SMOOTH",
"459 1320 OFFCURVE",
"422 1358 OFFCURVE",
"323 1358 CURVE SMOOTH",
"23 1358 LINE",
"23 1265 LINE",
"116 1265 OFFCURVE",
"132 1261 OFFCURVE",
"250 1123 CURVE SMOOTH",
"1178 38 LINE",
"1178 -95 LINE SMOOTH",
"1178 -220 OFFCURVE",
"1146 -376 OFFCURVE",
"1074 -376 CURVE SMOOTH",
"1030 -376 OFFCURVE",
"1014 -364 OFFCURVE",
"989 -340 CURVE SMOOTH",
"964 -316 OFFCURVE",
"934 -304 OFFCURVE",
"898 -304 CURVE SMOOTH",
"824 -304 OFFCURVE",
"795 -348 OFFCURVE",
"795 -399 CURVE SMOOTH",
"795 -465 OFFCURVE",
"849 -518 OFFCURVE",
"931 -518 CURVE SMOOTH"
);
},
{
closed = 1;
nodes = (
"556 0 LINE",
"556 81 LINE",
"289 111 LINE",
"37 81 LINE",
"37 0 LINE"
);
},
{
closed = 1;
nodes = (
"377 40 LINE",
"377 1265 LINE",
"202 1265 LINE",
"202 40 LINE"
);
},
{
closed = 1;
nodes = (
"1493 1277 LINE",
"1493 1358 LINE",
"1016 1358 LINE",
"1016 1277 LINE",
"1268 1247 LINE"
);
}
);
width = 1513;
},
{
anchors = (
{
name = bottom;
position = "{741, 0}";
},
{
name = top;
position = "{741, 1358}";
}
);
layerId = "C40247AC-6B1A-4EFE-B804-1FED3C225331";
paths = (
{
closed = 1;
nodes = (
"1071 -518 OFFCURVE",
"1159 -426 OFFCURVE",
"1211 -307 CURVE SMOOTH",
"1267 -179 OFFCURVE",
"1268 -44 OFFCURVE",
"1268 128 CURVE SMOOTH",
"1268 1325 LINE",
"1212 1325 LINE",
"1212 197 LINE",
"1248 200 LINE",
"363 1310 LINE SMOOTH",
"328 1353 OFFCURVE",
"275 1358 OFFCURVE",
"221 1358 CURVE SMOOTH",
"65 1358 LINE",
"65 1293 LINE",
"207 1293 OFFCURVE",
"223 1290 OFFCURVE",
"310 1180 CURVE SMOOTH",
"1206 44 LINE",
"1206 -78 LINE SMOOTH",
"1206 -296 OFFCURVE",
"1090 -443 OFFCURVE",
"1019 -443 CURVE SMOOTH",
"1009 -443 OFFCURVE",
"989 -431 OFFCURVE",
"963 -407 CURVE SMOOTH",
"936 -382 OFFCURVE",
"909 -370 OFFCURVE",
"881 -370 CURVE SMOOTH",
"836 -370 OFFCURVE",
"813 -389 OFFCURVE",
"813 -431 CURVE SMOOTH",
"813 -482 OFFCURVE",
"854 -518 OFFCURVE",
"914 -518 CURVE SMOOTH"
);
},
{
closed = 1;
nodes = (
"504 0 LINE",
"504 44 LINE",
"296 74 LINE",
"87 44 LINE",
"87 0 LINE"
);
},
{
closed = 1;
nodes = (
"321 22 LINE",
"321 1293 LINE",
"265 1293 LINE",
"265 22 LINE"
);
},
{
closed = 1;
nodes = (
"1415 1314 LINE",
"1415 1358 LINE",
"1029 1358 LINE",
"1029 1314 LINE",
"1241 1284 LINE"
);
}
);
width = 1472;
},
{
anchors = (
{
name = bottom;
position = "{698, 0}";
},
{
name = top;
position = "{698, 1358}";
}
);
hints = (
{
horizontal = 1;
origin = "{1, 4}";
target = "{1, 3}";
type = TTStem;
stem = 2;
},
{
horizontal = 1;
origin = "{1, 3}";
target = "{1, 1}";
type = Align;
options = 4;
},
{
horizontal = 1;
origin = "{0, 14}";
target = "{0, 15}";
type = TTStem;
stem = 2;
},
{
horizontal = 1;
origin = "{0, 35}";
type = Anchor;
},
{
horizontal = 1;
origin = "{0, 35}";
target = "{0, 29}";
type = TTStem;
},
{
origin = "{2, 3}";
type = Anchor;
},
{
origin = "{2, 3}";
target = "{2, 0}";
type = TTStem;
},
{
origin = "{0, 6}";
type = Anchor;
},
{
origin = "{0, 6}";
target = "{0, 7}";
type = TTStem;
options = 4;
},
{
origin = "{0, 19}";
target = "{0, 7}";
type = Align;
options = 4;
},
{
horizontal = 1;
origin = "{0, 14}";
target = "{3, 2}";
type = Align;
options = 4;
},
{
horizontal = 1;
origin = "{0, 15}";
target = "{3, 3}";
type = Align;
options = 4;
},
{
horizontal = 1;
origin = "{0, 14}";
type = Anchor;
},
{
horizontal = 1;
origin = "{1, 4}";
type = Anchor;
},
{
horizontal = 1;
origin = "{1, 3}";
target = "{1, 4}";
other1 = "{2, 3}";
type = Interpolate;
options = 4;
},
{
horizontal = 1;
origin = "{3, 2}";
target = "{3, 3}";
other1 = "{0, 7}";
type = Interpolate;
options = 4;
}
);
layerId = "56E89462-3A12-4850-914F-0D670F297A3A";
paths = (
{
closed = 1;
nodes = (
"1007 -518 OFFCURVE",
"1097 -427 OFFCURVE",
"1144 -307 CURVE SMOOTH",
"1195 -178 OFFCURVE",
"1198 -43 OFFCURVE",
"1198 129 CURVE SMOOTH",
"1198 1329 LINE",
"1146 1329 LINE",
"1146 175 LINE",
"1172 210 LINE",
"352 1310 LINE SMOOTH",
"319 1355 OFFCURVE",
"270 1358 OFFCURVE",
"217 1358 CURVE SMOOTH",
"62 1358 LINE",
"62 1305 LINE",
"182 1305 OFFCURVE",
"226 1289 OFFCURVE",
"353 1116 CURVE SMOOTH",
"1141 44 LINE",
"1141 -168 LINE SMOOTH",
"1141 -297 OFFCURVE",
"1032 -443 OFFCURVE",
"965 -443 CURVE SMOOTH",
"956 -443 OFFCURVE",
"935 -431 OFFCURVE",
"909 -407 CURVE SMOOTH",
"881 -382 OFFCURVE",
"855 -370 OFFCURVE",
"826 -370 CURVE SMOOTH",
"782 -370 OFFCURVE",
"759 -390 OFFCURVE",
"759 -431 CURVE SMOOTH",
"759 -482 OFFCURVE",
"799 -518 OFFCURVE",
"859 -518 CURVE SMOOTH"
);
},
{
closed = 1;
nodes = (
"484 0 LINE",
"484 44 LINE",
"289 74 LINE",
"84 44 LINE",
"84 0 LINE"
);
},
{
closed = 1;
nodes = (
"314 22 LINE",
"314 1305 LINE",
"262 1305 LINE",
"262 22 LINE"
);
},
{
closed = 1;
nodes = (
"1345 1314 LINE",
"1345 1358 LINE",
"963 1358 LINE",
"963 1314 LINE",
"1172 1284 LINE"
);
}
);
width = 1400;
},
{
anchors = (
{
name = bottom;
position = "{705, 0}";
},
{
name = top;
position = "{705, 1358}";
}
);
guideLines = (
{
position = "{1054, 788}";
showMeasurement = 1;
}
);
layerId = "D683B167-653D-4D52-BD41-B5BCAD6A6428";
paths = (
{
closed = 1;
nodes = (
"1003 -518 OFFCURVE",
"1105 -453 OFFCURVE",
"1175 -327 CURVE SMOOTH",
"1232 -225 OFFCURVE",
"1232 -140 OFFCURVE",
"1232 66 CURVE SMOOTH",
"1232 1314 LINE",
"1095 1314 LINE",
"1095 351 LINE",
"1180 361 LINE",
"466 1299 LINE SMOOTH",
"442 1331 OFFCURVE",
"400 1358 OFFCURVE",
"323 1358 CURVE SMOOTH",
"39 1358 LINE",
"39 1272 LINE",
"141 1272 OFFCURVE",
"165 1244 OFFCURVE",
"260 1122 CURVE SMOOTH",
"1105 39 LINE",
"1105 -107 LINE SMOOTH",
"1105 -236 OFFCURVE",
"1062 -387 OFFCURVE",
"997 -387 CURVE SMOOTH",
"961 -387 OFFCURVE",
"945 -375 OFFCURVE",
"922 -351 CURVE SMOOTH",
"899 -327 OFFCURVE",
"870 -315 OFFCURVE",
"839 -315 CURVE SMOOTH",
"775 -315 OFFCURVE",
"748 -356 OFFCURVE",
"748 -404 CURVE SMOOTH",
"748 -467 OFFCURVE",
"797 -518 OFFCURVE",
"870 -518 CURVE SMOOTH"
);
},
{
closed = 1;
nodes = (
"488 0 LINE",
"488 75 LINE",
"273 105 LINE",
"53 75 LINE",
"53 0 LINE"
);
},
{
closed = 1;
nodes = (
"342 37 LINE",
"342 1272 LINE",
"205 1272 LINE",
"205 37 LINE"
);
},
{
closed = 1;
nodes = (
"1366 1283 LINE",
"1366 1358 LINE",
"952 1358 LINE",
"952 1283 LINE",
"1172 1253 LINE"
);
}
);
width = 1400;
}
);
leftMetricsKey = N;
rightMetricsKey = N;
unicode = 014A;
},
{
glyphname = O;
lastChange = "2019-07-10 21:00:35 +0000";
layers = (
{
anchors = (
{
name = bottom;
position = "{799, 0}";
},
{
name = center;
position = "{799, 655}";
},
{
name = ogonek;
position = "{909, 1}";
},
{
name = top;
position = "{764, 1358}";
},
{
name = topleft;
position = "{47, 1358}";
},
{
name = topright;
position = "{1550, 1358}";
}
);
layerId = "6CE37295-6E30-426D-87AF-6FEE9061C297";
paths = (
{
closed = 1;
nodes = (
"1183 -27 OFFCURVE",
"1526 264 OFFCURVE",
"1526 673 CURVE SMOOTH",
"1526 1074 OFFCURVE",
"1197 1384 OFFCURVE",
"781 1384 CURVE SMOOTH",
"371 1384 OFFCURVE",
"23 1086 OFFCURVE",
"23 659 CURVE SMOOTH",
"23 245 OFFCURVE",
"352 -27 OFFCURVE",
"761 -27 CURVE SMOOTH"
);
},
{
closed = 1;
nodes = (
"558 73 OFFCURVE",
"423 345 OFFCURVE",
"423 719 CURVE SMOOTH",
"423 1054 OFFCURVE",
"591 1291 OFFCURVE",
"774 1291 CURVE SMOOTH",
"978 1291 OFFCURVE",
"1126 982 OFFCURVE",
"1126 617 CURVE SMOOTH",
"1126 297 OFFCURVE",
"982 73 OFFCURVE",
"790 73 CURVE SMOOTH"
);
}
);
userData = {
assembly = "MPPEM[ ]\011/* MeasurePixelPerEm */
PUSHB[ ]\011/* 1 value pushed */
60 
LT[ ]\011/* LessThan */
IF[ ]\011/* If */
NPUSHB[ ]\011/* 21 values pushed */
0 2 2 1 97 0 1 1 74 77 0 3 3 0 97 0 0 0 75 0 78 
ELSE[ ]\011/* Else */
NPUSHB[ ]\011/* 19 values pushed */
0 1 0 2 3 1 2 105 0 3 3 0 97 0 0 0 75 0 78 
EIF[ ]\011/* EndIf */
PUSHB[ ]\011/* 7 values pushed */
38 38 38 35 4 11 26 
CALL[ ]\011/* CallFunction */";
};
width = 1549;
},
{
anchors = (
{
name = bottom;
position = "{757, 0}";
},
{
name = center;
position = "{757, 682}";
},
{
name = ogonek;
position = "{873, -7}";
},
{
name = top;
position = "{762, 1358}";
},
{
name = topleft;
position = "{47, 1358}";
},
{
name = topright;
position = "{1406, 1358}";
}
);
layerId = "C40247AC-6B1A-4EFE-B804-1FED3C225331";
paths = (
{
closed = 1;
nodes = (
"1205 -27 OFFCURVE",
"1431 322 OFFCURVE",
"1431 677 CURVE SMOOTH",
"1431 1066 OFFCURVE",
"1155 1385 OFFCURVE",
"779 1385 CURVE SMOOTH",
"392 1385 OFFCURVE",
"130 1046 OFFCURVE",
"130 660 CURVE SMOOTH",
"130 298 OFFCURVE",
"369 -27 OFFCURVE",
"779 -27 CURVE SMOOTH"
);
},
{
closed = 1;
nodes = (
"484 39 OFFCURVE",
"245 343 OFFCURVE",
"245 710 CURVE SMOOTH",
"245 1049 OFFCURVE",
"486 1319 OFFCURVE",
"771 1319 CURVE SMOOTH",
"1073 1319 OFFCURVE",
"1316 1020 OFFCURVE",
"1316 645 CURVE SMOOTH",
"1316 313 OFFCURVE",
"1090 39 OFFCURVE",
"793 39 CURVE SMOOTH"
);
}
);
width = 1561;
},
{
anchors = (
{
name = bottom;
position = "{656, 0}";
},
{
name = center;
position = "{656, 683}";
},
{
name = ogonek;
position = "{764, -6}";
},
{
name = top;
position = "{661, 1358}";
},
{
name = topleft;
position = "{-24, 1358}";
},
{
name = topright;
position = "{1335, 1358}";
}
);
hints = (
{
horizontal = 1;
origin = "{0, 11}";
target = "{1, 11}";
type = TTStem;
options = 4;
},
{
horizontal = 1;
origin = "{0, 5}";
target = "{1, 5}";
type = TTStem;
options = 4;
},
{
origin = "{0, 8}";
type = Anchor;
},
{
origin = "{0, 8}";
target = "{1, 2}";
type = TTStem;
options = 4;
},
{
origin = "{0, 2}";
type = Anchor;
},
{
origin = "{0, 2}";
target = "{1, 8}";
type = TTStem;
options = 4;
},
{
origin = "{rsb}";
target = "{0, 2}";
type = TTStem;
},
{
horizontal = 1;
origin = "{0, 5}";
type = Anchor;
},
{
horizontal = 1;
origin = "{0, 11}";
type = Anchor;
}
);
layerId = "56E89462-3A12-4850-914F-0D670F297A3A";
paths = (
{
closed = 1;
nodes = (
"1061 -27 OFFCURVE",
"1269 323 OFFCURVE",
"1269 678 CURVE SMOOTH",
"1269 1067 OFFCURVE",
"1015 1385 OFFCURVE",
"662 1385 CURVE SMOOTH",
"279 1385 OFFCURVE",
"64 1009 OFFCURVE",
"64 659 CURVE SMOOTH",
"64 297 OFFCURVE",
"284 -27 OFFCURVE",
"666 -27 CURVE SMOOTH"
);
},
{
closed = 1;
nodes = (
"386 30 OFFCURVE",
"175 323 OFFCURVE",
"175 709 CURVE SMOOTH",
"175 1064 OFFCURVE",
"387 1328 OFFCURVE",
"660 1328 CURVE SMOOTH",
"947 1328 OFFCURVE",
"1160 1035 OFFCURVE",
"1160 645 CURVE SMOOTH",
"1160 297 OFFCURVE",
"959 30 OFFCURVE",
"678 30 CURVE SMOOTH"
);
}
);
width = 1334;
},
{
anchors = (
{
name = bottom;
position = "{657, 0}";
},
{
name = center;
position = "{665, 666}";
},
{
name = ogonek;
position = "{779, 0}";
},
{
name = top;
position = "{658, 1358}";
},
{
name = topleft;
position = "{35, 1358}";
},
{
name = topright;
position = "{1330, 1358}";
}
);
guideLines = (
{
angle = 270;
position = "{1303, 673}";
}
);
layerId = "D683B167-653D-4D52-BD41-B5BCAD6A6428";
paths = (
{
closed = 1;
nodes = (
"1021 -27 OFFCURVE",
"1303 274 OFFCURVE",
"1303 674 CURVE SMOOTH",
"1303 1072 OFFCURVE",
"1025 1384 OFFCURVE",
"671 1384 CURVE SMOOTH",
"317 1384 OFFCURVE",
"30 1073 OFFCURVE",
"30 659 CURVE SMOOTH",
"30 254 OFFCURVE",
"304 -27 OFFCURVE",
"656 -27 CURVE SMOOTH"
);
},
{
closed = 1;
nodes = (
"473 66 OFFCURVE",
"347 342 OFFCURVE",
"347 717 CURVE SMOOTH",
"347 1054 OFFCURVE",
"497 1297 OFFCURVE",
"665 1297 CURVE SMOOTH",
"850 1297 OFFCURVE",
"986 990 OFFCURVE",
"986 622 CURVE SMOOTH",
"986 297 OFFCURVE",
"854 66 OFFCURVE",
"680 66 CURVE SMOOTH"
);
}
);
width = 1334;
}
);
leftKerningGroup = C;
note = O;
rightKerningGroup = O;
unicode = 004F;
},
{
glyphname = OE;
lastChange = "2019-07-10 21:00:35 +0000";
layers = (
{
anchors = (
{
name = bottom;
position = "{1069, 0}";
},
{
name = top;
position = "{1069, 1358}";
}
);
layerId = "6CE37295-6E30-426D-87AF-6FEE9061C297";
paths = (
{
closed = 1;
nodes = (
"1366 0 LINE",
"1366 1358 LINE",
"775 1358 LINE",
"333 1358 OFFCURVE",
"23 1054 OFFCURVE",
"23 658 CURVE SMOOTH",
"23 274 OFFCURVE",
"302 0 OFFCURVE",
"772 0 CURVE"
);
},
{
closed = 1;
nodes = (
"586 100 OFFCURVE",
"423 406 OFFCURVE",
"423 750 CURVE SMOOTH",
"423 1038 OFFCURVE",
"521 1267 OFFCURVE",
"818 1267 CURVE SMOOTH",
"886 1267 OFFCURVE",
"983 1248 OFFCURVE",
"1036 1168 CURVE",
"1036 200 LINE",
"1004 137 OFFCURVE",
"936 100 OFFCURVE",
"863 100 CURVE SMOOTH"
);
},
{
closed = 1;
nodes = (
"2036 999 LINE",
"2036 1358 LINE",
"1058 1358 LINE",
"1058 1259 LINE",
"1720 1259 LINE SMOOTH",
"1793 1259 OFFCURVE",
"1816 1248 OFFCURVE",
"1843 1205 CURVE SMOOTH",
"1975 999 LINE"
);
},
{
closed = 1;
nodes = (
"2089 0 LINE",
"2089 356 LINE",
"2028 356 LINE",
"1908 151 LINE SMOOTH",
"1885 111 OFFCURVE",
"1832 95 OFFCURVE",
"1785 95 CURVE SMOOTH",
"1036 95 LINE",
"1036 0 LINE"
);
},
{
closed = 1;
nodes = (
"1692 632 LINE",
"1692 729 LINE",
"1152 729 LINE",
"1152 632 LINE"
);
},
{
closed = 1;
nodes = (
"1760 462 LINE",
"1760 918 LINE",
"1634 918 LINE",
"1634 462 LINE"
);
}
);
userData = {
assembly = "NPUSHB[ ]\011/* 13 values pushed */
45 39 27 3 3 2 71 52 2 5 4 2 76 
MPPEM[ ]\011/* MeasurePixelPerEm */
PUSHB[ ]\011/* 1 value pushed */
48 
LT[ ]\011/* LessThan */
IF[ ]\011/* If */
NPUSHB[ ]\011/* 31 values pushed */
0 3 0 4 5 3 4 105 6 1 2 2 1 95 0 1 1 68 77 7 1 5 5 0 95 0 0 0 69 0 78 
ELSE[ ]\011/* Else */
MPPEM[ ]\011/* MeasurePixelPerEm */
PUSHB[ ]\011/* 1 value pushed */
56 
LT[ ]\011/* LessThan */
IF[ ]\011/* If */
NPUSHB[ ]\011/* 43 values pushed */
0 2 6 3 6 2 114 0 5 4 7 7 5 114 0 3 0 4 5 3 4 105 0 6 6 1 95 0 1 1 68 77 0 7 7 0 96 0 0 0 69 0 78 
ELSE[ ]\011/* Else */
MPPEM[ ]\011/* MeasurePixelPerEm */
PUSHB[ ]\011/* 1 value pushed */
60 
LT[ ]\011/* LessThan */
IF[ ]\011/* If */
NPUSHB[ ]\011/* 40 values pushed */
0 2 6 3 6 2 114 0 5 4 7 7 5 114 0 3 0 4 5 3 4 105 0 7 0 0 7 0 100 0 6 6 1 95 0 1 1 68 6 78 
ELSE[ ]\011/* Else */
NPUSHB[ ]\011/* 46 values pushed */
0 2 6 3 6 2 114 0 5 4 7 7 5 114 0 1 0 6 2 1 6 105 0 3 0 4 5 3 4 105 0 7 0 0 7 89 0 7 7 0 96 0 0 7 0 80 
EIF[ ]\011/* EndIf */
EIF[ ]\011/* EndIf */
EIF[ ]\011/* EndIf */
NPUSHB[ ]\011/* 11 values pushed */
36 58 53 62 36 74 132 131 8 11 30 
CALL[ ]\011/* CallFunction */";
};
width = 2104;
},
{
anchors = (
{
name = bottom;
position = "{1103, 0}";
},
{
name = top;
position = "{1103, 1358}";
}
);
layerId = "C40247AC-6B1A-4EFE-B804-1FED3C225331";
paths = (
{
closed = 1;
nodes = (
"1149 0 LINE",
"1149 1358 LINE",
"763 1358 LINE",
"361 1358 OFFCURVE",
"130 999 OFFCURVE",
"130 668 CURVE SMOOTH",
"130 306 OFFCURVE",
"370 0 OFFCURVE",
"758 0 CURVE"
);
},
{
closed = 1;
nodes = (
"534 64 OFFCURVE",
"245 317 OFFCURVE",
"245 721 CURVE SMOOTH",
"245 1011 OFFCURVE",
"450 1291 OFFCURVE",
"744 1291 CURVE SMOOTH",
"882 1291 OFFCURVE",
"971 1288 OFFCURVE",
"1041 1213 CURVE",
"1041 112 LINE",
"973 65 OFFCURVE",
"923 64 OFFCURVE",
"763 64 CURVE SMOOTH"
);
},
{
closed = 1;
nodes = (
"1839 1010 LINE",
"1839 1358 LINE",
"1038 1358 LINE",
"1038 1292 LINE",
"1632 1292 LINE SMOOTH",
"1709 1292 OFFCURVE",
"1742 1278 OFFCURVE",
"1755 1235 CURVE SMOOTH",
"1818 1010 LINE"
);
},
{
closed = 1;
nodes = (
"1977 0 LINE",
"1977 340 LINE",
"1956 340 LINE",
"1883 122 LINE SMOOTH",
"1871 85 OFFCURVE",
"1817 66 OFFCURVE",
"1760 66 CURVE SMOOTH",
"1041 66 LINE",
"1041 0 LINE"
);
},
{
closed = 1;
nodes = (
"1558 659 LINE",
"1558 726 LINE",
"1078 726 LINE",
"1078 659 LINE"
);
},
{
closed = 1;
nodes = (
"1590 437 LINE",
"1590 962 LINE",
"1528 962 LINE",
"1528 437 LINE"
);
}
);
width = 2018;
},
{
anchors = (
{
name = bottom;
position = "{886, 0}";
},
{
name = top;
position = "{886, 1358}";
}
);
hints = (
{
horizontal = 1;
origin = "{0, 8}";
target = "{1, 12}";
type = TTStem;
options = 4;
},
{
horizontal = 1;
origin = "{0, 8}";
target = "{3, 8}";
type = Align;
options = 4;
},
{
horizontal = 1;
origin = "{1, 12}";
target = "{3, 7}";
type = Align;
options = 4;
},
{
horizontal = 1;
origin = "{0, 2}";
target = "{1, 5}";
type = TTStem;
options = 4;
},
{
horizontal = 1;
origin = "{0, 2}";
target = "{2, 2}";
type = Align;
options = 4;
},
{
horizontal = 1;
origin = "{1, 5}";
target = "{2, 3}";
type = Align;
options = 4;
},
{
horizontal = 1;
origin = "{1, 12}";
target = "{1, 5}";
other1 = "{4, 2}";
type = Interpolate;
},
{
horizontal = 1;
origin = "{4, 2}";
target = "{4, 3}";
type = TTStem;
},
{
origin = "{0, 5}";
type = Anchor;
},
{
origin = "{0, 5}";
target = "{1, 2}";
type = TTStem;
options = 4;
},
{
origin = "{1, 9}";
type = Anchor;
},
{
origin = "{1, 9}";
target = "{0, 0}";
type = TTStem;
},
{
origin = "{rsb}";
target = "{3, 1}";
type = TTStem;
},
{
origin = "{3, 1}";
target = "{3, 2}";
type = TTStem;
},
{
origin = "{3, 2}";
target = "{5, 0}";
type = TTStem;
},
{
origin = "{5, 0}";
target = "{5, 3}";
type = TTStem;
},
{
origin = "{3, 1}";
target = "{2, 0}";
type = TTStem;
},
{
origin = "{2, 0}";
target = "{2, 8}";
type = TTStem;
},
{
horizontal = 1;
origin = "{0, 2}";
type = Anchor;
},
{
horizontal = 1;
origin = "{0, 8}";
type = Anchor;
stem = 8;
}
);
layerId = "56E89462-3A12-4850-914F-0D670F297A3A";
paths = (
{
closed = 1;
nodes = (
"1011 0 LINE",
"1011 1358 LINE",
"654 1358 LINE",
"279 1358 OFFCURVE",
"64 999 OFFCURVE",
"64 668 CURVE SMOOTH",
"64 306 OFFCURVE",
"288 0 OFFCURVE",
"649 0 CURVE"
);
},
{
closed = 1;
nodes = (
"442 64 OFFCURVE",
"175 317 OFFCURVE",
"175 721 CURVE SMOOTH",
"175 1010 OFFCURVE",
"365 1292 OFFCURVE",
"635 1292 CURVE SMOOTH",
"766 1292 OFFCURVE",
"849 1288 OFFCURVE",
"913 1214 CURVE",
"913 112 LINE",
"850 65 OFFCURVE",
"804 64 OFFCURVE",
"653 64 CURVE SMOOTH"
);
},
{
closed = 1;
nodes = (
"1657 1017 LINE",
"1657 1358 LINE",
"910 1358 LINE",
"910 1301 LINE",
"1447 1301 LINE SMOOTH",
"1519 1301 OFFCURVE",
"1553 1287 OFFCURVE",
"1570 1233 CURVE SMOOTH",
"1638 1017 LINE"
);
},
{
closed = 1;
nodes = (
"1726 0 LINE",
"1726 340 LINE",
"1707 340 LINE",
"1617 113 LINE SMOOTH",
"1596 59 OFFCURVE",
"1562 57 OFFCURVE",
"1494 57 CURVE SMOOTH",
"913 57 LINE",
"913 0 LINE"
);
},
{
closed = 1;
nodes = (
"1402 664 LINE",
"1402 721 LINE",
"958 721 LINE",
"958 664 LINE"
);
},
{
closed = 1;
nodes = (
"1424 442 LINE",
"1424 958 LINE",
"1367 958 LINE",
"1367 442 LINE"
);
}
);
width = 1765;
},
{
anchors = (
{
name = bottom;
position = "{897, 0}";
},
{
name = top;
position = "{897, 1358}";
}
);
layerId = "D683B167-653D-4D52-BD41-B5BCAD6A6428";
paths = (
{
closed = 1;
nodes = (
"1139 0 LINE",
"1139 1358 LINE",
"649 1358 LINE",
"282 1358 OFFCURVE",
"30 1045 OFFCURVE",
"30 660 CURVE SMOOTH",
"30 280 OFFCURVE",
"260 0 OFFCURVE",
"646 0 CURVE"
);
},
{
closed = 1;
nodes = (
"491 94 OFFCURVE",
"339 392 OFFCURVE",
"339 745 CURVE SMOOTH",
"339 1032 OFFCURVE",
"434 1271 OFFCURVE",
"678 1271 CURVE SMOOTH",
"743 1271 OFFCURVE",
"829 1255 OFFCURVE",
"876 1176 CURVE",
"876 185 LINE",
"844 125 OFFCURVE",
"789 94 OFFCURVE",
"714 94 CURVE SMOOTH"
);
},
{
closed = 1;
nodes = (
"1691 1002 LINE",
"1691 1358 LINE",
"893 1358 LINE",
"893 1266 LINE",
"1430 1266 LINE SMOOTH",
"1494 1266 OFFCURVE",
"1516 1254 OFFCURVE",
"1538 1210 CURVE SMOOTH",
"1644 1002 LINE"
);
},
{
closed = 1;
nodes = (
"1740 0 LINE",
"1740 353 LINE",
"1692 353 LINE",
"1592 145 LINE SMOOTH",
"1570 100 OFFCURVE",
"1525 89 OFFCURVE",
"1484 89 CURVE SMOOTH",
"876 89 LINE",
"876 0 LINE"
);
},
{
closed = 1;
nodes = (
"1404 637 LINE",
"1404 728 LINE",
"968 728 LINE",
"968 637 LINE"
);
},
{
closed = 1;
nodes = (
"1456 459 LINE",
"1456 925 LINE",
"1356 925 LINE",
"1356 459 LINE"
);
}
);
width = 1765;
}
);
leftKerningGroup = C;
leftMetricsKey = "=O";
note = OE;
rightMetricsKey = "=E";
unicode = 0152;
},
{
glyphname = P;
lastChange = "2019-07-10 21:00:35 +0000";
layers = (
{
anchors = (
{
name = bottom;
position = "{660, 0}";
},
{
name = top;
position = "{660, 1358}";
}
);
layerId = "6CE37295-6E30-426D-87AF-6FEE9061C297";
paths = (
{
closed = 1;
nodes = (
"528 40 LINE",
"528 630 LINE",
"467 619 LINE",
"524 597 OFFCURVE",
"613 596 OFFCURVE",
"699 596 CURVE SMOOTH",
"1036 596 OFFCURVE",
"1272 715 OFFCURVE",
"1272 967 CURVE SMOOTH",
"1272 1209 OFFCURVE",
"1039 1358 OFFCURVE",
"705 1358 CURVE SMOOTH",
"198 1358 LINE",
"198 40 LINE"
);
},
{
closed = 1;
nodes = (
"724 0 LINE",
"724 81 LINE",
"375 111 LINE",
"29 81 LINE",
"29 0 LINE"
);
},
{
closed = 1;
nodes = (
"538 690 OFFCURVE",
"527 700 OFFCURVE",
"452 754 CURVE",
"528 640 LINE",
"528 1264 LINE",
"623 1264 LINE SMOOTH",
"810 1264 OFFCURVE",
"903 1127 OFFCURVE",
"903 966 CURVE SMOOTH",
"903 785 OFFCURVE",
"815 690 OFFCURVE",
"639 690 CURVE SMOOTH"
);
},
{
closed = 1;
nodes = (
"349 1358 LINE",
"29 1358 LINE",
"29 1277 LINE",
"349 1247 LINE"
);
}
);
userData = {
assembly = "PUSHB[ ]\011/* 6 values pushed */
44 1 8 3 1 76 
MPPEM[ ]\011/* MeasurePixelPerEm */
PUSHB[ ]\011/* 1 value pushed */
39 
LT[ ]\011/* LessThan */
IF[ ]\011/* If */
NPUSHB[ ]\011/* 32 values pushed */
0 8 6 1 5 0 8 5 105 7 1 3 3 4 95 0 4 4 68 77 2 1 0 0 1 95 0 1 1 69 1 78 
ELSE[ ]\011/* Else */
MPPEM[ ]\011/* MeasurePixelPerEm */
PUSHB[ ]\011/* 1 value pushed */
51 
LT[ ]\011/* LessThan */
IF[ ]\011/* If */
NPUSHB[ ]\011/* 38 values pushed */
0 3 7 8 7 3 114 0 8 6 1 5 0 8 5 105 0 7 7 4 95 0 4 4 68 77 2 1 0 0 1 95 0 1 1 69 1 78 
ELSE[ ]\011/* Else */
MPPEM[ ]\011/* MeasurePixelPerEm */
PUSHB[ ]\011/* 1 value pushed */
60 
LT[ ]\011/* LessThan */
IF[ ]\011/* If */
NPUSHB[ ]\011/* 35 values pushed */
0 3 7 8 7 3 114 0 8 6 1 5 0 8 5 105 2 1 0 0 1 0 1 99 0 7 7 4 95 0 4 4 68 7 78 
ELSE[ ]\011/* Else */
MPPEM[ ]\011/* MeasurePixelPerEm */
PUSHB[ ]\011/* 1 value pushed */
93 
LT[ ]\011/* LessThan */
IF[ ]\011/* If */
NPUSHB[ ]\011/* 42 values pushed */
0 3 7 8 7 3 114 0 4 0 7 3 4 7 105 0 8 6 1 5 0 8 5 105 2 1 0 1 1 0 89 2 1 0 0 1 95 0 1 0 1 79 
ELSE[ ]\011/* Else */
NPUSHB[ ]\011/* 49 values pushed */
0 3 7 8 7 3 114 0 6 8 5 8 6 5 128 0 4 0 7 3 4 7 105 0 8 0 5 0 8 5 105 2 1 0 1 1 0 89 2 1 0 0 1 95 0 1 0 1 79 
EIF[ ]\011/* EndIf */
EIF[ ]\011/* EndIf */
EIF[ ]\011/* EndIf */
EIF[ ]\011/* EndIf */
NPUSHB[ ]\011/* 12 values pushed */
39 37 17 38 114 19 34 82 17 9 11 31 
CALL[ ]\011/* CallFunction */";
};
width = 1288;
},
{
anchors = (
{
name = bottom;
position = "{552, 0}";
},
{
name = top;
position = "{552, 1358}";
}
);
background = {
paths = (
{
closed = 1;
nodes = (
"402 1358 LINE",
"81 1358 LINE",
"81 1304 LINE",
"402 1274 LINE"
);
}
);
};
layerId = "C40247AC-6B1A-4EFE-B804-1FED3C225331";
paths = (
{
closed = 1;
nodes = (
"391 22 LINE",
"391 630 LINE",
"331 624 LINE",
"414 597 OFFCURVE",
"493 596 OFFCURVE",
"620 596 CURVE SMOOTH",
"921 596 OFFCURVE",
"1096 743 OFFCURVE",
"1096 981 CURVE SMOOTH",
"1096 1221 OFFCURVE",
"905 1358 OFFCURVE",
"626 1358 CURVE SMOOTH",
"282 1358 LINE",
"282 22 LINE"
);
},
{
closed = 1;
nodes = (
"591 0 LINE",
"591 44 LINE",
"340 74 LINE",
"81 44 LINE",
"81 0 LINE"
);
},
{
closed = 1;
nodes = (
"450 661 OFFCURVE",
"356 679 OFFCURVE",
"318 709 CURVE",
"391 640 LINE",
"391 1293 LINE",
"544 1293 LINE SMOOTH",
"792 1293 OFFCURVE",
"981 1150 OFFCURVE",
"981 986 CURVE SMOOTH",
"981 775 OFFCURVE",
"822 661 OFFCURVE",
"553 661 CURVE SMOOTH"
);
},
{
closed = 1;
nodes = (
"350 1358 LINE",
"81 1358 LINE",
"81 1304 LINE",
"350 1278 LINE"
);
}
);
width = 1187;
},
{
anchors = (
{
name = bottom;
position = "{548, 0}";
},
{
name = top;
position = "{548, 1358}";
}
);
hints = (
{
horizontal = 1;
origin = "{0, 12}";
type = Anchor;
},
{
horizontal = 1;
origin = "{0, 12}";
target = "{2, 4}";
type = TTStem;
stem = 2;
},
{
horizontal = 1;
origin = "{0, 12}";
target = "{3, 1}";
type = Align;
options = 4;
},
{
horizontal = 1;
origin = "{3, 1}";
target = "{3, 2}";
type = TTStem;
stem = 2;
},
{
horizontal = 1;
origin = "{1, 4}";
type = Anchor;
},
{
horizontal = 1;
origin = "{1, 4}";
target = "{1, 3}";
type = TTStem;
stem = 2;
},
{
horizontal = 1;
origin = "{1, 4}";
target = "{1, 3}";
other1 = "{0, 13}";
type = Interpolate;
options = 4;
},
{
horizontal = 1;
origin = "{0, 12}";
target = "{1, 4}";
other1 = "{0, 5}";
type = Interpolate;
},
{
horizontal = 1;
origin = "{0, 5}";
target = "{2, 11}";
type = TTStem;
stem = 2;
}
);
layerId = "56E89462-3A12-4850-914F-0D670F297A3A";
paths = (
{
closed = 1;
nodes = (
"377 22 LINE",
"377 630 LINE",
"323 624 LINE",
"400 597 OFFCURVE",
"473 596 OFFCURVE",
"593 596 CURVE SMOOTH",
"874 596 OFFCURVE",
"1036 743 OFFCURVE",
"1036 981 CURVE SMOOTH",
"1036 1221 OFFCURVE",
"859 1358 OFFCURVE",
"599 1358 CURVE SMOOTH",
"278 1358 LINE",
"278 22 LINE"
);
},
{
closed = 1;
nodes = (
"578 0 LINE",
"578 44 LINE",
"332 74 LINE",
"78 44 LINE",
"78 0 LINE"
);
},
{
closed = 1;
nodes = (
"433 644 OFFCURVE",
"346 663 OFFCURVE",
"310 692 CURVE",
"377 639 LINE",
"377 1310 LINE",
"521 1310 LINE SMOOTH",
"755 1310 OFFCURVE",
"933 1159 OFFCURVE",
"933 986 CURVE SMOOTH",
"933 765 OFFCURVE",
"783 644 OFFCURVE",
"530 644 CURVE SMOOTH"
);
},
{
closed = 1;
nodes = (
"327 1358 LINE",
"78 1358 LINE",
"78 1314 LINE",
"327 1290 LINE"
);
}
);
width = 1082;
},
{
anchors = (
{
name = bottom;
position = "{550, 0}";
},
{
name = top;
position = "{550, 1358}";
}
);
layerId = "D683B167-653D-4D52-BD41-B5BCAD6A6428";
paths = (
{
closed = 1;
nodes = (
"457 37 LINE",
"457 630 LINE",
"373 620 LINE",
"426 597 OFFCURVE",
"505 596 OFFCURVE",
"585 596 CURVE SMOOTH",
"871 596 OFFCURVE",
"1069 720 OFFCURVE",
"1069 969 CURVE SMOOTH",
"1069 1211 OFFCURVE",
"871 1358 OFFCURVE",
"590 1358 CURVE SMOOTH",
"194 1358 LINE",
"194 37 LINE"
);
},
{
closed = 1;
nodes = (
"601 0 LINE",
"601 75 LINE",
"325 105 LINE",
"49 75 LINE",
"49 0 LINE"
);
},
{
closed = 1;
nodes = (
"438 682 OFFCURVE",
"420 694 OFFCURVE",
"360 744 CURVE",
"457 640 LINE",
"457 1272 LINE",
"511 1272 LINE SMOOTH",
"670 1272 OFFCURVE",
"752 1132 OFFCURVE",
"752 969 CURVE SMOOTH",
"752 782 OFFCURVE",
"676 682 OFFCURVE",
"524 682 CURVE SMOOTH"
);
},
{
closed = 1;
nodes = (
"323 1358 LINE",
"49 1358 LINE",
"49 1283 LINE",
"323 1254 LINE"
);
}
);
width = 1082;
}
);
leftMetricsKey = H;
note = P;
rightKerningGroup = P;
unicode = 0050;
},
{
glyphname = Thorn;
lastChange = "2019-07-10 21:00:35 +0000";
layers = (
{
anchors = (
{
name = bottom;
position = "{693, 0}";
},
{
name = top;
position = "{693, 1358}";
}
);
layerId = "6CE37295-6E30-426D-87AF-6FEE9061C297";
paths = (
{
closed = 1;
nodes = (
"606 -12 OFFCURVE",
"737 32 OFFCURVE",
"805 64 CURVE SMOOTH",
"1096 200 OFFCURVE",
"1294 466 OFFCURVE",
"1294 725 CURVE SMOOTH",
"1294 1001 OFFCURVE",
"1089 1329 OFFCURVE",
"880 1329 CURVE SMOOTH",
"815 1329 OFFCURVE",
"740 1300 OFFCURVE",
"684 1253 CURVE SMOOTH",
"586 1171 OFFCURVE",
"533 1128 OFFCURVE",
"474 1089 CURVE",
"432 943 LINE",
"552 1014 OFFCURVE",
"646 1073 OFFCURVE",
"735 1162 CURVE SMOOTH",
"753 1180 OFFCURVE",
"759 1186 OFFCURVE",
"774 1186 CURVE SMOOTH",
"817 1186 OFFCURVE",
"894 934 OFFCURVE",
"894 725 CURVE SMOOTH",
"894 504 OFFCURVE",
"816 284 OFFCURVE",
"709 176 CURVE SMOOTH",
"666 133 OFFCURVE",
"597 79 OFFCURVE",
"458 79 CURVE",
"454 -28 LINE"
);
},
{
closed = 1;
nodes = (
"475 -344 LINE",
"517 -285 LINE",
"517 1226 LINE SMOOTH",
"517 1265 OFFCURVE",
"517 1305 OFFCURVE",
"522 1348 CURVE",
"464 1394 LINE",
"24 1322 LINE",
"24 1231 LINE",
"237 1235 LINE",
"187 1286 LINE",
"187 -317 LINE",
"211 -264 LINE",
"78 -446 LINE",
"155 -540 LINE"
);
}
);
userData = {
assembly = "MPPEM[ ]\011/* MeasurePixelPerEm */
PUSHB[ ]\011/* 1 value pushed */
27 
LT[ ]\011/* LessThan */
IF[ ]\011/* If */
NPUSHB[ ]\011/* 36 values pushed */
0 5 0 3 0 5 3 128 0 3 6 0 3 6 126 0 6 6 132 0 2 2 74 77 0 0 0 1 97 4 1 1 1 68 0 78 
ELSE[ ]\011/* Else */
MPPEM[ ]\011/* MeasurePixelPerEm */
PUSHB[ ]\011/* 1 value pushed */
60 
LT[ ]\011/* LessThan */
IF[ ]\011/* If */
NPUSHB[ ]\011/* 34 values pushed */
0 5 0 3 0 5 3 128 0 3 6 0 3 6 126 0 6 6 132 4 1 1 0 0 5 1 0 105 0 2 2 74 2 78 
ELSE[ ]\011/* Else */
NPUSHB[ ]\011/* 45 values pushed */
0 2 4 2 133 0 4 1 4 133 0 5 0 3 0 5 3 128 0 3 6 0 3 6 126 0 6 6 132 0 1 0 0 1 89 0 1 1 0 97 0 0 1 0 81 
EIF[ ]\011/* EndIf */
EIF[ ]\011/* EndIf */
NPUSHB[ ]\011/* 17 values pushed */
66 65 56 54 46 44 40 38 35 33 31 29 27 26 7 11 22 
CALL[ ]\011/* CallFunction */";
};
width = 1345;
},
{
anchors = (
{
name = bottom;
position = "{570, 0}";
},
{
name = top;
position = "{570, 1358}";
}
);
layerId = "C40247AC-6B1A-4EFE-B804-1FED3C225331";
paths = (
{
closed = 1;
nodes = (
"508 -12 OFFCURVE",
"616 33 OFFCURVE",
"707 88 CURVE SMOOTH",
"942 232 OFFCURVE",
"1069 490 OFFCURVE",
"1069 743 CURVE SMOOTH",
"1069 1035 OFFCURVE",
"973 1327 OFFCURVE",
"755 1327 CURVE SMOOTH",
"701 1327 OFFCURVE",
"649 1291 OFFCURVE",
"605 1254 CURVE SMOOTH",
"527 1189 OFFCURVE",
"448 1135 OFFCURVE",
"344 1072 CURVE",
"308 980 LINE",
"481 1081 OFFCURVE",
"557 1145 OFFCURVE",
"634 1210 CURVE SMOOTH",
"650 1223 OFFCURVE",
"674 1227 OFFCURVE",
"684 1227 CURVE SMOOTH",
"855 1227 OFFCURVE",
"953 976 OFFCURVE",
"953 743 CURVE SMOOTH",
"953 475 OFFCURVE",
"888 316 OFFCURVE",
"692 158 CURVE SMOOTH",
"595 79 OFFCURVE",
"476 50 OFFCURVE",
"322 47 CURVE",
"313 -27 LINE"
);
},
{
closed = 1;
nodes = (
"350 -343 LINE",
"363 -313 LINE",
"363 1184 LINE SMOOTH",
"363 1252 OFFCURVE",
"363 1317 OFFCURVE",
"368 1353 CURVE",
"342 1384 LINE",
"65 1316 LINE",
"65 1262 LINE",
"301 1261 LINE",
"255 1305 LINE",
"255 -335 LINE",
"281 -271 LINE",
"106 -464 LINE",
"143 -503 LINE"
);
}
);
width = 1211;
},
{
anchors = (
{
name = bottom;
position = "{567, 0}";
},
{
name = top;
position = "{567, 1358}";
}
);
hints = (
{
horizontal = 1;
origin = "{0, 31}";
target = "{0, 30}";
type = TTStem;
},
{
horizontal = 1;
origin = "{1, 6}";
target = "{1, 8}";
type = TTStem;
stem = -1;
},
{
horizontal = 1;
origin = "{0, 8}";
target = "{0, 21}";
type = TTStem;
options = 4;
},
{
origin = "{1, 11}";
type = Anchor;
},
{
origin = "{1, 11}";
target = "{1, 1}";
type = TTStem;
options = 4;
},
{
origin = "{rsb}";
target = "{0, 5}";
type = TTStem;
},
{
origin = "{0, 5}";
target = "{0, 24}";
type = TTStem;
},
{
horizontal = 1;
origin = "{1, 8}";
target = "{1, 7}";
type = TTStem;
stem = 2;
},
{
horizontal = 1;
origin = "{1, 6}";
type = Anchor;
},
{
horizontal = 1;
origin = "{1, 6}";
target = "{0, 8}";
type = TTStem;
stem = -1;
},
{
horizontal = 1;
origin = "{0, 31}";
type = Anchor;
}
);
layerId = "56E89462-3A12-4850-914F-0D670F297A3A";
paths = (
{
closed = 1;
nodes = (
"486 -12 OFFCURVE",
"587 33 OFFCURVE",
"672 88 CURVE SMOOTH",
"892 230 OFFCURVE",
"1008 491 OFFCURVE",
"1008 743 CURVE SMOOTH",
"1008 1029 OFFCURVE",
"925 1327 OFFCURVE",
"718 1327 CURVE SMOOTH",
"667 1327 OFFCURVE",
"620 1290 OFFCURVE",
"577 1254 CURVE SMOOTH",
"502 1191 OFFCURVE",
"430 1135 OFFCURVE",
"334 1072 CURVE",
"299 980 LINE",
"462 1081 OFFCURVE",
"534 1146 OFFCURVE",
"605 1210 CURVE SMOOTH",
"620 1223 OFFCURVE",
"641 1228 OFFCURVE",
"652 1228 CURVE SMOOTH",
"809 1228 OFFCURVE",
"898 977 OFFCURVE",
"898 743 CURVE SMOOTH",
"898 475 OFFCURVE",
"839 316 OFFCURVE",
"660 158 CURVE SMOOTH",
"569 78 OFFCURVE",
"457 50 OFFCURVE",
"313 47 CURVE",
"304 -27 LINE"
);
},
{
closed = 1;
nodes = (
"339 -343 LINE",
"350 -313 LINE",
"350 1183 LINE SMOOTH",
"350 1252 OFFCURVE",
"350 1317 OFFCURVE",
"355 1353 CURVE",
"332 1384 LINE",
"62 1316 LINE",
"62 1262 LINE",
"289 1262 LINE",
"252 1299 LINE",
"252 -335 LINE",
"276 -272 LINE",
"109 -471 LINE",
"139 -503 LINE"
);
}
);
width = 1145;
},
{
anchors = (
{
name = bottom;
position = "{569, 0}";
},
{
name = top;
position = "{569, 1358}";
}
);
layerId = "D683B167-653D-4D52-BD41-B5BCAD6A6428";
paths = (
{
closed = 1;
nodes = (
"485 -13 OFFCURVE",
"605 32 OFFCURVE",
"672 68 CURVE SMOOTH",
"938 211 OFFCURVE",
"1099 479 OFFCURVE",
"1099 728 CURVE SMOOTH",
"1099 1005 OFFCURVE",
"928 1329 OFFCURVE",
"736 1329 CURVE SMOOTH",
"676 1329 OFFCURVE",
"613 1298 OFFCURVE",
"564 1253 CURVE SMOOTH",
"481 1177 OFFCURVE",
"405 1114 OFFCURVE",
"365 1086 CURVE",
"328 949 LINE",
"456 1034 OFFCURVE",
"535 1087 OFFCURVE",
"612 1170 CURVE SMOOTH",
"629 1189 OFFCURVE",
"639 1193 OFFCURVE",
"654 1193 CURVE SMOOTH",
"704 1193 OFFCURVE",
"782 940 OFFCURVE",
"782 728 CURVE SMOOTH",
"782 502 OFFCURVE",
"710 289 OFFCURVE",
"601 174 CURVE SMOOTH",
"553 124 OFFCURVE",
"480 74 OFFCURVE",
"350 74 CURVE",
"345 -28 LINE"
);
},
{
closed = 1;
nodes = (
"393 -344 LINE",
"427 -290 LINE",
"427 1219 LINE SMOOTH",
"427 1263 OFFCURVE",
"427 1307 OFFCURVE",
"432 1349 CURVE",
"383 1392 LINE",
"35 1321 LINE",
"35 1236 LINE",
"214 1240 LINE",
"164 1288 LINE",
"164 -320 LINE",
"192 -265 LINE",
"64 -450 LINE",
"128 -534 LINE"
);
}
);
width = 1145;
}
);
note = Thorn;
rightKerningGroup = Thorn;
unicode = 00DE;
},
{
glyphname = Q;
lastChange = "2019-07-10 21:00:35 +0000";
layers = (
{
anchors = (
{
name = bottom;
position = "{865, 0}";
},
{
name = top;
position = "{865, 1358}";
}
);
layerId = "6CE37295-6E30-426D-87AF-6FEE9061C297";
paths = (
{
closed = 1;
nodes = (
"2196 -311 OFFCURVE",
"2392 -246 OFFCURVE",
"2538 -147 CURVE",
"2512 -81 LINE",
"2343 -132 OFFCURVE",
"2218 -151 OFFCURVE",
"1984 -151 CURVE SMOOTH",
"1581 -151 OFFCURVE",
"1045 -77 OFFCURVE",
"805 28 CURVE SMOOTH",
"502 158 OFFCURVE",
"423 379 OFFCURVE",
"423 696 CURVE SMOOTH",
"423 1127 OFFCURVE",
"575 1292 OFFCURVE",
"762 1292 CURVE SMOOTH",
"1003 1292 OFFCURVE",
"1119 1048 OFFCURVE",
"1119 693 CURVE SMOOTH",
"1119 318 OFFCURVE",
"974 96 OFFCURVE",
"683 96 CURVE SMOOTH",
"642 96 OFFCURVE",
"574 103 OFFCURVE",
"535 111 CURVE",
"651 -4 LINE",
"669 -6 OFFCURVE",
"687 -6 OFFCURVE",
"705 -6 CURVE SMOOTH",
"1113 -6 OFFCURVE",
"1519 233 OFFCURVE",
"1519 724 CURVE SMOOTH",
"1519 1174 OFFCURVE",
"1199 1385 OFFCURVE",
"795 1385 CURVE SMOOTH",
"294 1385 OFFCURVE",
"23 1018 OFFCURVE",
"23 657 CURVE SMOOTH",
"23 270 OFFCURVE",
"329 44 OFFCURVE",
"740 -113 CURVE SMOOTH",
"1149 -269 OFFCURVE",
"1551 -311 OFFCURVE",
"1837 -311 CURVE SMOOTH"
);
}
);
userData = {
assembly = "MPPEM[ ]\011/* MeasurePixelPerEm */
PUSHB[ ]\011/* 1 value pushed */
60 
LT[ ]\011/* LessThan */
IF[ ]\011/* If */
NPUSHB[ ]\011/* 16 values pushed */
0 2 1 2 134 0 1 1 0 97 0 0 0 74 1 78 
ELSE[ ]\011/* Else */
NPUSHB[ ]\011/* 21 values pushed */
0 2 1 2 134 0 0 1 1 0 89 0 0 0 1 97 0 1 0 1 81 
EIF[ ]\011/* EndIf */
NPUSHB[ ]\011/* 9 values pushed */
45 43 37 35 29 27 3 11 22 
CALL[ ]\011/* CallFunction */";
};
width = 1549;
},
{
anchors = (
{
name = bottom;
position = "{822, 0}";
},
{
name = top;
position = "{822, 1358}";
}
);
layerId = "C40247AC-6B1A-4EFE-B804-1FED3C225331";
paths = (
{
closed = 1;
nodes = (
"2292 -271 OFFCURVE",
"2535 -219 OFFCURVE",
"2657 -142 CURVE",
"2647 -121 LINE",
"2529 -156 OFFCURVE",
"2328 -191 OFFCURVE",
"2157 -191 CURVE SMOOTH",
"1661 -191 OFFCURVE",
"1278 -135 OFFCURVE",
"766 28 CURVE SMOOTH",
"402 142 OFFCURVE",
"245 369 OFFCURVE",
"245 712 CURVE SMOOTH",
"245 1055 OFFCURVE",
"478 1328 OFFCURVE",
"774 1328 CURVE SMOOTH",
"1082 1328 OFFCURVE",
"1317 1026 OFFCURVE",
"1317 706 CURVE SMOOTH",
"1317 258 OFFCURVE",
"1021 43 OFFCURVE",
"709 43 CURVE SMOOTH",
"636 43 OFFCURVE",
"590 48 OFFCURVE",
"528 58 CURVE",
"652 -4 LINE",
"671 -6 OFFCURVE",
"691 -6 OFFCURVE",
"710 -6 CURVE SMOOTH",
"1070 -6 OFFCURVE",
"1432 231 OFFCURVE",
"1432 717 CURVE SMOOTH",
"1432 1055 OFFCURVE",
"1155 1385 OFFCURVE",
"774 1385 CURVE SMOOTH",
"371 1385 OFFCURVE",
"130 1018 OFFCURVE",
"130 659 CURVE SMOOTH",
"130 311 OFFCURVE",
"366 68 OFFCURVE",
"736 -54 CURVE SMOOTH",
"1161 -193 OFFCURVE",
"1708 -271 OFFCURVE",
"2092 -271 CURVE SMOOTH"
);
}
);
width = 1561;
},
{
anchors = (
{
name = bottom;
position = "{661, 0}";
},
{
name = top;
position = "{661, 1358}";
}
);
hints = (
{
horizontal = 1;
origin = "{0, 34}";
target = "{0, 15}";
type = TTStem;
options = 4;
},
{
horizontal = 1;
origin = "{0, 28}";
target = "{0, 21}";
type = TTStem;
options = 4;
},
{
origin = "{0, 37}";
type = Anchor;
},
{
origin = "{0, 37}";
target = "{0, 12}";
type = TTStem;
},
{
origin = "{rsb}";
target = "{0, 31}";
type = TTStem;
},
{
origin = "{0, 31}";
target = "{0, 18}";
type = TTStem;
},
{
horizontal = 1;
origin = "{0, 34}";
type = Anchor;
},
{
horizontal = 1;
origin = "{0, 28}";
type = Anchor;
},
{
horizontal = 1;
origin = "{0, 28}";
target = "{0, 3}";
type = TTStem;
stem = -1;
},
{
horizontal = 1;
origin = "{0, 3}";
target = "{0, 6}";
type = TTStem;
stem = -1;
},
{
horizontal = 1;
origin = "{0, 6}";
target = "{0, 43}";
type = TTStem;
options = 4;
}
);
layerId = "56E89462-3A12-4850-914F-0D670F297A3A";
paths = (
{
closed = 1;
nodes = (
"2077 -271 OFFCURVE",
"2304 -218 OFFCURVE",
"2417 -142 CURVE",
"2408 -121 LINE",
"2299 -157 OFFCURVE",
"2110 -191 OFFCURVE",
"1952 -191 CURVE SMOOTH",
"1489 -191 OFFCURVE",
"1134 -138 OFFCURVE",
"653 28 CURVE SMOOTH",
"320 143 OFFCURVE",
"175 369 OFFCURVE",
"175 712 CURVE SMOOTH",
"175 1055 OFFCURVE",
"389 1328 OFFCURVE",
"661 1328 CURVE SMOOTH",
"944 1328 OFFCURVE",
"1160 1026 OFFCURVE",
"1160 706 CURVE SMOOTH",
"1160 257 OFFCURVE",
"886 43 OFFCURVE",
"601 43 CURVE SMOOTH",
"532 43 OFFCURVE",
"489 48 OFFCURVE",
"431 58 CURVE",
"547 -4 LINE",
"565 -6 OFFCURVE",
"583 -6 OFFCURVE",
"601 -6 CURVE SMOOTH",
"935 -6 OFFCURVE",
"1271 231 OFFCURVE",
"1271 716 CURVE SMOOTH",
"1271 1054 OFFCURVE",
"1014 1385 OFFCURVE",
"661 1385 CURVE SMOOTH",
"288 1385 OFFCURVE",
"64 1018 OFFCURVE",
"64 659 CURVE SMOOTH",
"64 312 OFFCURVE",
"283 68 OFFCURVE",
"626 -53 CURVE SMOOTH",
"1021 -192 OFFCURVE",
"1534 -271 OFFCURVE",
"1893 -271 CURVE SMOOTH"
);
}
);
width = 1334;
},
{
anchors = (
{
name = bottom;
position = "{735, 0}";
},
{
name = top;
position = "{735, 1358}";
}
);
guideLines = (
{
angle = 270;
position = "{1241, 673}";
}
);
layerId = "D683B167-653D-4D52-BD41-B5BCAD6A6428";
paths = (
{
closed = 1;
nodes = (
"1912 -304 OFFCURVE",
"2092 -241 OFFCURVE",
"2214 -146 CURVE",
"2193 -88 LINE",
"2055 -136 OFFCURVE",
"1930 -158 OFFCURVE",
"1741 -158 CURVE SMOOTH",
"1389 -158 OFFCURVE",
"942 -94 OFFCURVE",
"690 28 CURVE SMOOTH",
"429 154 OFFCURVE",
"347 372 OFFCURVE",
"347 699 CURVE SMOOTH",
"347 1111 OFFCURVE",
"485 1298 OFFCURVE",
"659 1298 CURVE SMOOTH",
"871 1298 OFFCURVE",
"985 1041 OFFCURVE",
"985 695 CURVE SMOOTH",
"985 310 OFFCURVE",
"841 87 OFFCURVE",
"592 87 CURVE SMOOTH",
"553 87 OFFCURVE",
"496 94 OFFCURVE",
"459 102 CURVE",
"562 -4 LINE",
"578 -6 OFFCURVE",
"593 -6 OFFCURVE",
"609 -6 CURVE SMOOTH",
"953 -6 OFFCURVE",
"1302 233 OFFCURVE",
"1302 723 CURVE SMOOTH",
"1302 1154 OFFCURVE",
"1027 1385 OFFCURVE",
"683 1385 CURVE SMOOTH",
"264 1385 OFFCURVE",
"30 1018 OFFCURVE",
"30 657 CURVE SMOOTH",
"30 282 OFFCURVE",
"283 49 OFFCURVE",
"635 -102 CURVE SMOOTH",
"999 -258 OFFCURVE",
"1366 -304 OFFCURVE",
"1624 -304 CURVE SMOOTH"
);
}
);
width = 1334;
}
);
leftKerningGroup = C;
leftMetricsKey = "=O";
widthMetricsKey = O;
note = Q;
unicode = 0051;
},
{
glyphname = R;
lastChange = "2019-07-10 21:00:35 +0000";
layers = (
{
anchors = (
{
name = bottom;
position = "{744, 0}";
},
{
name = top;
position = "{646, 1358}";
}
);
layerId = "6CE37295-6E30-426D-87AF-6FEE9061C297";
paths = (
{
closed = 1;
nodes = (
"1422 -25 OFFCURVE",
"1464 -22 OFFCURVE",
"1500 -17 CURVE",
"1500 48 LINE",
"1445 54 OFFCURVE",
"1394 88 OFFCURVE",
"1320 167 CURVE SMOOTH",
"1193 301 OFFCURVE",
"1093 437 OFFCURVE",
"974 626 CURVE",
"1216 697 OFFCURVE",
"1322 802 OFFCURVE",
"1322 978 CURVE SMOOTH",
"1322 1244 OFFCURVE",
"1038 1358 OFFCURVE",
"705 1358 CURVE SMOOTH",
"193 1358 LINE",
"193 40 LINE",
"523 40 LINE",
"523 1264 LINE",
"606 1264 LINE SMOOTH",
"814 1264 OFFCURVE",
"954 1145 OFFCURVE",
"954 966 CURVE SMOOTH",
"954 773 OFFCURVE",
"849 675 OFFCURVE",
"639 675 CURVE SMOOTH",
"583 675 OFFCURVE",
"514 684 OFFCURVE",
"492 692 CURVE",
"497 586 LINE",
"610 586 LINE SMOOTH",
"630 586 OFFCURVE",
"635 582 OFFCURVE",
"655 563 CURVE SMOOTH",
"665 554 OFFCURVE",
"725 488 OFFCURVE",
"762 427 CURVE SMOOTH",
"794 375 OFFCURVE",
"882 252 OFFCURVE",
"938 197 CURVE SMOOTH",
"1107 31 OFFCURVE",
"1239 -25 OFFCURVE",
"1381 -25 CURVE SMOOTH"
);
},
{
closed = 1;
nodes = (
"724 0 LINE",
"724 81 LINE",
"375 111 LINE",
"29 81 LINE",
"29 0 LINE"
);
},
{
closed = 1;
nodes = (
"349 1358 LINE",
"29 1358 LINE",
"29 1277 LINE",
"349 1247 LINE"
);
}
);
userData = {
assembly = "NPUSHB[ ]\011/* 10 values pushed */
27 1 2 1 12 1 3 2 2 76 
MPPEM[ ]\011/* MeasurePixelPerEm */
PUSHB[ ]\011/* 1 value pushed */
39 
LT[ ]\011/* LessThan */
IF[ ]\011/* If */
NPUSHB[ ]\011/* 36 values pushed */
0 8 0 1 2 8 1 103 7 1 5 5 6 95 0 6 6 68 77 4 1 2 2 3 95 0 3 3 69 77 0 0 0 69 0 78 
ELSE[ ]\011/* Else */
MPPEM[ ]\011/* MeasurePixelPerEm */
PUSHB[ ]\011/* 1 value pushed */
51 
LT[ ]\011/* LessThan */
IF[ ]\011/* If */
NPUSHB[ ]\011/* 42 values pushed */
0 5 7 8 7 5 114 0 8 0 1 2 8 1 103 0 7 7 6 95 0 6 6 68 77 4 1 2 2 3 95 0 3 3 69 77 0 0 0 69 0 78 
ELSE[ ]\011/* Else */
MPPEM[ ]\011/* MeasurePixelPerEm */
PUSHB[ ]\011/* 1 value pushed */
60 
LT[ ]\011/* LessThan */
IF[ ]\011/* If */
NPUSHB[ ]\011/* 40 values pushed */
0 5 7 8 7 5 114 0 8 0 1 2 8 1 103 4 1 2 0 3 0 2 3 103 0 7 7 6 95 0 6 6 68 77 0 0 0 69 0 78 
ELSE[ ]\011/* Else */
NPUSHB[ ]\011/* 38 values pushed */
0 5 7 8 7 5 114 0 6 0 7 5 6 7 105 0 8 0 1 2 8 1 103 4 1 2 0 3 0 2 3 103 0 0 0 69 0 78 
EIF[ ]\011/* EndIf */
EIF[ ]\011/* EndIf */
EIF[ ]\011/* EndIf */
NPUSHB[ ]\011/* 12 values pushed */
38 38 114 19 34 82 20 24 46 9 11 31 
CALL[ ]\011/* CallFunction */";
};
width = 1522;
},
{
anchors = (
{
name = bottom;
position = "{681, 0}";
},
{
name = top;
position = "{569, 1358}";
}
);
layerId = "C40247AC-6B1A-4EFE-B804-1FED3C225331";
paths = (
{
closed = 1;
nodes = (
"1402 -25 OFFCURVE",
"1425 -24 OFFCURVE",
"1447 -23 CURVE",
"1447 11 LINE",
"1390 11 OFFCURVE",
"1283 62 OFFCURVE",
"1202 132 CURVE SMOOTH",
"1067 249 OFFCURVE",
"871 488 OFFCURVE",
"805 629 CURVE",
"991 673 OFFCURVE",
"1113 787 OFFCURVE",
"1113 985 CURVE SMOOTH",
"1113 1234 OFFCURVE",
"952 1358 OFFCURVE",
"626 1358 CURVE SMOOTH",
"282 1358 LINE",
"282 22 LINE",
"391 22 LINE",
"391 1293 LINE",
"546 1293 LINE SMOOTH",
"815 1293 OFFCURVE",
"998 1163 OFFCURVE",
"998 986 CURVE SMOOTH",
"998 769 OFFCURVE",
"834 668 OFFCURVE",
"553 668 CURVE SMOOTH",
"504 668 OFFCURVE",
"389 667 OFFCURVE",
"321 729 CURVE",
"335 603 LINE",
"551 603 LINE SMOOTH",
"593 603 OFFCURVE",
"637 590 OFFCURVE",
"657 579 CURVE SMOOTH",
"679 567 OFFCURVE",
"709 518 OFFCURVE",
"770 428 CURVE SMOOTH",
"832 337 OFFCURVE",
"896 259 OFFCURVE",
"950 204 CURVE SMOOTH",
"996 157 OFFCURVE",
"1214 -25 OFFCURVE",
"1382 -25 CURVE SMOOTH"
);
},
{
closed = 1;
nodes = (
"591 0 LINE",
"591 44 LINE",
"340 74 LINE",
"81 44 LINE",
"81 0 LINE"
);
},
{
closed = 1;
nodes = (
"350 1358 LINE",
"81 1358 LINE",
"81 1304 LINE",
"350 1278 LINE"
);
}
);
width = 1502;
},
{
anchors = (
{
name = bottom;
position = "{676, 0}";
},
{
name = top;
position = "{565, 1358}";
}
);
hints = (
{
horizontal = 1;
origin = "{1, 4}";
target = "{1, 3}";
type = TTStem;
stem = 2;
},
{
horizontal = 1;
origin = "{0, 43}";
target = "{0, 3}";
type = TTStem;
options = 4;
},
{
horizontal = 1;
origin = "{0, 16}";
target = "{0, 19}";
type = TTStem;
stem = 2;
},
{
horizontal = 1;
origin = "{1, 4}";
target = "{0, 16}";
other1 = "{0, 26}";
type = Interpolate;
},
{
horizontal = 1;
origin = "{0, 26}";
target = "{0, 31}";
type = TTStem;
stem = 2;
},
{
origin = "{0, 17}";
type = Anchor;
},
{
origin = "{0, 17}";
target = "{0, 18}";
type = TTStem;
},
{
origin = "{0, 12}";
type = Anchor;
},
{
origin = "{0, 12}";
target = "{0, 23}";
type = TTStem;
},
{
horizontal = 1;
origin = "{1, 4}";
type = Anchor;
},
{
horizontal = 1;
origin = "{0, 16}";
type = Anchor;
},
{
horizontal = 1;
origin = "{1, 3}";
target = "{1, 4}";
other1 = "{0, 17}";
type = Interpolate;
options = 4;
},
{
horizontal = 1;
origin = "{0, 16}";
target = "{2, 1}";
type = Align;
options = 4;
},
{
horizontal = 1;
origin = "{2, 1}";
target = "{2, 2}";
type = TTStem;
stem = 2;
}
);
layerId = "56E89462-3A12-4850-914F-0D670F297A3A";
paths = (
{
closed = 1;
nodes = (
"1324 -25 OFFCURVE",
"1344 -25 OFFCURVE",
"1365 -23 CURVE",
"1365 11 LINE",
"1312 11 OFFCURVE",
"1203 61 OFFCURVE",
"1127 132 CURVE SMOOTH",
"1002 249 OFFCURVE",
"804 484 OFFCURVE",
"744 624 CURVE",
"940 669 OFFCURVE",
"1051 784 OFFCURVE",
"1051 985 CURVE SMOOTH",
"1051 1234 OFFCURVE",
"902 1358 OFFCURVE",
"599 1358 CURVE SMOOTH",
"278 1358 LINE",
"278 22 LINE",
"377 22 LINE",
"377 1310 LINE",
"524 1310 LINE SMOOTH",
"777 1310 OFFCURVE",
"948 1173 OFFCURVE",
"948 986 CURVE SMOOTH",
"948 755 OFFCURVE",
"794 647 OFFCURVE",
"530 647 CURVE SMOOTH",
"485 647 OFFCURVE",
"375 647 OFFCURVE",
"313 708 CURVE",
"325 603 LINE",
"529 603 LINE SMOOTH",
"568 603 OFFCURVE",
"609 590 OFFCURVE",
"628 579 CURVE SMOOTH",
"650 566 OFFCURVE",
"680 518 OFFCURVE",
"734 428 CURVE SMOOTH",
"789 336 OFFCURVE",
"852 259 OFFCURVE",
"902 205 CURVE SMOOTH",
"945 159 OFFCURVE",
"1148 -25 OFFCURVE",
"1305 -25 CURVE SMOOTH"
);
},
{
closed = 1;
nodes = (
"578 0 LINE",
"578 44 LINE",
"332 74 LINE",
"78 44 LINE",
"78 0 LINE"
);
},
{
closed = 1;
nodes = (
"327 1358 LINE",
"78 1358 LINE",
"78 1314 LINE",
"327 1290 LINE"
);
}
);
width = 1385;
},
{
anchors = (
{
name = bottom;
position = "{678, 0}";
},
{
name = top;
position = "{581, 1358}";
}
);
layerId = "D683B167-653D-4D52-BD41-B5BCAD6A6428";
paths = (
{
closed = 1;
nodes = (
"1328 -25 OFFCURVE",
"1365 -22 OFFCURVE",
"1394 -18 CURVE",
"1394 42 LINE",
"1338 47 OFFCURVE",
"1278 89 OFFCURVE",
"1211 161 CURVE SMOOTH",
"1087 295 OFFCURVE",
"979 442 OFFCURVE",
"873 626 CURVE",
"1097 692 OFFCURVE",
"1200 800 OFFCURVE",
"1200 979 CURVE SMOOTH",
"1200 1242 OFFCURVE",
"948 1358 OFFCURVE",
"634 1358 CURVE SMOOTH",
"215 1358 LINE",
"215 37 LINE",
"478 37 LINE",
"478 1272 LINE",
"543 1272 LINE SMOOTH",
"748 1272 OFFCURVE",
"883 1149 OFFCURVE",
"883 969 CURVE SMOOTH",
"883 770 OFFCURVE",
"778 670 OFFCURVE",
"570 670 CURVE SMOOTH",
"522 670 OFFCURVE",
"463 677 OFFCURVE",
"434 695 CURVE",
"440 589 LINE",
"547 589 LINE SMOOTH",
"562 589 OFFCURVE",
"574 589 OFFCURVE",
"598 566 CURVE SMOOTH",
"606 558 OFFCURVE",
"661 493 OFFCURVE",
"702 425 CURVE SMOOTH",
"734 371 OFFCURVE",
"826 241 OFFCURVE",
"868 198 CURVE SMOOTH",
"1010 52 OFFCURVE",
"1152 -25 OFFCURVE",
"1288 -25 CURVE SMOOTH"
);
},
{
closed = 1;
nodes = (
"646 0 LINE",
"646 75 LINE",
"347 105 LINE",
"49 75 LINE",
"49 0 LINE"
);
},
{
closed = 1;
nodes = (
"345 1358 LINE",
"49 1358 LINE",
"49 1283 LINE",
"345 1254 LINE"
);
}
);
width = 1385;
}
);
leftMetricsKey = H;
note = R;
rightKerningGroup = R;
rightMetricsKey = A;
unicode = 0052;
},
{
glyphname = S;
lastChange = "2019-07-10 21:00:35 +0000";
layers = (
{
anchors = (
{
name = bottom;
position = "{525, 0}";
},
{
name = top;
position = "{563, 1358}";
}
);
guideLines = (
{
angle = 250.733;
position = "{881, 1275}";
},
{
angle = 96.1373;
position = "{861, 93}";
},
{
angle = 270;
position = "{81, 834}";
},
{
angle = 90;
position = "{1026, 794}";
}
);
layerId = "6CE37295-6E30-426D-87AF-6FEE9061C297";
paths = (
{
closed = 1;
nodes = (
"832 -27 OFFCURVE",
"1026 143 OFFCURVE",
"1026 404 CURVE SMOOTH",
"1026 694 OFFCURVE",
"822 778 OFFCURVE",
"656 825 CURVE SMOOTH",
"512 866 OFFCURVE",
"376 917 OFFCURVE",
"376 1079 CURVE SMOOTH",
"376 1195 OFFCURVE",
"448 1291 OFFCURVE",
"593 1291 CURVE SMOOTH",
"737 1291 OFFCURVE",
"853 1186 OFFCURVE",
"853 968 CURVE",
"967 968 LINE",
"1028 1370 LINE",
"914 1370 LINE",
"858 1208 LINE",
"945 1208 LINE",
"832 1324 OFFCURVE",
"714 1384 OFFCURVE",
"555 1384 CURVE SMOOTH",
"287 1384 OFFCURVE",
"81 1231 OFFCURVE",
"81 988 CURVE SMOOTH",
"81 740 OFFCURVE",
"245 648 OFFCURVE",
"431 588 CURVE SMOOTH",
"598 534 OFFCURVE",
"693 433 OFFCURVE",
"693 293 CURVE SMOOTH",
"693 182 OFFCURVE",
"636 73 OFFCURVE",
"507 73 CURVE SMOOTH",
"336 73 OFFCURVE",
"199 227 OFFCURVE",
"199 455 CURVE",
"95 468 LINE",
"47 141 LINE",
"145 16 OFFCURVE",
"363 -27 OFFCURVE",
"519 -27 CURVE SMOOTH"
);
}
);
userData = {
assembly = "MPPEM[ ]\011/* MeasurePixelPerEm */
PUSHB[ ]\011/* 1 value pushed */
60 
LT[ ]\011/* LessThan */
IF[ ]\011/* If */
NPUSHB[ ]\011/* 34 values pushed */
0 1 5 2 5 1 2 128 0 4 4 68 77 0 5 5 3 97 0 3 3 74 77 0 2 2 0 97 0 0 0 75 0 78 
ELSE[ ]\011/* Else */
NPUSHB[ ]\011/* 35 values pushed */
0 4 3 5 3 4 5 128 0 1 5 2 5 1 2 128 0 3 0 5 1 3 5 105 0 2 2 0 97 0 0 0 75 0 78 
EIF[ ]\011/* EndIf */
NPUSHB[ ]\011/* 9 values pushed */
41 34 42 36 37 35 6 11 28 
CALL[ ]\011/* CallFunction */";
};
width = 1074;
},
{
anchors = (
{
name = bottom;
position = "{541, 0}";
},
{
name = top;
position = "{572, 1358}";
}
);
layerId = "C40247AC-6B1A-4EFE-B804-1FED3C225331";
paths = (
{
closed = 1;
nodes = (
"813 -27 OFFCURVE",
"970 142 OFFCURVE",
"970 363 CURVE SMOOTH",
"970 654 OFFCURVE",
"697 739 OFFCURVE",
"567 780 CURVE SMOOTH",
"375 841 OFFCURVE",
"294 924 OFFCURVE",
"294 1072 CURVE SMOOTH",
"294 1244 OFFCURVE",
"408 1319 OFFCURVE",
"551 1319 CURVE SMOOTH",
"690 1319 OFFCURVE",
"836 1240 OFFCURVE",
"869 966 CURVE",
"932 966 LINE",
"990 1371 LINE",
"927 1371 LINE",
"872 1212 LINE",
"920 1212 LINE",
"798 1354 OFFCURVE",
"655 1385 OFFCURVE",
"554 1385 CURVE SMOOTH",
"336 1385 OFFCURVE",
"179 1259 OFFCURVE",
"179 1035 CURVE SMOOTH",
"179 835 OFFCURVE",
"310 721 OFFCURVE",
"570 640 CURVE SMOOTH",
"686 604 OFFCURVE",
"855 534 OFFCURVE",
"855 322 CURVE SMOOTH",
"855 153 OFFCURVE",
"737 39 OFFCURVE",
"566 39 CURVE SMOOTH",
"382 39 OFFCURVE",
"247 165 OFFCURVE",
"247 469 CURVE",
"183 475 LINE",
"136 109 LINE",
"280 11 OFFCURVE",
"389 -27 OFFCURVE",
"525 -27 CURVE SMOOTH"
);
}
);
width = 1130;
},
{
anchors = (
{
name = bottom;
position = "{488, 0}";
},
{
name = top;
position = "{539, 1358}";
}
);
hints = (
{
origin = "{rsb}";
target = "{0, 2}";
type = TTStem;
},
{
origin = "{0, 2}";
target = "{0, 31}";
type = TTStem;
},
{
origin = "{0, 15}";
target = "{0, 2}";
type = TTStem;
stem = -1;
},
{
origin = "{0, 15}";
target = "{0, 14}";
type = TTStem;
},
{
origin = "{0, 15}";
target = "{0, 16}";
type = TTStem;
stem = -1;
options = 4;
},
{
origin = "{0, 14}";
target = "{0, 17}";
type = TTStem;
stem = -1;
options = 4;
},
{
origin = "{0, 25}";
type = Anchor;
},
{
origin = "{0, 25}";
target = "{0, 8}";
type = TTStem;
options = 4;
},
{
origin = "{0, 25}";
target = "{0, 38}";
type = TTStem;
stem = -1;
},
{
origin = "{0, 38}";
target = "{0, 37}";
type = TTStem;
},
{
horizontal = 1;
origin = "{0, 22}";
type = Anchor;
},
{
horizontal = 1;
origin = "{0, 22}";
target = "{0, 11}";
type = TTStem;
options = 4;
},
{
horizontal = 1;
origin = "{0, 42}";
type = Anchor;
},
{
horizontal = 1;
origin = "{0, 42}";
target = "{0, 34}";
type = TTStem;
options = 4;
}
);
layerId = "56E89462-3A12-4850-914F-0D670F297A3A";
paths = (
{
closed = 1;
nodes = (
"736 -27 OFFCURVE",
"892 142 OFFCURVE",
"892 364 CURVE SMOOTH",
"892 591 OFFCURVE",
"731 684 OFFCURVE",
"554 760 CURVE SMOOTH",
"410 822 OFFCURVE",
"266 892 OFFCURVE",
"266 1059 CURVE SMOOTH",
"266 1225 OFFCURVE",
"371 1328 OFFCURVE",
"497 1328 CURVE SMOOTH",
"625 1328 OFFCURVE",
"785 1246 OFFCURVE",
"800 966 CURVE",
"849 966 LINE",
"903 1371 LINE",
"854 1371 LINE",
"806 1201 LINE",
"848 1201 LINE",
"741 1354 OFFCURVE",
"601 1385 OFFCURVE",
"505 1385 CURVE SMOOTH",
"300 1385 OFFCURVE",
"155 1245 OFFCURVE",
"155 1032 CURVE SMOOTH",
"155 821 OFFCURVE",
"323 720 OFFCURVE",
"480 658 CURVE SMOOTH",
"615 605 OFFCURVE",
"781 533 OFFCURVE",
"781 332 CURVE SMOOTH",
"781 161 OFFCURVE",
"658 30 OFFCURVE",
"492 30 CURVE SMOOTH",
"321 30 OFFCURVE",
"199 139 OFFCURVE",
"199 469 CURVE",
"150 476 LINE",
"113 159 LINE",
"207 29 OFFCURVE",
"336 -27 OFFCURVE",
"483 -27 CURVE SMOOTH"
);
}
);
width = 1020;
},
{
anchors = (
{
name = bottom;
position = "{497, 0}";
},
{
name = top;
position = "{535, 1358}";
}
);
guideLines = (
{
angle = 90;
position = "{960, 410}";
},
{
angle = 90;
position = "{90, 991}";
}
);
layerId = "D683B167-653D-4D52-BD41-B5BCAD6A6428";
paths = (
{
closed = 1;
nodes = (
"769 -27 OFFCURVE",
"960 133 OFFCURVE",
"960 399 CURVE SMOOTH",
"960 666 OFFCURVE",
"773 761 OFFCURVE",
"612 814 CURVE SMOOTH",
"470 861 OFFCURVE",
"342 913 OFFCURVE",
"342 1076 CURVE SMOOTH",
"342 1200 OFFCURVE",
"418 1297 OFFCURVE",
"554 1297 CURVE SMOOTH",
"687 1297 OFFCURVE",
"805 1196 OFFCURVE",
"805 968 CURVE",
"902 968 LINE",
"959 1370 LINE",
"861 1370 LINE",
"809 1207 LINE",
"885 1207 LINE",
"779 1329 OFFCURVE",
"663 1384 OFFCURVE",
"524 1384 CURVE SMOOTH",
"279 1384 OFFCURVE",
"90 1233 OFFCURVE",
"90 995 CURVE SMOOTH",
"90 749 OFFCURVE",
"304 643 OFFCURVE",
"462 590 CURVE SMOOTH",
"630 534 OFFCURVE",
"692 452 OFFCURVE",
"692 317 CURVE SMOOTH",
"692 160 OFFCURVE",
"601 66 OFFCURVE",
"461 66 CURVE SMOOTH",
"286 66 OFFCURVE",
"188 213 OFFCURVE",
"188 457 CURVE",
"99 469 LINE",
"55 144 LINE",
"146 18 OFFCURVE",
"322 -27 OFFCURVE",
"476 -27 CURVE SMOOTH"
);
}
);
width = 1020;
}
);
leftKerningGroup = S;
note = S;
rightKerningGroup = S;
unicode = 0053;
},
{
glyphname = uni1E9E;
lastChange = "2019-07-10 21:00:35 +0000";
layers = (
{
anchors = (
{
name = bottom;
position = "{796, 0}";
},
{
name = top;
position = "{796, 1358}";
}
);
layerId = "6CE37295-6E30-426D-87AF-6FEE9061C297";
paths = (
{
closed = 1;
nodes = (
"1333 -26 OFFCURVE",
"1534 116 OFFCURVE",
"1534 373 CURVE SMOOTH",
"1534 609 OFFCURVE",
"1328 739 OFFCURVE",
"1027 739 CURVE",
"1066 713 LINE",
"1424 1300 LINE",
"1412 1319 LINE",
"1315 1360 OFFCURVE",
"1153 1384 OFFCURVE",
"977 1384 CURVE SMOOTH",
"543 1384 OFFCURVE",
"201 1226 OFFCURVE",
"201 770 CURVE SMOOTH",
"201 40 LINE",
"530 40 LINE",
"530 737 LINE SMOOTH",
"530 1061 OFFCURVE",
"610 1291 OFFCURVE",
"927 1291 CURVE SMOOTH",
"1020 1291 OFFCURVE",
"1089 1275 OFFCURVE",
"1118 1247 CURVE",
"1111 1285 LINE",
"781 721 LINE",
"843 660 LINE",
"1084 660 OFFCURVE",
"1213 552 OFFCURVE",
"1213 336 CURVE SMOOTH",
"1213 158 OFFCURVE",
"1174 73 OFFCURVE",
"1058 73 CURVE SMOOTH",
"936 73 OFFCURVE",
"846 186 OFFCURVE",
"824 375 CURVE",
"679 375 LINE",
"679 274 OFFCURVE",
"693 192 OFFCURVE",
"727 82 CURVE",
"782 23 OFFCURVE",
"930 -26 OFFCURVE",
"1051 -26 CURVE SMOOTH"
);
},
{
closed = 1;
nodes = (
"689 0 LINE",
"689 81 LINE",
"390 111 LINE",
"42 81 LINE",
"42 0 LINE"
);
}
);
userData = {
assembly = "NPUSHB[ ]\011/* 18 values pushed */
59 1 4 8 30 1 9 4 25 1 3 9 8 1 5 1 4 76 
MPPEM[ ]\011/* MeasurePixelPerEm */
PUSHB[ ]\011/* 1 value pushed */
51 
LT[ ]\011/* LessThan */
IF[ ]\011/* If */
NPUSHB[ ]\011/* 54 values pushed */
0 9 4 3 4 9 3 128 0 3 1 4 3 1 126 0 1 5 4 1 5 126 0 4 4 8 97 0 8 8 74 77 7 1 5 5 6 95 0 6 6 69 77 0 2 2 0 98 0 0 0 75 0 78 
ELSE[ ]\011/* Else */
MPPEM[ ]\011/* MeasurePixelPerEm */
PUSHB[ ]\011/* 1 value pushed */
60 
LT[ ]\011/* LessThan */
IF[ ]\011/* If */
NPUSHB[ ]\011/* 52 values pushed */
0 9 4 3 4 9 3 128 0 3 1 4 3 1 126 0 1 5 4 1 5 126 7 1 5 0 6 0 5 6 103 0 4 4 8 97 0 8 8 74 77 0 2 2 0 98 0 0 0 75 0 78 
ELSE[ ]\011/* Else */
NPUSHB[ ]\011/* 50 values pushed */
0 9 4 3 4 9 3 128 0 3 1 4 3 1 126 0 1 5 4 1 5 126 0 8 0 4 9 8 4 105 7 1 5 0 6 0 5 6 103 0 2 2 0 98 0 0 0 75 0 78 
EIF[ ]\011/* EndIf */
EIF[ ]\011/* EndIf */
NPUSHB[ ]\011/* 14 values pushed */
64 63 36 34 66 20 41 36 36 23 34 10 11 31 
CALL[ ]\011/* CallFunction */";
};
width = 1549;
},
{
anchors = (
{
name = bottom;
position = "{770, 0}";
},
{
name = top;
position = "{770, 1358}";
}
);
layerId = "C40247AC-6B1A-4EFE-B804-1FED3C225331";
paths = (
{
closed = 1;
nodes = (
"1253 -36 OFFCURVE",
"1420 133 OFFCURVE",
"1420 372 CURVE SMOOTH",
"1420 587 OFFCURVE",
"1241 739 OFFCURVE",
"969 739 CURVE",
"964 723 LINE",
"1333 1286 LINE",
"1312 1331 LINE",
"1184 1367 OFFCURVE",
"1081 1385 OFFCURVE",
"950 1385 CURVE SMOOTH",
"531 1385 OFFCURVE",
"260 1191 OFFCURVE",
"260 770 CURVE SMOOTH",
"260 22 LINE",
"369 22 LINE",
"369 738 LINE SMOOTH",
"369 1113 OFFCURVE",
"547 1326 OFFCURVE",
"897 1326 CURVE SMOOTH",
"981 1326 OFFCURVE",
"1114 1306 OFFCURVE",
"1175 1225 CURVE",
"1199 1292 LINE",
"840 719 LINE",
"837 687 LINE",
"1110 687 OFFCURVE",
"1299 553 OFFCURVE",
"1299 365 CURVE SMOOTH",
"1299 195 OFFCURVE",
"1214 37 OFFCURVE",
"1029 37 CURVE SMOOTH",
"859 37 OFFCURVE",
"745 173 OFFCURVE",
"721 374 CURVE",
"667 374 LINE",
"667 275 OFFCURVE",
"684 174 OFFCURVE",
"719 72 CURVE",
"796 6 OFFCURVE",
"897 -36 OFFCURVE",
"1008 -36 CURVE SMOOTH"
);
},
{
closed = 1;
nodes = (
"572 0 LINE",
"572 44 LINE",
"318 74 LINE",
"57 44 LINE",
"57 0 LINE"
);
}
);
width = 1461;
},
{
anchors = (
{
name = bottom;
position = "{729, 0}";
},
{
name = top;
position = "{729, 1358}";
}
);
hints = (
{
horizontal = 1;
origin = "{1, 4}";
target = "{1, 3}";
type = TTStem;
options = 4;
},
{
horizontal = 1;
origin = "{1, 3}";
target = "{1, 1}";
type = Align;
options = 4;
},
{
horizontal = 1;
origin = "{0, 42}";
target = "{0, 32}";
type = TTStem;
options = 4;
},
{
horizontal = 1;
origin = "{0, 11}";
target = "{0, 20}";
type = TTStem;
options = 4;
},
{
horizontal = 1;
origin = "{0, 26}";
target = "{0, 5}";
type = TTStem;
options = 4;
},
{
horizontal = 1;
origin = "{0, 32}";
target = "{0, 20}";
other1 = "{0, 26}";
type = Interpolate;
},
{
origin = "{0, 15}";
type = Anchor;
},
{
origin = "{rsb}";
target = "{0, 2}";
type = TTStem;
stem = -1;
options = 4;
},
{
origin = "{0, 15}";
target = "{0, 16}";
type = TTStem;
options = 4;
},
{
origin = "{0, 2}";
target = "{0, 29}";
type = TTStem;
options = 4;
},
{
origin = "{0, 36}";
target = "{0, 35}";
type = TTStem;
options = 4;
},
{
horizontal = 1;
origin = "{1, 4}";
type = Anchor;
},
{
horizontal = 1;
origin = "{0, 42}";
type = Anchor;
},
{
horizontal = 1;
origin = "{0, 11}";
type = Anchor;
},
{
horizontal = 1;
origin = "{1, 3}";
target = "{1, 4}";
other1 = "{0, 15}";
type = Interpolate;
options = 4;
}
);
layerId = "56E89462-3A12-4850-914F-0D670F297A3A";
paths = (
{
closed = 1;
nodes = (
"1185 -36 OFFCURVE",
"1342 133 OFFCURVE",
"1342 372 CURVE SMOOTH",
"1342 587 OFFCURVE",
"1174 739 OFFCURVE",
"921 739 CURVE",
"915 723 LINE",
"1260 1286 LINE",
"1240 1331 LINE",
"1121 1368 OFFCURVE",
"1025 1385 OFFCURVE",
"904 1385 CURVE SMOOTH",
"503 1385 OFFCURVE",
"260 1183 OFFCURVE",
"260 770 CURVE SMOOTH",
"260 22 LINE",
"358 22 LINE",
"358 738 LINE SMOOTH",
"358 1105 OFFCURVE",
"520 1326 OFFCURVE",
"854 1326 CURVE SMOOTH",
"932 1326 OFFCURVE",
"1053 1303 OFFCURVE",
"1094 1239 CURVE",
"1119 1292 LINE",
"783 719 LINE",
"799 688 LINE",
"1044 688 OFFCURVE",
"1215 553 OFFCURVE",
"1215 365 CURVE SMOOTH",
"1215 195 OFFCURVE",
"1140 37 OFFCURVE",
"977 37 CURVE SMOOTH",
"816 37 OFFCURVE",
"711 178 OFFCURVE",
"689 374 CURVE",
"639 374 LINE",
"639 275 OFFCURVE",
"655 174 OFFCURVE",
"688 72 CURVE",
"760 6 OFFCURVE",
"854 -36 OFFCURVE",
"957 -36 CURVE SMOOTH"
);
},
{
closed = 1;
nodes = (
"562 0 LINE",
"562 44 LINE",
"314 74 LINE",
"56 44 LINE",
"56 0 LINE"
);
}
);
width = 1381;
},
{
anchors = (
{
name = bottom;
position = "{687, 0}";
},
{
name = top;
position = "{687, 1358}";
}
);
layerId = "D683B167-653D-4D52-BD41-B5BCAD6A6428";
paths = (
{
closed = 1;
nodes = (
"1174 -28 OFFCURVE",
"1356 119 OFFCURVE",
"1356 373 CURVE SMOOTH",
"1356 605 OFFCURVE",
"1169 739 OFFCURVE",
"895 739 CURVE",
"926 715 LINE",
"1258 1298 LINE",
"1245 1321 LINE",
"1155 1360 OFFCURVE",
"1014 1384 OFFCURVE",
"855 1384 CURVE SMOOTH",
"475 1384 OFFCURVE",
"175 1177 OFFCURVE",
"175 770 CURVE SMOOTH",
"175 37 LINE",
"438 37 LINE",
"438 737 LINE SMOOTH",
"438 904 OFFCURVE",
"438 1297 OFFCURVE",
"808 1297 CURVE SMOOTH",
"889 1297 OFFCURVE",
"965 1280 OFFCURVE",
"993 1246 CURVE",
"991 1286 LINE",
"683 721 LINE",
"731 665 LINE",
"956 665 OFFCURVE",
"1066 552 OFFCURVE",
"1066 341 CURVE SMOOTH",
"1066 166 OFFCURVE",
"1024 67 OFFCURVE",
"909 67 CURVE SMOOTH",
"789 67 OFFCURVE",
"702 188 OFFCURVE",
"682 375 CURVE",
"582 375 LINE",
"582 269 OFFCURVE",
"596 189 OFFCURVE",
"626 80 CURVE",
"680 20 OFFCURVE",
"811 -28 OFFCURVE",
"920 -28 CURVE SMOOTH"
);
},
{
closed = 1;
nodes = (
"572 0 LINE",
"572 75 LINE",
"306 105 LINE",
"42 75 LINE",
"42 0 LINE"
);
}
);
width = 1381;
}
);
note = uni1E9E;
rightMetricsKey = "=H/2";
unicode = 1E9E;
},
{
glyphname = T;
lastChange = "2019-07-10 21:00:35 +0000";
layers = (
{
anchors = (
{
name = bottom;
position = "{721, 0}";
},
{
name = center;
position = "{746, 679}";
},
{
name = overlay;
position = "{746, 684}";
},
{
name = top;
position = "{721, 1358}";
}
);
layerId = "6CE37295-6E30-426D-87AF-6FEE9061C297";
paths = (
{
closed = 1;
nodes = (
"911 40 LINE",
"911 1257 LINE",
"1137 1257 LINE SMOOTH",
"1204 1257 OFFCURVE",
"1239 1248 OFFCURVE",
"1260 1204 CURVE SMOOTH",
"1348 1022 LINE",
"1448 1022 LINE",
"1424 1121 OFFCURVE",
"1400 1288 OFFCURVE",
"1400 1319 CURVE SMOOTH",
"1400 1340 OFFCURVE",
"1400 1381 OFFCURVE",
"1407 1403 CURVE",
"1313 1400 LINE",
"1284 1368 OFFCURVE",
"1241 1358 OFFCURVE",
"1205 1358 CURVE SMOOTH",
"278 1358 LINE SMOOTH",
"246 1358 OFFCURVE",
"224 1370 OFFCURVE",
"206 1406 CURVE",
"128 1406 LINE",
"22 1021 LINE",
"121 1021 LINE",
"237 1202 LINE SMOOTH",
"261 1239 OFFCURVE",
"303 1257 OFFCURVE",
"456 1257 CURVE SMOOTH",
"581 1257 LINE",
"581 40 LINE"
);
},
{
closed = 1;
nodes = (
"1094 0 LINE",
"1094 81 LINE",
"745 111 LINE",
"399 81 LINE",
"399 0 LINE"
);
}
);
userData = {
assembly = "NPUSHB[ ]\011/* 11 values pushed */
35 1 3 4 36 20 2 0 3 2 76 
MPPEM[ ]\011/* MeasurePixelPerEm */
PUSHB[ ]\011/* 1 value pushed */
51 
LT[ ]\011/* LessThan */
IF[ ]\011/* If */
NPUSHB[ ]\011/* 23 values pushed */
5 1 3 3 4 95 0 4 4 68 77 2 1 0 0 1 95 0 1 1 69 1 78 
ELSE[ ]\011/* Else */
MPPEM[ ]\011/* MeasurePixelPerEm */
PUSHB[ ]\011/* 1 value pushed */
60 
LT[ ]\011/* LessThan */
IF[ ]\011/* If */
NPUSHB[ ]\011/* 20 values pushed */
2 1 0 0 1 0 1 99 5 1 3 3 4 95 0 4 4 68 3 78 
ELSE[ ]\011/* Else */
NPUSHB[ ]\011/* 27 values pushed */
0 4 5 1 3 0 4 3 105 2 1 0 1 1 0 89 2 1 0 0 1 95 0 1 0 1 79 
EIF[ ]\011/* EndIf */
EIF[ ]\011/* EndIf */
NPUSHB[ ]\011/* 9 values pushed */
57 89 51 34 66 17 6 11 28 
CALL[ ]\011/* CallFunction */";
};
width = 1470;
},
{
anchors = (
{
name = bottom;
position = "{775, 0}";
},
{
name = center;
position = "{775, 679}";
},
{
name = overlay;
position = "{775, 674}";
},
{
name = top;
position = "{775, 1358}";
}
);
layerId = "C40247AC-6B1A-4EFE-B804-1FED3C225331";
paths = (
{
closed = 1;
nodes = (
"824 22 LINE",
"824 1297 LINE",
"1199 1297 LINE SMOOTH",
"1288 1297 OFFCURVE",
"1332 1278 OFFCURVE",
"1358 1225 CURVE SMOOTH",
"1463 1016 LINE",
"1510 1016 LINE",
"1483 1109 OFFCURVE",
"1457 1264 OFFCURVE",
"1457 1295 CURVE SMOOTH",
"1457 1323 OFFCURVE",
"1458 1346 OFFCURVE",
"1472 1376 CURVE",
"1423 1390 LINE",
"1398 1368 OFFCURVE",
"1359 1358 OFFCURVE",
"1326 1358 CURVE",
"267 1358 LINE",
"239 1358 OFFCURVE",
"191 1372 OFFCURVE",
"169 1399 CURVE",
"118 1399 LINE",
"20 1026 LINE",
"68 1026 LINE",
"199 1230 LINE SMOOTH",
"237 1289 OFFCURVE",
"282 1297 OFFCURVE",
"356 1297 CURVE SMOOTH",
"715 1297 LINE",
"715 22 LINE"
);
},
{
closed = 1;
nodes = (
"1024 0 LINE",
"1024 44 LINE",
"772 74 LINE",
"515 44 LINE",
"515 0 LINE"
);
}
);
width = 1532;
},
{
anchors = (
{
name = bottom;
position = "{735, 0}";
},
{
name = center;
position = "{735, 679}";
},
{
name = overlay;
position = "{735, 674}";
},
{
name = top;
position = "{735, 1358}";
}
);
hints = (
{
horizontal = 1;
origin = "{1, 4}";
target = "{1, 3}";
type = TTStem;
stem = 2;
},
{
horizontal = 1;
origin = "{1, 3}";
target = "{1, 1}";
type = Align;
options = 4;
},
{
horizontal = 1;
origin = "{0, 18}";
target = "{0, 29}";
type = TTStem;
stem = 2;
},
{
horizontal = 1;
origin = "{0, 29}";
target = "{0, 1}";
type = Align;
options = 4;
},
{
origin = "{0, 30}";
type = Anchor;
},
{
origin = "{0, 30}";
target = "{0, 0}";
type = TTStem;
options = 4;
},
{
horizontal = 1;
origin = "{0, 18}";
type = Anchor;
},
{
horizontal = 1;
origin = "{1, 4}";
type = Anchor;
},
{
horizontal = 1;
origin = "{1, 3}";
target = "{1, 4}";
other1 = "{0, 30}";
type = Interpolate;
options = 4;
}
);
layerId = "56E89462-3A12-4850-914F-0D670F297A3A";
paths = (
{
closed = 1;
nodes = (
"779 22 LINE",
"779 1303 LINE",
"1145 1303 LINE SMOOTH",
"1230 1303 OFFCURVE",
"1272 1291 OFFCURVE",
"1301 1222 CURVE SMOOTH",
"1387 1021 LINE",
"1423 1021 LINE",
"1397 1114 OFFCURVE",
"1373 1263 OFFCURVE",
"1373 1294 CURVE SMOOTH",
"1373 1323 OFFCURVE",
"1374 1346 OFFCURVE",
"1387 1375 CURVE",
"1342 1390 LINE",
"1318 1368 OFFCURVE",
"1282 1358 OFFCURVE",
"1252 1358 CURVE SMOOTH",
"260 1358 LINE SMOOTH",
"234 1358 OFFCURVE",
"189 1372 OFFCURVE",
"169 1398 CURVE",
"121 1398 LINE",
"24 1031 LINE",
"61 1031 LINE",
"176 1224 LINE SMOOTH",
"215 1289 OFFCURVE",
"244 1303 OFFCURVE",
"306 1303 CURVE SMOOTH",
"681 1303 LINE",
"681 22 LINE"
);
},
{
closed = 1;
nodes = (
"979 0 LINE",
"979 44 LINE",
"734 74 LINE",
"481 44 LINE",
"481 0 LINE"
);
}
);
width = 1454;
},
{
anchors = (
{
name = bottom;
position = "{767, 0}";
},
{
name = center;
position = "{738, 683}";
},
{
name = overlay;
position = "{738, 683}";
},
{
name = top;
position = "{738, 1358}";
}
);
layerId = "D683B167-653D-4D52-BD41-B5BCAD6A6428";
paths = (
{
closed = 1;
nodes = (
"869 37 LINE",
"869 1265 LINE",
"1144 1265 LINE SMOOTH",
"1222 1265 OFFCURVE",
"1254 1251 OFFCURVE",
"1275 1207 CURVE SMOOTH",
"1365 1022 LINE",
"1431 1022 LINE",
"1405 1124 OFFCURVE",
"1382 1287 OFFCURVE",
"1382 1315 CURVE SMOOTH",
"1382 1337 OFFCURVE",
"1382 1375 OFFCURVE",
"1390 1398 CURVE",
"1302 1398 LINE",
"1271 1366 OFFCURVE",
"1226 1358 OFFCURVE",
"1195 1358 CURVE SMOOTH",
"280 1358 LINE SMOOTH",
"249 1358 OFFCURVE",
"221 1370 OFFCURVE",
"203 1405 CURVE",
"128 1405 LINE",
"21 1023 LINE",
"87 1023 LINE",
"205 1206 LINE SMOOTH",
"235 1252 OFFCURVE",
"286 1265 OFFCURVE",
"413 1265 CURVE SMOOTH",
"606 1265 LINE",
"606 37 LINE"
);
},
{
closed = 1;
nodes = (
"1054 0 LINE",
"1054 75 LINE",
"737 105 LINE",
"420 75 LINE",
"420 0 LINE"
);
}
);
width = 1454;
}
);
leftKerningGroup = T;
note = T;
rightKerningGroup = T;
unicode = 0054;
},
{
glyphname = U;
lastChange = "2019-07-10 21:00:35 +0000";
layers = (
{
anchors = (
{
name = bottom;
position = "{702, 0}";
},
{
name = ogonek;
position = "{1205, 102}";
},
{
name = top;
position = "{786, 1358}";
}
);
layerId = "6CE37295-6E30-426D-87AF-6FEE9061C297";
paths = (
{
closed = 1;
nodes = (
"1012 -27 OFFCURVE",
"1221 41 OFFCURVE",
"1308 246 CURVE SMOOTH",
"1352 350 OFFCURVE",
"1376 501 OFFCURVE",
"1376 741 CURVE SMOOTH",
"1376 1311 LINE",
"1152 1311 LINE",
"1152 498 LINE SMOOTH",
"1152 207 OFFCURVE",
"1046 73 OFFCURVE",
"814 73 CURVE SMOOTH",
"563 73 OFFCURVE",
"470 197 OFFCURVE",
"470 530 CURVE SMOOTH",
"470 1311 LINE",
"140 1311 LINE",
"140 546 LINE SMOOTH",
"140 272 OFFCURVE",
"234 129 OFFCURVE",
"413 37 CURVE SMOOTH",
"487 -1 OFFCURVE",
"650 -27 OFFCURVE",
"772 -27 CURVE SMOOTH"
);
},
{
closed = 1;
nodes = (
"666 1277 LINE",
"666 1358 LINE",
"-28 1358 LINE",
"-28 1277 LINE",
"306 1247 LINE"
);
},
{
closed = 1;
nodes = (
"1533 1277 LINE",
"1533 1358 LINE",
"991 1358 LINE",
"991 1277 LINE",
"1270 1247 LINE"
);
}
);
userData = {
assembly = "PUSHB[ ]\011/* 6 values pushed */
2 1 4 1 1 76 
MPPEM[ ]\011/* MeasurePixelPerEm */
PUSHB[ ]\011/* 1 value pushed */
60 
LT[ ]\011/* LessThan */
IF[ ]\011/* If */
NPUSHB[ ]\011/* 25 values pushed */
7 5 3 3 1 1 2 95 6 1 2 2 68 77 0 4 4 0 97 0 0 0 75 0 78 
ELSE[ ]\011/* Else */
NPUSHB[ ]\011/* 23 values pushed */
6 1 2 7 5 3 3 1 4 2 1 105 0 4 4 0 97 0 0 0 75 0 78 
EIF[ ]\011/* EndIf */
NPUSHB[ ]\011/* 11 values pushed */
34 82 21 38 34 82 23 37 8 11 30 
CALL[ ]\011/* CallFunction */";
};
width = 1530;
},
{
anchors = (
{
name = bottom;
position = "{784, 0}";
},
{
name = ogonek;
position = "{1177, 102}";
},
{
name = top;
position = "{840, 1358}";
}
);
layerId = "C40247AC-6B1A-4EFE-B804-1FED3C225331";
paths = (
{
closed = 1;
nodes = (
"1042 -27 OFFCURVE",
"1226 80 OFFCURVE",
"1298 264 CURVE SMOOTH",
"1335 358 OFFCURVE",
"1335 495 OFFCURVE",
"1335 728 CURVE SMOOTH",
"1335 1325 LINE",
"1259 1325 LINE",
"1259 486 LINE SMOOTH",
"1259 185 OFFCURVE",
"1113 33 OFFCURVE",
"825 33 CURVE SMOOTH",
"537 33 OFFCURVE",
"392 204 OFFCURVE",
"392 542 CURVE SMOOTH",
"392 1325 LINE",
"283 1325 LINE",
"283 539 LINE SMOOTH",
"283 395 OFFCURVE",
"284 164 OFFCURVE",
"470 49 CURVE SMOOTH",
"551 -1 OFFCURVE",
"653 -27 OFFCURVE",
"784 -27 CURVE SMOOTH"
);
},
{
closed = 1;
nodes = (
"592 1314 LINE",
"592 1358 LINE",
"82 1358 LINE",
"82 1314 LINE",
"336 1284 LINE"
);
},
{
closed = 1;
nodes = (
"1515 1314 LINE",
"1515 1358 LINE",
"1076 1358 LINE",
"1076 1314 LINE",
"1293 1284 LINE"
);
}
);
width = 1597;
},
{
anchors = (
{
name = bottom;
position = "{731, 0}";
},
{
name = ogonek;
position = "{1099, 102}";
},
{
name = top;
position = "{787, 1358}";
}
);
hints = (
{
horizontal = 1;
origin = "{0, 23}";
target = "{0, 11}";
type = TTStem;
options = 4;
},
{
horizontal = 1;
origin = "{1, 2}";
target = "{1, 3}";
type = TTStem;
stem = 2;
},
{
horizontal = 1;
origin = "{1, 2}";
target = "{2, 2}";
type = Align;
options = 4;
},
{
horizontal = 1;
origin = "{1, 3}";
target = "{2, 3}";
type = Align;
options = 4;
},
{
origin = "{0, 16}";
target = "{0, 15}";
type = TTStem;
options = 4;
},
{
origin = "{0, 7}";
target = "{0, 6}";
type = TTStem;
stem = -1;
options = 4;
},
{
horizontal = 1;
origin = "{1, 2}";
type = Anchor;
},
{
horizontal = 1;
origin = "{1, 3}";
target = "{1, 2}";
other1 = "{0, 16}";
type = Interpolate;
options = 4;
},
{
horizontal = 1;
origin = "{0, 16}";
target = "{0, 7}";
type = Align;
options = 4;
},
{
horizontal = 1;
origin = "{0, 23}";
type = Anchor;
}
);
layerId = "56E89462-3A12-4850-914F-0D670F297A3A";
paths = (
{
closed = 1;
nodes = (
"965 -27 OFFCURVE",
"1131 77 OFFCURVE",
"1204 250 CURVE SMOOTH",
"1241 337 OFFCURVE",
"1241 493 OFFCURVE",
"1241 728 CURVE SMOOTH",
"1241 1329 LINE",
"1172 1329 LINE",
"1172 486 LINE SMOOTH",
"1172 185 OFFCURVE",
"1032 33 OFFCURVE",
"754 33 CURVE SMOOTH",
"492 33 OFFCURVE",
"359 204 OFFCURVE",
"359 542 CURVE SMOOTH",
"359 1329 LINE",
"261 1329 LINE",
"261 538 LINE SMOOTH",
"261 288 OFFCURVE",
"304 127 OFFCURVE",
"435 47 CURVE SMOOTH",
"507 3 OFFCURVE",
"603 -27 OFFCURVE",
"731 -27 CURVE SMOOTH"
);
},
{
closed = 1;
nodes = (
"559 1314 LINE",
"559 1358 LINE",
"59 1358 LINE",
"59 1314 LINE",
"311 1284 LINE"
);
},
{
closed = 1;
nodes = (
"1435 1314 LINE",
"1435 1358 LINE",
"973 1358 LINE",
"973 1314 LINE",
"1210 1284 LINE"
);
}
);
width = 1494;
},
{
anchors = (
{
name = bottom;
position = "{694, 0}";
},
{
name = ogonek;
position = "{1143, 102}";
},
{
name = top;
position = "{770, 1358}";
}
);
layerId = "D683B167-653D-4D52-BD41-B5BCAD6A6428";
paths = (
{
closed = 1;
nodes = (
"974 -27 OFFCURVE",
"1157 43 OFFCURVE",
"1241 250 CURVE SMOOTH",
"1284 355 OFFCURVE",
"1299 518 OFFCURVE",
"1299 739 CURVE SMOOTH",
"1299 1314 LINE",
"1126 1314 LINE",
"1126 496 LINE SMOOTH",
"1126 204 OFFCURVE",
"1017 66 OFFCURVE",
"788 66 CURVE SMOOTH",
"560 66 OFFCURVE",
"469 199 OFFCURVE",
"469 532 CURVE SMOOTH",
"469 1314 LINE",
"206 1314 LINE",
"206 545 LINE SMOOTH",
"206 315 OFFCURVE",
"247 142 OFFCURVE",
"437 38 CURVE SMOOTH",
"504 1 OFFCURVE",
"629 -27 OFFCURVE",
"750 -27 CURVE SMOOTH"
);
},
{
closed = 1;
nodes = (
"637 1283 LINE",
"637 1358 LINE",
"38 1358 LINE",
"38 1283 LINE",
"328 1253 LINE"
);
},
{
closed = 1;
nodes = (
"1456 1283 LINE",
"1456 1358 LINE",
"965 1358 LINE",
"965 1283 LINE",
"1204 1253 LINE"
);
}
);
width = 1494;
}
);
leftKerningGroup = U;
note = U;
rightKerningGroup = U;
unicode = 0055;
},
